<ttFont>
<head>
    <!-- Most of this table will be recalculated by the compiler -->
    <tableVersion value="1.0"/>
    <fontRevision value="1.0"/>
    <checkSumAdjustment value="0xd834e5cb"/>
    <magicNumber value="0x5f0f3cf5"/>
    <flags value="00000000 00000011"/>
    <unitsPerEm value="2048"/>
    <created value="Thu Aug 15 19:12:54 2019"/>
    <modified value="Fri Aug 16 02:19:13 2019"/>
    <xMin value="-459"/>
    <yMin value="-525"/>
    <xMax value="3484"/>
    <yMax value="1995"/>
<macStyle value="00000000 00000010"/>
    <lowestRecPPEM value="3"/>
    <fontDirectionHint value="2"/>
    <indexToLocFormat value="0"/>
    <glyphDataFormat value="0"/>
  </head>
          <CharString index="0">
            146 119 92 167 return
          </CharString>
          <CharString index="1">
            65 vhcurveto
            -2 -6 -9 -46 -6 vvcurveto
            -128 -21 51 -67 113 hhcurveto
            return
          </CharString>
          <CharString index="2">
            rmoveto
            -237 121 -133 156 return
          </CharString>
          <CharString index="3">
            rmoveto
            -37 callsubr
            26 callsubr
            endchar
          </CharString>
          <CharString index="4">
            rmoveto
            470 307 390 440 374 88 callsubr
            -84 callgsubr
            410 hhcurveto
            -20 104 232 callsubr
          </CharString>
          <CharString index="5">
            99 113 47 65 52 hvcurveto
            16 78 rlineto
            -28 -34 -46 -94 callgsubr
            return
          </CharString>
          <CharString index="6">
            137 callsubr
            endchar
          </CharString>
          <CharString index="7">
            103 111 47 65 52 hvcurveto
            -5 callsubr
            25 callsubr
            endchar
          </CharString>
          <CharString index="8">
            rmoveto
            -1063 hlineto
            -35 callsubr
            1108 -32 callsubr
            endchar
          </CharString>
          <CharString index="9">
            rmoveto
            239 callsubr
            return
          </CharString>
          <CharString index="10">
            22 callsubr
            endchar
          </CharString>
          <CharString index="11">
            rmoveto
            122 callsubr
            194 callsubr
            endchar
          </CharString>
          <CharString index="12">
            -96 -457 rcurveline
            5 callsubr
            return
          </CharString>
          <CharString index="13">
            1841 rmoveto
            -209 -290 return
          </CharString>
          <CharString index="14">
            -6 callsubr
            endchar
          </CharString>
          <CharString index="15">
            rmoveto
            -70 -57 -56 -69 -64 return
          </CharString>
          <CharString index="16">
            rmoveto
            79 callsubr
            133 -15 13 -20 -19 -89 rlinecurve
            46 callsubr
            -59 callgsubr
            endchar
          </CharString>
          <CharString index="17">
            55 callsubr
            rlineto
            50 -13 10 -18 return
          </CharString>
          <CharString index="18">
            1519 rmoveto
            -238 -377 return
          </CharString>
          <CharString index="19">
            -11 -52 -122 -575 rcurveline
            return
          </CharString>
          <CharString index="20">
            27 callsubr
            endchar
          </CharString>
          <CharString index="21">
            rmoveto
            584 hlineto
            27 127 rlineto
            -584 hlineto
            return
          </CharString>
          <CharString index="22">
            1190 rmoveto
            83 66 66 81 77 return
          </CharString>
          <CharString index="23">
            -169 -795 267 0 return
          </CharString>
          <CharString index="24">
            rmoveto
            190 -537 -93 -440 -18 -87 -23 -19 -157 -17 rlinecurve
            -16 -75 634 0 16 75 -150 18 -15 18 18 87 rlinecurve
            94 445 409 522 125 161 37 26 111 17 rlinecurve
            return
          </CharString>
          <CharString index="25">
            rmoveto
            -376 -51 -15 -73 189 callsubr
            endchar
          </CharString>
          <CharString index="26">
            182 348 -105 callsubr
            return
          </CharString>
          <CharString index="27">
            82 0 382 281 rlineto
            9 vlineto
            return
          </CharString>
          <CharString index="28">
            1527 rmoveto
            -250 -196 return
          </CharString>
          <CharString index="29">
            102 414 rlineto
            -68 hlineto
            return
          </CharString>
          <CharString index="30">
            16 75 -423 0 -16 -75 138 -18 2 174 callsubr
            17 37 141 172 callsubr
            endchar
          </CharString>
          <CharString index="31">
            -92 callgsubr
            160 -197 89 0 -47 callgsubr
            return
          </CharString>
          <CharString index="32">
            -411 -51 -16 -73 74 -14 -68 callsubr
            return
          </CharString>
          <CharString index="33">
            -75 -77 -63 -61 -78 -71 55 -55 75 hvcurveto
            return
          </CharString>
          <CharString index="34">
            rmoveto
            159 111 callgsubr
            return
          </CharString>
          <CharString index="35">
            1860 rmoveto
            -219 -145 -153 145 -84 0 127 -290 return
          </CharString>
          <CharString index="36">
            1576 rmoveto
            69 57 55 70 64 -50 51 -67 -70 return
          </CharString>
          <CharString index="37">
            64 vhcurveto
            -1 -6 -9 -46 -6 vvcurveto
            -128 -21 51 -67 return
          </CharString>
          <CharString index="38">
            97 0 440 366 rlineto
            11 vlineto
            return
          </CharString>
          <CharString index="39">
            50 -13 10 -18 -11 -52 rlinecurve
            return
          </CharString>
          <CharString index="40">
            rmoveto
            71 -69 129 153 return
          </CharString>
          <CharString index="41">
            -422 80 callgsubr
            267 0 return
          </CharString>
          <CharString index="42">
            -322 36 -53 callgsubr
            62 callgsubr
            return
          </CharString>
          <CharString index="43">
            128 601 rlineto
            168 38 133 callsubr
            return
          </CharString>
          <CharString index="44">
            1160 rmoveto
            195 120 138 220 return
          </CharString>
          <CharString index="45">
            1199 rmoveto
            78 62 61 77 72 -55 55 return
          </CharString>
          <CharString index="46">
            1183 rmoveto
            87 69 69 86 80 -61 62 return
          </CharString>
          <CharString index="47">
            429 hmoveto
            78 62 61 77 72 -55 55 return
          </CharString>
          <CharString index="48">
            96 0 441 366 rlineto
            11 vlineto
            return
          </CharString>
          <CharString index="49">
            1584 rmoveto
            64 53 52 65 return
          </CharString>
          <CharString index="50">
            1551 233 callsubr
            return
          </CharString>
          <CharString index="51">
            -57 -55 -71 -64 50 -50 68 hvcurveto
            return
          </CharString>
          <CharString index="52">
            332 hmoveto
            64 53 52 65 return
          </CharString>
          <CharString index="53">
            81 0 12 callsubr
            return
          </CharString>
          <CharString index="54">
            37 -43 58 hhcurveto
            357 hmoveto
            return
          </CharString>
          <CharString index="55">
            rmoveto
            278 240 126 204 144 -96 97 -202 37 hvcurveto
            -187 34 rlineto
            -92 18 -24 27 34 vvcurveto
            -1 38 35 30 57 16 rrcurveto
            -7 37 39 -4 44 hhcurveto
            281 163 171 204 69 -22 66 -45 53 hvcurveto
            227 -28 22 114 -341 -14 rlineto
            33 -61 -80 19 -100 hhcurveto
            -278 -1 -165 -163 -207 vvcurveto
            -125 71 -110 140 -51 vhcurveto
            -155 -34 -78 -73 1 -95 1 -70 41 -59 88 -35 rrcurveto
            -190 -30 -114 -82 -104 vvcurveto
            -153 199 -89 267 vhcurveto
            -12 1072 rmoveto
            152 65 174 123 92 47 -83 -111 -155 -67 -172 -123 -92 -45 84 111 vhcurveto
            -246 -805 rmoveto
            78 58 58 113 34 vhcurveto
            3 2 -1 3 hhcurveto
            180 -32 rlineto
            139 -25 48 -49 -71 vvcurveto
            -101 -122 -66 -155 -163 -106 72 103 vhcurveto
            endchar
          </CharString>
          <CharString index="56">
            rmoveto
            436 237 344 309 -97 callgsubr
            vhcurveto
            67 -3 60 332 rlineto
            74 -93 -190 72 -223 hhcurveto
            -475 -333 -339 -482 -3 hvcurveto
            return
          </CharString>
          <CharString index="57">
            -36 -56 -21 callgsubr
            114 543 149 callsubr
            -116 -549 rlineto
            -216 -45 88 -127 188 hhcurveto
            return
          </CharString>
          <CharString index="58">
            1519 rmoveto
            -239 -377 97 0 441 366 rlineto
            11 vlineto
            return
          </CharString>
          <CharString index="59">
            -70 -69 -86 -80 61 -62 84 hvcurveto
            98 -167 55 callsubr
            return
          </CharString>
          <CharString index="60">
            11 -36 37 -56 hhcurveto
            -11 hlineto
            -55 -52 -20 callgsubr
            return
          </CharString>
          <CharString index="61">
            45 callsubr
            vhcurveto
            -69 1 55 -53 74 hhcurveto
            endchar
          </CharString>
          <CharString index="62">
            rmoveto
            544 hlineto
            30 141 rlineto
            -544 hlineto
            endchar
          </CharString>
          <CharString index="63">
            98 callsubr
            -52 0 -304 -186 rlineto
            return
          </CharString>
          <CharString index="64">
            741 1492 75 callsubr
            return
          </CharString>
          <CharString index="65">
            -162 0 -248 -290 rlineto
            return
          </CharString>
          <CharString index="66">
            58 56 43 57 12 hvcurveto
            59 12 return
          </CharString>
          <CharString index="67">
            1621 rmoveto
            528 hlineto
            return
          </CharString>
          <CharString index="68">
            rmoveto
            -2 -435 308 -243 368 -1 rrcurveto
            181 194 54 75 100 hvcurveto
            86 398 18 85 18 21 125 15 rlinecurve
            16 75 -557 0 -16 -75 rlineto
            143 -17 12 -18 -18 -86 -79 -373 rcurveline
            -32 -42 -78 -16 -72 hhcurveto
            -233 -156 198 310 436 238 344 310 -97 callgsubr
            hvcurveto
            68 -3 60 332 rlineto
            74 -93 83 callgsubr
            endchar
          </CharString>
          <CharString index="69">
            1331 1579 1444 rmoveto
            -1214 hlineto
            30 callsubr
            87 callsubr
            636 -33 callgsubr
            81 callsubr
            return
          </CharString>
          <CharString index="70">
            -152 1171 -211 0 -644 -1158 -96 -171 -32 -27 -117 -16 rlinecurve
            -16 -75 436 0 16 75 -142 21 -14 31 85 160 rlinecurve
            107 201 455 0 23 -211 return
          </CharString>
          <CharString index="71">
            114 hhcurveto
            102 111 47 65 52 hvcurveto
            105 callsubr
            141 callsubr
            275 hmoveto
            243 1 52 callgsubr
            return
          </CharString>
          <CharString index="72">
            -16 -75 132 -17 14 -18 -18 -89 rlinecurve
            -223 -1046 -19 -88 -22 -19 -139 -17 rlinecurve
            -16 -75 return
          </CharString>
          <CharString index="73">
            rmoveto
            182 143 84 135 21 hvcurveto
            -85 hlineto
            -55 -16 -97 -37 -121 hhcurveto
            -120 -82 37 55 return
          </CharString>
          <CharString index="74">
            110 448 rlineto
            -68 hlineto
            -123 -284 -98 -61 -220 -9 rrcurveto
            -189 -7 return
          </CharString>
          <CharString index="75">
            0 -78 callsubr
            204 callsubr
            53 -46 9 -225 rlinecurve
            67 hlineto
            return
          </CharString>
          <CharString index="76">
            1518 rmoveto
            -277 -11 hlineto
            291 -366 rlineto
            86 hlineto
            return
          </CharString>
          <CharString index="77">
            rmoveto
            -376 108 callsubr
            190 callsubr
            endchar
          </CharString>
          <CharString index="78">
            50 -51 67 70 58 55 71 64 -51 50 -67 hvcurveto
            endchar
          </CharString>
          <CharString index="79">
            -66 rlineto
            1 2 23 1 4 hhcurveto
            73 42 -30 -50 -47 return
          </CharString>
          <CharString index="80">
            55 41 -27 -45 -47 -44 -28 -67 -47 -42 17 18 return
          </CharString>
          <CharString index="81">
            -84 0 127 -290 -22 callsubr
            return
          </CharString>
          <CharString index="82">
            1604 825 24 callsubr
            return
          </CharString>
          <CharString index="83">
            -153 -723 -57 22 callgsubr
          </CharString>
          <CharString index="84">
            hhcurveto
            -11 hlineto
            -58 -56 -43 -59 -12 hvcurveto
            -57 return
          </CharString>
          <CharString index="85">
            170 0 248 290 rlineto
            return
          </CharString>
          <CharString index="86">
            -60 -117 -24 hvcurveto
            86 hlineto
            45 return
          </CharString>
          <CharString index="87">
            -63 rlineto
            5 16 30 5 26 hhcurveto
            return
          </CharString>
          <CharString index="88">
            1511 rmoveto
            35 164 return
          </CharString>
          <CharString index="89">
            -623 -182 -16 -76 rlineto
            return
          </CharString>
          <CharString index="90">
            rmoveto
            108 -1171 204 0 553 1091 83 -1091 209 0 593 1156 91 175 38 25 116 16 rlinecurve
            16 75 -432 0 -16 -75 136 -17 9 -33 -77 -160 rlinecurve
            -426 -888 -58 895 -10 156 16 27 141 20 rlinecurve
            16 75 -579 0 -15 -75 134 -18 8 -38 -72 -151 rlinecurve
            -427 -891 -60 896 -9 149 19 33 143 20 rlinecurve
            16 75 -600 0 -16 -75 102 -15 31 -25 15 -161 rlinecurve
            endchar
          </CharString>
          <CharString index="91">
            rmoveto
            106 499 130 -1 263 -697 358 0 16 71 -65 23 -39 44 -82 214 rlinecurve
            -208 547 266 242 177 158 64 48 124 22 rlinecurve
            16 75 -473 0 -16 -75 138 -15 7 -44 -124 -122 rlinecurve
            -405 -399 -127 -1 97 457 18 88 22 20 129 16 rlinecurve
            16 75 -586 -32 callgsubr
            46 callsubr
            586 0 15 75 -121 16 -14 19 19 89 rlinecurve
            endchar
          </CharString>
          <CharString index="92">
            -23 -19 -133 -16 rlinecurve
            -16 -75 593 0 16 75 -131 16 -17 21 19 90 rlinecurve
            222 1040 19 90 25 21 138 16 rlinecurve
            16 75 -593 0 -16 -75 126 -16 15 -18 -19 -90 rlinecurve
            -98 -460 -600 0 97 460 19 29 callgsubr
            -222 -1040 -19 -89 -23 -21 -140 -17 rlinecurve
            -16 -75 return
          </CharString>
          <CharString index="93">
            245 1158 19 88 22 19 149 17 rlinecurve
            15 75 -605 0 -16 -75 rlineto
            132 -16 13 -21 -19 -94 -221 -1039 rcurveline
            -19 -88 -21 -18 -140 -18 -16 -75 rcurveline
            return
          </CharString>
          <CharString index="94">
            1205 636 1017 -98 callsubr
            -96 -457 rcurveline
            return
          </CharString>
          <CharString index="95">
            rmoveto
            143 137 61 95 68 hvcurveto
            17 80 rlineto
            132 callsubr
            -291 194 -144 204 vhcurveto
            endchar
          </CharString>
          <CharString index="96">
            -14 -63 rlineto
            5 16 29 5 27 hhcurveto
            55 41 -27 -45 -47 -44 -28 -67 -48 -41 17 18 -41 callgsubr
          </CharString>
          <CharString index="97">
            -438 -3 302 -241 367 hhcurveto
            181 160 45 66 89 hvcurveto
            150 callsubr
          </CharString>
          <CharString index="98">
            1595 539 199 rmoveto
            105 492 600 0 -104 -492 -19 -89 return
          </CharString>
          <CharString index="99">
            hhcurveto
            -27 -28 7 12 -37 hvcurveto
            -31 11 rlineto
            14 -42 -42 10 -50 hhcurveto
            -102 return
          </CharString>
          <CharString index="100">
            1171 1105 hmoveto
            -33 callsubr
            -14 callsubr
            return
          </CharString>
          <CharString index="101">
            169 787 -419 82 callsubr
            -64 callgsubr
            return
          </CharString>
          <CharString index="102">
            16 78 rlineto
            -28 -33 -47 -12 -33 hhcurveto
            -48 -17 33 63 14 hvcurveto
            return
          </CharString>
          <CharString index="103">
            1511 rmoveto
            564 -94 16 76 -546 182 rlineto
            return
          </CharString>
          <CharString index="104">
            1860 rmoveto
            -220 -145 -152 145 return
          </CharString>
          <CharString index="105">
            43 -58 -23 callsubr
            -13 38 -43 58 hhcurveto
            return
          </CharString>
          <CharString index="106">
            -58 58 -80 -82 -67 -65 -82 -76 59 -59 79 hvcurveto
            return
          </CharString>
          <CharString index="107">
            1579 rmoveto
            177 107 120 190 return
          </CharString>
          <CharString index="108">
            1841 rmoveto
            -208 -290 81 0 return
          </CharString>
          <CharString index="109">
            733 471 -18 100 callsubr
            return
          </CharString>
          <CharString index="110">
            -74 -78 -63 -61 -78 -71 55 -55 75 hvcurveto
            return
          </CharString>
          <CharString index="111">
            rlineto
            50 -13 10 -18 -88 callsubr
            return
          </CharString>
          <CharString index="112">
            -219 -46 87 162 callsubr
            return
          </CharString>
          <CharString index="113">
            -160 196 95 callsubr
            return
          </CharString>
          <CharString index="114">
            57 55 71 64 -50 50 -67 hvcurveto
            endchar
          </CharString>
          <CharString index="115">
            49 -51 68 70 7 callsubr
          </CharString>
          <CharString index="116">
            1840 rmoveto
            -234 -8 hlineto
            return
          </CharString>
          <CharString index="117">
            -10 rlineto
            -15 43 41 -10 50 hhcurveto
            return
          </CharString>
          <CharString index="118">
            -31 hvcurveto
            -33 28 rlineto
            37 -46 -46 return
          </CharString>
          <CharString index="119">
            383 281 rlineto
            9 vlineto
            return
          </CharString>
          <CharString index="120">
            264 -281 rlineto
            70 hlineto
            return
          </CharString>
          <CharString index="121">
            56 51 36 50 11 hvcurveto
            49 return
          </CharString>
          <CharString index="122">
            30 139 rlineto
            -528 hlineto
            return
          </CharString>
          <CharString index="123">
            rmoveto
            -145 -172 -47 -28 -121 -16 rrcurveto
            -16 -75 449 0 16 75 -141 22 1 33 112 142 rlinecurve
            274 346 148 -365 48 -119 -13 -36 -144 -22 rlinecurve
            -16 -75 615 0 16 75 -92 24 -34 25 -50 122 rlinecurve
            -205 510 340 402 140 165 47 29 120 16 rlinecurve
            16 75 -448 0 -16 -75 141 -22 0 -33 -113 -142 rlinecurve
            -261 -332 -142 352 -50 123 16 33 143 21 rlinecurve
            15 75 -617 0 -16 -75 rlineto
            97 -23 33 -26 48 -122 200 -496 rcurveline
            endchar
          </CharString>
          <CharString index="124">
            330 hlineto
            15 71 rlineto
            -69 19 -35 44 -80 204 -129 339 rcurveline
            209 61 156 128 210 vvcurveto
            233 -195 135 -353 vhcurveto
            -550 14 callgsubr
            588 0 16 75 rlineto
            -123 16 -13 19 19 89 92 432 rcurveline
            120 hlineto
            24 25 1 1 24 hvcurveto
            336 439 rmoveto
            -211 -151 -131 -252 -8 vhcurveto
            -107 -4 135 637 90 -2 rlineto
            183 -7 102 -101 -173 vvcurveto
            return
          </CharString>
          <CharString index="125">
            16 75 rlineto
            -152 16 -14 27 18 85 76 356 rcurveline
            145 hlineto
            389 312 155 321 246 -177 163 -391 hvcurveto
            -536 hlineto
            -16 -75 rlineto
            134 -15 15 -22 -19 -88 -223 -1044 rcurveline
            -19 -88 -22 -22 -142 -15 -15 -75 rcurveline
            734 1356 rmoveto
            81 -3 rlineto
            186 -8 109 -105 -185 vvcurveto
            -257 -173 -140 -255 -9 vhcurveto
            -99 -3 rlineto
            endchar
          </CharString>
          <CharString index="126">
            rmoveto
            -259 156 -190 266 337 222 276 319 161 -63 136 -120 78 vhcurveto
            -12 44 52 -7 52 hhcurveto
            184 125 75 140 86 -46 73 -67 39 hvcurveto
            -65 hlineto
            6 -16 5 -28 -28 vvcurveto
            -148 -113 -118 -165 vhcurveto
            -77 -63 22 -102 hhcurveto
            -338 -230 -262 -337 hvcurveto
            272 -89 rmoveto
            74 callsubr
            -98 -59 87 175 hvcurveto
            endchar
          </CharString>
          <CharString index="127">
            rmoveto
            -460 hlineto
            -16 -75 126 -17 14 -33 -26 -111 rlinecurve
            -226 -958 -31 -126 -25 -30 -137 -19 rlinecurve
            -16 -75 429 0 16 75 -134 19 -11 28 28 128 rlinecurve
            203 958 181 -1208 141 0 189 352 485 861 -192 -1017 -16 -86 -22 -19 -141 -16 rlinecurve
            -16 -75 -14 callgsubr
            endchar
          </CharString>
          <CharString index="128">
            rmoveto
            -421 -52 -16 -72 74 -15 rlineto
            50 -12 10 -19 -11 -52 -97 -457 rcurveline
            -218 -46 88 -141 200 hhcurveto
            149 132 93 171 77 hvcurveto
            -1 -6 -11 -51 -6 vvcurveto
            -128 -21 52 -67 114 hhcurveto
            98 114 46 63 53 hvcurveto
            17 77 rlineto
            -28 -35 -19 callgsubr
            200 callsubr
            endchar
          </CharString>
          <CharString index="129">
            rmoveto
            143 134 61 95 70 hvcurveto
            16 80 rlineto
            145 callsubr
            -290 189 -144 208 vhcurveto
            140 953 rmoveto
            66 31 -42 -72 -133 -123 -109 -189 -59 hvcurveto
            -45 -15 rlineto
            243 13 108 187 139 hhcurveto
            return
          </CharString>
          <CharString index="130">
            rmoveto
            -432 -92 244 -203 321 hhcurveto
            122 callsubr
            190 848 rlineto
            -2 15 16 -1 16 hhcurveto
            159 106 77 133 85 -48 77 -61 41 hvcurveto
            -71 hlineto
            8 -17 4 -28 -29 vvcurveto
            198 callsubr
            endchar
          </CharString>
          <CharString index="131">
            rmoveto
            382 -1 -286 237 -451 hhcurveto
            -505 -101 callgsubr
            -89 -223 -1046 rcurveline
            -19 -88 -21 -19 -140 -17 -16 -75 rcurveline
            540 hlineto
            581 429 334 491 hvcurveto
            return
          </CharString>
          <CharString index="132">
            166 774 -148 0 -109 -101 rlineto
            64 -31 -78 58 -130 -79 callgsubr
            -25 callgsubr
            -95 -90 hhcurveto
            -81 -48 63 162 hvcurveto
            return
          </CharString>
          <CharString index="133">
            16 -147 -26 -35 -146 -20 rlinecurve
            -16 -75 610 0 -24 callgsubr
            -730 308 rmoveto
            326 614 68 -614 rlineto
            return
          </CharString>
          <CharString index="134">
            -161 -35 55 -75 129 hhcurveto
            104 112 47 65 52 hvcurveto
            16 78 rlineto
            -28 -32 -48 -12 -32 hhcurveto
            -48 -17 33 63 13 hvcurveto
            return
          </CharString>
          <CharString index="135">
            1509 rmoveto
            -195 -120 -138 -220 -9 hvcurveto
            81 hlineto
            110 21 80 64 return
          </CharString>
          <CharString index="136">
            -15 -67 rlineto
            22 31 47 16 51 hhcurveto
            74 38 -31 -49 -59 -60 -60 -101 -60 hvcurveto
            return
          </CharString>
          <CharString index="137">
            -91 -376 rlineto
            68 hlineto
            90 224 77 51 251 12 rrcurveto
            49 2 return
          </CharString>
          <CharString index="138">
            rmoveto
            -373 -1 244 -288 410 hhcurveto
            185 callsubr
            endchar
          </CharString>
          <CharString index="139">
            105 492 600 0 -104 -492 -19 -89 -15 callsubr
            return
          </CharString>
          <CharString index="140">
            -55 hhcurveto
            -11 hlineto
            -56 -51 -37 -49 -11 hvcurveto
            -50 -11 36 -36 56 hhcurveto
            return
          </CharString>
          <CharString index="141">
            1 hvcurveto
            61 -46 48 -62 -65 -53 -52 -67 -60 46 -47 62 vhcurveto
            return
          </CharString>
          <CharString index="142">
            rmoveto
            231 177 151 -177 82 0 -122 339 return
          </CharString>
          <CharString index="143">
            1323 rmoveto
            -121 109 -75 141 177 return
          </CharString>
          <CharString index="144">
            -123 339 -166 0 -265 -339 rlineto
            endchar
          </CharString>
          <CharString index="145">
            rmoveto
            -421 -51 -16 -73 74 -14 -68 callsubr
            return
          </CharString>
          <CharString index="146">
            318 88 280 -88 14 67 -240 157 return
          </CharString>
          <CharString index="147">
            79 -227 186 -51 0 -305 -186 rlineto
            return
          </CharString>
          <CharString index="148">
            rmoveto
            545 hlineto
            29 141 rlineto
            -544 hlineto
            endchar
          </CharString>
          <CharString index="149">
            1526 rmoveto
            -97 -80 -40 -57 -44 hvcurveto
            return
          </CharString>
          <CharString index="150">
            55 52 36 50 10 hvcurveto
            49 11 -36 37 return
          </CharString>
          <CharString index="151">
            rmoveto
            77 61 59 74 -1 hvcurveto
            68 -55 53 return
          </CharString>
          <CharString index="152">
            44 callsubr
            -74 -76 -62 -58 -74 return
          </CharString>
          <CharString index="153">
            -222 -1046 -22 callgsubr
            return
          </CharString>
          <CharString index="154">
            -36 callgsubr
            46 -47 63 vhcurveto
            return
          </CharString>
          <CharString index="155">
            99 callsubr
            -71 70 -90 -105 return
          </CharString>
          <CharString index="156">
            -92 callsubr
            50 -51 67 70 return
          </CharString>
          <CharString index="157">
            hlineto
            -135 -37 107 -84 182 hhcurveto
            return
          </CharString>
          <CharString index="158">
            1518 rmoveto
            -243 -7 hlineto
            return
          </CharString>
          <CharString index="159">
            -39 callgsubr
            -586 hlineto
            return
          </CharString>
          <CharString index="160">
            1 vhcurveto
            -69 55 -53 74 vhcurveto
            endchar
          </CharString>
          <CharString index="161">
            rlinecurve
            16 75 -592 0 -16 -75 return
          </CharString>
          <CharString index="162">
            rmoveto
            -422 -51 -16 -73 74 -14 return
          </CharString>
          <CharString index="163">
            rmoveto
            231 -91 callgsubr
            return
          </CharString>
          <CharString index="164">
            rmoveto
            -74 53 -57 80 91 62 56 201 115 vhcurveto
            65 115 39 -118 rlineto
            -178 58 65 -74 123 hhcurveto
            98 79 45 66 41 hvcurveto
            16 77 rlineto
            -22 -25 -32 -15 -35 hhcurveto
            -54 -44 36 140 -44 hvcurveto
            -81 246 101 161 36 57 28 42 25 30 rlinecurve
            -50 17 47 -35 57 hhcurveto
            74 57 60 74 74 -53 57 -80 -91 -65 -56 -202 -111 hvcurveto
            -71 -125 -122 373 -343 -49 -15 -73 69 -12 56 -11 15 -16 19 -56 rlinecurve
            118 -359 -96 -151 -37 -56 -28 -42 -25 -30 rlinecurve
            49 -17 -47 35 -56 hhcurveto
            -75 -57 -60 -73 hvcurveto
            endchar
          </CharString>
          <CharString index="165">
            126 593 rlineto
            167 37 105 122 100 hhcurveto
            85 37 -71 -112 -24 hvcurveto
            -148 -699 267 0 125 591 rlineto
            168 37 104 123 101 hhcurveto
            84 38 -71 -119 -26 hvcurveto
            -100 -472 rlineto
            -161 -34 55 -75 129 hhcurveto
            103 113 47 65 52 hvcurveto
            -5 callsubr
            214 callsubr
            endchar
          </CharString>
          <CharString index="166">
            rmoveto
            304 248 174 278 163 -79 120 -184 119 hvcurveto
            -90 61 rlineto
            -138 89 -53 75 99 vvcurveto
            131 106 85 151 181 108 -117 -224 11 vhcurveto
            67 hlineto
            52 332 rlineto
            61 -76 -162 54 -186 hhcurveto
            -334 -196 -181 -243 -164 87 -117 181 -117 hvcurveto
            90 -60 rlineto
            139 -91 47 -77 -107 vvcurveto
            -150 -126 -87 -153 -189 -139 115 231 -6 vhcurveto
            -67 hlineto
            -55 -338 rlineto
            -61 85 196 -53 180 hhcurveto
            return
          </CharString>
          <CharString index="167">
            rmoveto
            287 242 241 395 64 hvcurveto
            267 40 -80 144 -146 hhcurveto
            -97 -75 -89 -127 10 hvcurveto
            161 -35 56 -144 -30 -178 rrcurveto
            -198 -34 -116 -132 -152 hhcurveto
            -135 -50 86 157 33 hvcurveto
            10 43 64 266 14 68 rrcurveto
            194 41 -70 80 -157 hhcurveto
            -86 -83 -30 -33 -49 hvcurveto
            -16 -73 rlineto
            7 13 18 4 23 hhcurveto
            69 38 -38 -108 -22 hvcurveto
            -18 -83 -63 -269 -11 -50 rrcurveto
            -219 -46 99 -146 254 hhcurveto
            endchar
          </CharString>
          <CharString index="168">
            rmoveto
            -60 67 133 -44 144 hhcurveto
            258 157 144 176 hvcurveto
            1 123 -53 87 -133 82 rrcurveto
            -78 48 -90 55 -35 44 1 66 rlinecurve
            77 54 51 99 130 72 -97 -139 2 vhcurveto
            67 hlineto
            51 254 rlineto
            44 -66 -109 32 -147 hhcurveto
            -249 -153 -128 -178 -119 63 -89 127 -77 hvcurveto
            78 -48 rlineto
            91 -57 29 -47 -71 vvcurveto
            -85 -1 -63 -53 -103 hhcurveto
            -129 -97 93 173 -5 hvcurveto
            -67 hlineto
            return
          </CharString>
          <CharString index="169">
            rmoveto
            -415 hlineto
            -16 -75 127 -16 15 -40 -24 -106 rlinecurve
            -209 -952 -29 -133 -25 -28 -130 -18 rlinecurve
            -16 -76 428 0 16 76 -141 19 -11 26 26 135 rlinecurve
            182 926 528 -1182 226 0 263 1193 28 129 24 28 130 19 rlinecurve
            16 75 -427 0 -16 -75 rlineto
            140 -20 11 -25 -25 -131 -171 -881 rcurveline
            return
          </CharString>
          <CharString index="170">
            1649 932 -28 rmoveto
            432 346 340 472 378 -288 312 -398 -431 -347 -342 -470 -379 289 -311 397 hvcurveto
            -1 68 rmoveto
            -348 -260 279 343 437 323 306 379 348 259 -279 -342 -438 -322 -306 -379 hvcurveto
            return
          </CharString>
          <CharString index="171">
            rmoveto
            178 142 99 158 27 hvcurveto
            -84 hlineto
            -65 -17 -96 -43 -118 hhcurveto
            -118 -78 44 64 10 hvcurveto
            -83 hlineto
            -158 -42 101 -99 178 hhcurveto
            -607 -769 -105 callsubr
            -107 callsubr
            -106 callsubr
            -100 callsubr
          </CharString>
          <CharString index="172">
            rmoveto
            -138 -708 rlineto
            -218 -43 89 -100 173 hhcurveto
            125 115 58 68 69 hvcurveto
            15 73 rlineto
            -30 -40 -56 -10 -55 hhcurveto
            -109 -50 56 142 33 hvcurveto
            11 46 140 572 14 51 rrcurveto
            endchar
          </CharString>
          <CharString index="173">
            727 1445 rmoveto
            -76 hlineto
            -265 -107 -11 -53 130 22 6 1 3 -3 -1 -6 rlinecurve
            -106 -501 -11 -54 -30 -13 -107 -10 rlinecurve
            -10 -54 444 0 11 54 -100 10 -26 13 12 55 rlinecurve
            return
          </CharString>
          <CharString index="174">
            rmoveto
            166 -129 136 -240 25 vhcurveto
            225 23 203 103 3 211 rrcurveto
            202 2 -182 128 -373 hhcurveto
            -527 -101 callgsubr
            186 callsubr
            endchar
          </CharString>
          <CharString index="175">
            576 652 rmoveto
            250 132 245 224 -1 hvcurveto
            176 1 -92 164 -191 hhcurveto
            -248 -133 -243 -227 1 hvcurveto
            -177 91 -162 190 vhcurveto
            return
          </CharString>
          <CharString index="176">
            rmoveto
            -200 -6 hlineto
            215 -284 rlineto
            74 hlineto
            220 -46 callgsubr
            69 hlineto
            return
          </CharString>
          <CharString index="177">
            rmoveto
            178 143 99 158 26 hvcurveto
            -83 hlineto
            -65 -18 -96 -43 -118 hhcurveto
            -117 -79 44 64 11 hvcurveto
            -84 hlineto
            -158 -41 101 -99 177 hhcurveto
            endchar
          </CharString>
          <CharString index="178">
            -13 -66 rlineto
            1 1 24 1 4 hhcurveto
            73 41 -30 -50 -47 -39 -30 -67 -55 -48 17 24 -32 hvcurveto
            -17 -71 rlineto
            -45 46 68 -32 87 hhcurveto
            return
          </CharString>
          <CharString index="179">
            rmoveto
            210 983 18 89 21 19 140 16 rlinecurve
            16 75 -596 0 -16 -75 132 -16 14 -19 -23 callgsubr
            endchar
          </CharString>
          <CharString index="180">
            1184 rmoveto
            100 1 77 71 29 237 rrcurveto
            -84 hlineto
            -110 -18 -29 -32 -41 hhcurveto
            -29 -24 14 27 return
          </CharString>
          <CharString index="181">
            250 1 91 339 188 hhcurveto
            98 59 -86 -175 -1 hvcurveto
            -250 -1 -91 -340 -187 hhcurveto
            return
          </CharString>
          <CharString index="182">
            rmoveto
            -421 -48 -16 -73 74 -14 rlineto
            50 -13 10 -19 -10 -51 -225 -1054 rcurveline
            9 callgsubr
            return
          </CharString>
          <CharString index="183">
            1218 647 1016 rmoveto
            -75 callsubr
            -84 callsubr
            126 callsubr
            return
          </CharString>
          <CharString index="184">
            1576 rmoveto
            70 57 55 70 64 -50 51 -67 -70 -58 -55 -71 -64 51 -50 67 hvcurveto
            return
          </CharString>
          <CharString index="185">
            340 hmoveto
            56 51 36 50 10 hvcurveto
            49 11 -36 37 33 callsubr
            endchar
          </CharString>
          <CharString index="186">
            223 1046 18 88 22 19 140 17 rlinecurve
            16 75 -597 0 -16 -75 return
          </CharString>
          <CharString index="187">
            -161 196 -88 0 129 -376 179 0 286 376 rlineto
            return
          </CharString>
          <CharString index="188">
            246 1159 49 -2 243 -12 58 -47 -4 -228 rlinecurve
            68 hlineto
            return
          </CharString>
          <CharString index="189">
            -56 -14 -68 69 -15 rlineto
            49 -14 11 -17 -11 -52 -86 -401 rcurveline
            -159 return
          </CharString>
          <CharString index="190">
            1499 786 -28 rmoveto
            122 callsubr
            194 callsubr
            return
          </CharString>
          <CharString index="191">
            rmoveto
            100 85 248 callsubr
            -27 8 14 -36 hvcurveto
            -29 12 rlineto
            18 return
          </CharString>
          <CharString index="192">
            hhcurveto
            26 26 -8 -14 36 hvcurveto
            29 -12 rlineto
            -17 41 40 -12 49 hhcurveto
            return
          </CharString>
          <CharString index="193">
            rmoveto
            237 -121 133 -156 -143 -117 -88 -162 return
          </CharString>
          <CharString index="194">
            -246 -1159 -18 -87 -24 -19 -157 -17 rlinecurve
            -16 -75 return
          </CharString>
          <CharString index="195">
            -244 288 -409 -470 -305 -390 -440 -2 return
          </CharString>
          <CharString index="196">
            0 612 -19 callsubr
            -622 -182 -16 -76 rlineto
            return
          </CharString>
          <CharString index="197">
            1551 rmoveto
            219 145 153 -145 80 0 return
          </CharString>
          <CharString index="198">
            -772 rmoveto
            76 -105 callgsubr
            111 callsubr
          </CharString>
          <CharString index="199">
            9 hvcurveto
            -81 hlineto
            -110 -20 -81 -64 -132 hhcurveto
            -111 return
          </CharString>
          <CharString index="200">
            0 1 57 -38 rlineto
            -88 131 73 -25 94 hhcurveto
            128 return
          </CharString>
          <CharString index="201">
            -85 -60 -117 -24 hvcurveto
            85 hlineto
            45 106 callsubr
            return
          </CharString>
          <CharString index="202">
            -89 0 129 -376 179 0 287 376 rlineto
            return
          </CharString>
          <CharString index="203">
            1497 764 1444 62 callsubr
            return
          </CharString>
          <CharString index="204">
            50 -51 68 70 57 55 71 64 -51 50 -67 hvcurveto
            endchar
          </CharString>
          <CharString index="205">
            rmoveto
            314 104 269 -104 17 79 -227 186 return
          </CharString>
          <CharString index="206">
            rmoveto
            238 6 171 152 205 vvcurveto
            122 return
          </CharString>
          <CharString index="207">
            rmoveto
            116 121 51 75 53 hvcurveto
            16 78 rlineto
            -34 return
          </CharString>
          <CharString index="208">
            51 callsubr
            257 -370 rlineto
            92 hlineto
            return
          </CharString>
          <CharString index="209">
            -120 -190 -6 hvcurveto
            74 hlineto
            96 18 72 56 return
          </CharString>
          <CharString index="210">
            39 callsubr
            -52 0 -306 -157 rlineto
            return
          </CharString>
          <CharString index="211">
            61 -46 48 -62 -65 -53 -52 -67 -60 46 -47 63 return
          </CharString>
          <CharString index="212">
            17 78 rlineto
            -28 -33 -47 -12 -33 hhcurveto
            -47 -18 33 return
          </CharString>
          <CharString index="213">
            10 31 19 44 hhcurveto
            27 27 -7 -12 37 hvcurveto
            31 return
          </CharString>
          <CharString index="214">
            -30 hvcurveto
            -15 -66 rlineto
            -36 38 66 -26 77 hhcurveto
            endchar
          </CharString>
          <CharString index="215">
            -51 -15 -73 66 -12 rlineto
            53 -12 13 -17 4 -48 return
          </CharString>
          <CharString index="216">
            -58 58 -79 -83 -67 -65 -82 -76 59 -59 79 hvcurveto
            return
          </CharString>
          <CharString index="217">
            -59 58 -79 -82 -67 -65 -82 -76 58 -59 80 hvcurveto
            return
          </CharString>
          <CharString index="218">
            -76 -62 -58 -74 hvcurveto
            -69 1 55 -53 74 hhcurveto
            endchar
          </CharString>
          <CharString index="219">
            hhcurveto
            -99 -86 -70 -138 -29 hvcurveto
            84 hlineto
            53 12 return
          </CharString>
          <CharString index="220">
            rmoveto
            545 hlineto
            30 141 rlineto
            -545 hlineto
            endchar
          </CharString>
          <CharString index="221">
            -231 -7 hlineto
            165 -370 rlineto
            86 hlineto
            return
          </CharString>
          <CharString index="222">
            68 70 57 55 71 64 -50 50 -68 hvcurveto
            endchar
          </CharString>
          <CharString index="223">
            -79 -71 -28 -236 rrcurveto
            84 hlineto
            109 18 return
          </CharString>
          <CharString index="224">
            rmoveto
            598 hlineto
            23 109 rlineto
            -598 hlineto
            return
          </CharString>
          <CharString index="225">
            rmoveto
            93 72 64 214 25 hvcurveto
            -78 hlineto
            -99 return
          </CharString>
          <CharString index="226">
            rmoveto
            30 139 -631 -155 -13 -64 rlineto
            return
          </CharString>
          <CharString index="227">
            -154 -723 -56 22 callgsubr
          </CharString>
          <CharString index="228">
            1115 955 -17 129 callsubr
            return
          </CharString>
          <CharString index="229">
            329 224 211 360 80 hvcurveto
            return
          </CharString>
          <CharString index="230">
            120 hhcurveto
            99 68 -54 -72 -10 -1 -9 return
          </CharString>
          <CharString index="231">
            rmoveto
            -70 58 -53 70 74 59 56 69 45 -24 39 -35 21 vhcurveto
            16 38 45 9 49 hhcurveto
            163 66 -113 -193 -28 hvcurveto
            -8 -48 -157 -15 rlineto
            -323 -30 -169 -112 -188 vvcurveto
            -146 120 -96 167 178 126 106 191 48 vhcurveto
            -195 42 147 -102 176 hhcurveto
            151 127 64 90 68 hvcurveto
            17 78 rlineto
            -53 -61 -81 -34 -86 hhcurveto
            -164 -91 122 211 hvcurveto
            11 1 10 10 vvcurveto
            61 4 391 28 136 121 1 152 rlinecurve
            147 -129 86 -188 -126 -118 -50 -92 -93 vhcurveto
            91 -61 -108 51 -154 hhcurveto
            -215 -160 -103 -135 hvcurveto
            1022 142 rmoveto
            74 37 -53 -73 -1 hvcurveto
            -2 -106 -80 -106 -233 -22 -48 -4 rcurveline
            210 26 98 154 129 hhcurveto
            -883 -670 rmoveto
            116 88 79 195 22 vhcurveto
            93 9 -8 -52 rlineto
            -222 -35 -84 -89 -113 hhcurveto
            -80 -56 47 90 hvcurveto
            endchar
          </CharString>
          <CharString index="232">
            rmoveto
            -1028 hlineto
            -813 -1173 -107 -155 -41 -27 -118 -14 rlinecurve
            -15 -75 451 0 16 75 -144 19 -9 32 96 144 rlinecurve
            209 313 438 0 -70 -364 -21 -109 -13 -18 -150 -17 rlinecurve
            -15 -75 1102 0 103 414 rlineto
            -65 hlineto
            -105 -253 -90 -53 -259 -11 rrcurveto
            -224 -10 115 605 207 -2 91 -2 19 -36 -6 -165 rlinecurve
            65 hlineto
            102 496 rlineto
            -65 hlineto
            -63 -162 -33 -33 -90 -2 rrcurveto
            -209 -2 109 573 208 -9 243 -12 36 -46 12 -222 rlinecurve
            66 hlineto
            -925 283 rmoveto
            73 hlineto
            -129 -670 rlineto
            -392 hlineto
            endchar
          </CharString>
          <CharString index="233">
            125 591 rlineto
            169 38 112 122 105 hhcurveto
            89 40 -69 -123 -27 hvcurveto
            -99 -470 rlineto
            -161 -33 54 -75 129 hhcurveto
            103 113 47 65 52 hvcurveto
            -5 callsubr
            95 445 rlineto
            220 47 -85 130 -198 hhcurveto
            -159 -127 -97 -181 -78 hvcurveto
            return
          </CharString>
          <CharString index="234">
            1390 540 199 rmoveto
            106 499 130 -1 263 -697 358 0 16 71 -65 23 -39 44 -82 214 rlinecurve
            -208 547 266 242 177 158 64 48 124 22 rlinecurve
            16 75 -473 0 -16 -75 138 -15 7 -44 -124 -122 rlinecurve
            -405 -399 -127 -1 97 457 18 88 22 20 129 16 rlinecurve
            16 75 -586 -32 callgsubr
            46 callsubr
            586 0 15 75 -121 16 -14 19 19 89 rlinecurve
            return
          </CharString>
          <CharString index="235">
            -65 vhcurveto
            53 241 -411 -51 -15 -73 73 -14 -68 callsubr
            -229 -1081 -13 -60 -21 -16 -125 -22 rlinecurve
            -15 -76 584 0 16 76 rlineto
            -153 24 -18 13 12 63 74 353 rcurveline
            -49 36 71 -42 108 hhcurveto
            311 215 315 362 hvcurveto
            -275 1 rmoveto
            -243 -101 -324 -205 -75 -51 37 43 -12 vhcurveto
            94 440 rlineto
            176 40 91 96 90 hhcurveto
            82 48 -63 -162 -1 hvcurveto
            endchar
          </CharString>
          <CharString index="236">
            rmoveto
            97 74 46 64 41 hvcurveto
            17 78 rlineto
            -22 -23 -30 -14 -31 hhcurveto
            -53 -41 38 147 -50 hvcurveto
            -117 340 124 98 162 127 72 36 96 20 rlinecurve
            13 63 -435 0 -13 -63 125 -14 13 -31 -117 -101 rlinecurve
            -328 -281 208 978 -66 callsubr
            89 417 99 78 77 -237 rlineto
            -189 60 69 -86 120 hhcurveto
            return
          </CharString>
          <CharString index="237">
            1199 rmoveto
            77 62 61 77 72 -54 55 -74 callsubr
            429 hmoveto
            77 62 61 77 72 -54 55 -74 callsubr
            return
          </CharString>
          <CharString index="238">
            541 1584 rmoveto
            64 53 52 66 1 hvcurveto
            60 -46 48 -62 -65 -53 -52 -66 vhcurveto
            -61 -1 47 -47 62 hhcurveto
            332 hmoveto
            64 53 52 66 hvcurveto
            60 1 -46 48 -62 hhcurveto
            -65 -53 -52 -66 hvcurveto
            -61 -1 47 -47 62 hhcurveto
            -334 -1385 -91 callsubr
          </CharString>
          <CharString index="239">
            -63 -66 -89 -26 -74 hhcurveto
            -152 -105 114 209 264 128 215 183 34 29 -7 -12 25 hvcurveto
            -57 -14 -41 -51 -61 vvcurveto
            -73 56 -56 74 78 61 59 78 132 -110 104 -190 -1 vhcurveto
            -310 -1 -237 -264 -347 vvcurveto
            return
          </CharString>
          <CharString index="240">
            114 113 101 hhcurveto
            89 39 -69 -123 -26 hvcurveto
            -99 -470 rlineto
            -161 -33 54 -75 128 hhcurveto
            104 112 47 65 52 hvcurveto
            17 78 rlineto
            -28 -33 -47 -12 -34 hhcurveto
            -47 -17 33 63 13 hvcurveto
            96 445 rlineto
            220 47 119 callgsubr
            return
          </CharString>
          <CharString index="241">
            rmoveto
            -407 -51 -15 -73 73 -14 -68 callsubr
            -84 callsubr
            132 655 rlineto
            97 65 112 59 122 hhcurveto
            41 35 -6 -9 23 hvcurveto
            12 20 12 38 38 vvcurveto
            77 -36 50 -70 -97 -74 -80 -219 -136 vhcurveto
            return
          </CharString>
          <CharString index="242">
            1588 rmoveto
            84 1 66 -88 callgsubr
            -15 -23 -25 -34 hhcurveto
            -24 -20 11 21 -25 hvcurveto
            -26 21 rlineto
            31 -39 -39 18 -49 hhcurveto
            -83 -67 -59 -194 -22 hvcurveto
            74 hlineto
            88 14 24 25 33 hhcurveto
            24 20 -11 -21 26 hvcurveto
            return
          </CharString>
          <CharString index="243">
            -175 -652 -62 callgsubr
            -1064 -721 6 callgsubr
            913 -739 rmoveto
            250 132 245 225 -1 hvcurveto
            176 -91 163 -191 -100 callgsubr
            vhcurveto
            -99 callgsubr
            return
          </CharString>
          <CharString index="244">
            rmoveto
            337 222 278 321 259 -156 189 -266 -337 -222 -277 -321 -259 155 -190 267 hvcurveto
            7 98 rmoveto
            -98 -59 87 175 hvcurveto
            74 callsubr
            return
          </CharString>
          <CharString index="245">
            rmoveto
            101 84 248 callsubr
            -26 8 14 -36 hvcurveto
            -29 12 rlineto
            18 -41 -41 11 -49 112 callsubr
            31 22 43 hhcurveto
            26 26 -8 -14 36 hvcurveto
            30 -12 rlineto
            -17 40 41 -12 48 hhcurveto
            endchar
          </CharString>
          <CharString index="246">
            rmoveto
            176 109 68 88 75 hvcurveto
            17 77 rlineto
            -66 -77 -102 -35 -116 hhcurveto
            -109 -72 48 78 81 40 51 147 54 hvcurveto
            44 17 rlineto
            185 65 116 81 177 vvcurveto
            166 return
          </CharString>
          <CharString index="247">
            1880 rmoveto
            -84 -70 -34 -48 -38 hvcurveto
            -13 -57 rlineto
            19 28 41 14 46 hhcurveto
            66 34 -26 -43 -50 -53 -50 -90 -51 hvcurveto
            82 hlineto
            142 50 81 60 82 vvcurveto
            77 -69 57 -103 vhcurveto
            return
          </CharString>
          <CharString index="248">
            63 14 hvcurveto
            268 1262 -421 -48 -16 -73 74 -14 rlineto
            51 -13 9 -19 -11 -51 -71 -337 rcurveline
            48 -36 -71 40 -107 hhcurveto
            -312 -215 -315 -362 hvcurveto
            return
          </CharString>
          <CharString index="249">
            18 86 -260 0 38 170 -271 -22 -32 -148 -155 0 -18 -86 155 0 -258 -1214 267 0 128 601 rlineto
            168 38 return
          </CharString>
          <CharString index="250">
            72 rmoveto
            -55 -38 47 130 -2 hvcurveto
            233 -1 76 256 117 hhcurveto
            55 39 -49 -130 1 hvcurveto
            -235 1 -76 -252 -117 hhcurveto
            return
          </CharString>
          <CharString index="251">
            hvcurveto
            171 -15 rmoveto
            75 -2 50 57 61 hhcurveto
            51 32 -31 -52 2 hvcurveto
            -75 3 -51 -58 -61 hhcurveto
            -51 -32 31 53 -2 hvcurveto
            endchar
          </CharString>
          <CharString index="252">
            -62 -65 -90 -27 -76 hhcurveto
            -141 -102 77 callgsubr
            133 -119 85 -182 -295 -255 -260 -353 return
          </CharString>
          <CharString index="253">
            19 90 23 17 134 17 54 callsubr
            129 -17 17 -17 -19 -90 rlinecurve
            -222 -1046 -19 -90 -22 -16 return
          </CharString>
          <CharString index="254">
            1576 rmoveto
            69 58 55 70 64 -50 51 -68 -70 -56 callsubr
            return
          </CharString>
          <CharString index="255">
            0 245 1149 19 92 21 15 136 17 54 callsubr
            127 -16 19 -17 -19 -91 rlinecurve
            endchar
          </CharString>
          <CharString index="256">
            266 -5 23 110 -268 -13 51 240 -278 -39 -42 -200 -151 -29 -14 -69 143 0 return
          </CharString>
          <CharString index="257">
            73 341 -69 -1 rlineto
            -228 -92 -144 -118 -170 hhcurveto
            -227 -151 208 301 hvcurveto
            endchar
          </CharString>
          <CharString index="258">
            rmoveto
            209 983 19 89 21 19 140 16 rlinecurve
            16 75 -596 0 -17 -75 133 -16 14 -19 return
          </CharString>
          <CharString index="259">
            hlineto
            -16 -75 130 -17 16 -17 -19 -90 rlinecurve
            -222 -1046 -19 -90 -21 -16 -140 -18 rlinecurve
            -16 -75 return
          </CharString>
          <CharString index="260">
            1164 1196 655 rmoveto
            237 -121 133 -156 -139 193 callsubr
            return
          </CharString>
          <CharString index="261">
            rmoveto
            77 61 59 74 hvcurveto
            68 -1 -55 53 -73 hhcurveto
            -77 -62 -58 -74 1 hvcurveto
            -69 55 -53 74 vhcurveto
            endchar
          </CharString>
          <CharString index="262">
            -533 -17 -81 rlineto
            362 hlineto
            29 131 rmoveto
            -236 hlineto
            303 314 rlineto
            endchar
          </CharString>
          <CharString index="263">
            470 1245 rmoveto
            -222 -1046 rlineto
            -19 -92 -25 -16 -136 -16 -16 -75 rcurveline
            return
          </CharString>
          <CharString index="264">
            172 -17 rmoveto
            89 53 69 61 51 30 -37 -63 -89 -53 -69 -61 -51 -30 37 63 vhcurveto
            return
          </CharString>
          <CharString index="265">
            1880 rmoveto
            -84 -71 -34 -48 -38 hvcurveto
            -12 -57 rlineto
            19 28 41 14 45 hhcurveto
            67 return
          </CharString>
          <CharString index="266">
            112 94 126 121 -110 75 -141 -176 -112 -94 -126 vhcurveto
            return
          </CharString>
          <CharString index="267">
            -42 -43 21 -55 hhcurveto
            -91 -1 -73 -85 callgsubr
            17 26 54 callgsubr
          </CharString>
          <CharString index="268">
            -1 -7 hvcurveto
            74 hlineto
            10 26 7 33 32 vvcurveto
            125 -1 -103 94 -146 hhcurveto
            return
          </CharString>
          <CharString index="269">
            -141 200 hhcurveto
            150 132 94 171 76 230 callsubr
            return
          </CharString>
          <CharString index="270">
            49 11 hvcurveto
            50 10 -35 36 -56 hhcurveto
            -11 hlineto
            -56 -51 -36 -50 -11 hvcurveto
            -49 return
          </CharString>
          <CharString index="271">
            8 hvcurveto
            -81 hlineto
            -110 -20 -80 -64 -133 hhcurveto
            -110 -75 63 82 10 return
          </CharString>
          <CharString index="272">
            -27 -81 -19 rrcurveto
            56 -48 133 29 83 47 19 90 rlinecurve
            88 19 -79 50 return
          </CharString>
          <CharString index="273">
            -57 -30 -56 hhcurveto
            -79 1 -57 24 -108 65 rrcurveto
            -73 44 565 611 return
          </CharString>
          <CharString index="274">
            -63 -91 -106 -3 vhcurveto
            81 -14 54 -43 -73 vvcurveto
            -85 -82 -61 -114 -9 vhcurveto
            return
          </CharString>
          <CharString index="275">
            1588 rmoveto
            85 1 65 -88 callgsubr
            -14 -24 -25 -33 hhcurveto
            return
          </CharString>
          <CharString index="276">
            1526 rmoveto
            -96 -81 -40 -57 -43 hvcurveto
            29 callsubr
            93 hlineto
            return
          </CharString>
          <CharString index="277">
            1519 rmoveto
            -148 -377 97 0 292 369 rlineto
            8 vlineto
            return
          </CharString>
          <CharString index="278">
            1286 15 71 -1013 0 -92 -376 rlineto
            68 hlineto
            96 219 return
          </CharString>
          <CharString index="279">
            18 rlinecurve
            16 75 -604 0 -16 -75 99 -16 28 -27 53 -151 rlinecurve
            return
          </CharString>
          <CharString index="280">
            16 74 -739 0 -88 -329 rlineto
            67 hlineto
            104 42 26 17 90 hhcurveto
            return
          </CharString>
          <CharString index="281">
            -36 -109 -148 rlinecurve
            -317 -431 -143 442 -44 136 return
          </CharString>
          <CharString index="282">
            hvcurveto
            -74 hlineto
            -10 -26 -7 -33 -31 vvcurveto
            -127 1 102 -93 147 hhcurveto
            return
          </CharString>
          <CharString index="283">
            rmoveto
            470 307 391 440 163 -47 147 -87 114 hvcurveto
            166 162 -64 65 -162 -160 rlineto
            107 -111 -156 63 -192 hhcurveto
            -471 -304 -390 -440 -2 hvcurveto
            -164 46 -147 87 -114 vhcurveto
            -165 -163 63 -65 163 161 rlineto
            -107 111 156 -63 192 hhcurveto
            -344 571 rmoveto
            398 191 419 296 133 103 -72 -144 52 vhcurveto
            -764 -751 rlineto
            -7 45 -4 50 55 vvcurveto
            324 -467 rmoveto
            -133 -102 71 145 -52 hvcurveto
            764 751 rlineto
            7 -45 4 -50 -55 vvcurveto
            -412 -201 -405 -287 vhcurveto
            endchar
          </CharString>
          <CharString index="284">
            rmoveto
            -238 -19 121 -168 219 hhcurveto
            156 112 98 170 59 hvcurveto
            -170 3 121 -98 166 hhcurveto
            293 191 279 334 20 hvcurveto
            273 16 -113 161 -149 hhcurveto
            -101 -72 -92 -125 12 hvcurveto
            167 -35 102 -133 -10 -191 rrcurveto
            -182 -9 -109 -150 -136 hhcurveto
            -136 -78 102 287 66 hvcurveto
            49 221 -241 0 -51 -241 rlineto
            -274 -58 -64 -95 -107 hhcurveto
            -100 -51 84 181 13 hvcurveto
            14 257 108 220 165 105 rrcurveto
            -33 52 -317 -81 -199 -262 -20 -289 rlinecurve
            endchar
          </CharString>
          <CharString index="285">
            rmoveto
            151 117 89 173 108 hvcurveto
            -185 16 63 -71 124 hhcurveto
            75 79 45 45 39 hvcurveto
            15 73 rlineto
            -10 -14 -30 -9 -25 hhcurveto
            -80 -36 24 226 -34 hvcurveto
            -14 86 315 539 rlineto
            -269 hlineto
            -19 -72 -45 -125 -41 -111 rrcurveto
            227 -27 -90 102 -181 hhcurveto
            -263 -214 -258 -361 -21 hvcurveto
            -257 -22 106 -170 217 hhcurveto
            -22 467 rmoveto
            303 17 101 168 123 hhcurveto
            102 20 -104 -356 24 hvcurveto
            4 -68 rlineto
            -184 -87 -85 -77 -90 hhcurveto
            -98 -48 99 219 17 hvcurveto
            endchar
          </CharString>
          <CharString index="286">
            rmoveto
            223 175 79 126 95 hvcurveto
            15 80 rlineto
            -73 -74 -149 -56 -146 hhcurveto
            -144 -77 57 92 2 hvcurveto
            118 1 110 53 221 hhcurveto
            58 hlineto
            4 176 rlineto
            -70 hlineto
            -199 -58 57 84 3 hvcurveto
            95 3 80 65 165 hhcurveto
            80 63 -14 -22 45 hvcurveto
            -43 -19 -24 -46 -43 vvcurveto
            -62 48 -53 75 69 53 53 74 118 -97 108 -285 -317 -164 -132 -173 -4 vhcurveto
            -4 -112 73 -88 151 -27 -197 -22 -127 -90 -4 -150 rrcurveto
            -149 -5 133 -104 243 hhcurveto
            endchar
          </CharString>
          <CharString index="287">
            702 1242 rmoveto
            2 -115 -160 -26 -114 -10 -12 -60 rcurveline
            2 13 17 2 23 hhcurveto
            111 63 -59 -80 hvcurveto
            -109 2 -82 -62 -91 hhcurveto
            -40 -33 9 14 -25 hvcurveto
            23 13 14 25 29 vvcurveto
            43 -32 35 -46 -46 -35 -35 -46 vhcurveto
            -99 1 121 -61 123 hhcurveto
            165 163 90 165 hvcurveto
            -2 93 -65 72 -109 28 113 14 117 61 -1 111 rrcurveto
            116 -115 58 -117 -130 -115 -72 -136 -45 vhcurveto
            44 -18 rlineto
            74 39 57 37 73 hhcurveto
            84 46 -49 -54 1 hvcurveto
            return
          </CharString>
          <CharString index="288">
            rmoveto
            335 220 279 320 104 -26 92 -47 74 hvcurveto
            115 114 -61 61 -109 -108 rlineto
            69 -71 -99 40 -122 hhcurveto
            -335 -219 -279 -319 -105 26 -94 48 -75 hvcurveto
            -109 -108 61 -61 104 103 rlineto
            -67 70 98 -40 121 hhcurveto
            129 950 rmoveto
            77 53 -53 -107 20 hvcurveto
            -432 -427 rlineto
            250 93 337 189 vhcurveto
            -123 -854 rmoveto
            -76 -53 51 104 -21 hvcurveto
            432 426 rlineto
            -250 -3 -92 -331 -187 hhcurveto
            endchar
          </CharString>
          <CharString index="289">
            rmoveto
            -14 -77 -143 -26 -14 -69 142 0 -155 -919 -41 -245 -58 -82 -85 -15 rlinecurve
            17 21 10 26 29 vvcurveto
            68 -52 52 -63 -66 -54 -52 -70 -97 78 -74 129 224 181 178 543 94 vhcurveto
            112 642 236 -5 24 109 -247 -9 25 145 rlineto
            215 36 64 79 92 hhcurveto
            1 hlineto
            -23 -22 -15 -32 -35 vvcurveto
            -68 53 -52 65 69 56 54 70 101 -94 79 -158 -219 -151 -161 -301 -56 vhcurveto
            endchar
          </CharString>
          <CharString index="290">
            276 hlineto
            123 592 rlineto
            196 42 99 93 109 hhcurveto
            88 61 -66 -168 -35 hvcurveto
            -29 -141 -159 -731 -52 -235 rrcurveto
            277 hlineto
            9 42 215 1042 10 49 rrcurveto
            240 49 -109 112 -191 hhcurveto
            -173 -120 -109 -152 -64 hvcurveto
            186 23 -72 66 -127 hhcurveto
            -81 -76 -26 -35 -57 hvcurveto
            -15 -72 rlineto
            5 14 19 4 25 hhcurveto
            65 43 -37 -120 -22 hvcurveto
            -24 -130 -103 -449 -38 -156 rrcurveto
            endchar
          </CharString>
          <CharString index="291">
            rmoveto
            -86 65 -66 101 174 129 112 325 229 vhcurveto
            557 791 88 126 37 26 126 18 rlinecurve
            16 75 -450 0 -16 -75 161 -19 -3 -21 -84 -126 rlinecurve
            -415 -628 -159 640 -30 121 2 14 172 19 rlinecurve
            16 75 -635 0 -16 -75 119 -18 25 -20 32 -114 rlinecurve
            263 -923 -74 -101 -68 -69 -75 -35 rlinecurve
            4 12 3 13 14 vvcurveto
            82 -64 62 -80 -84 -66 -67 -82 vhcurveto
            endchar
          </CharString>
          <CharString index="292">
            470 307 390 441 250 -111 209 -191 112 hvcurveto
            -6 37 41 -4 44 hhcurveto
            180 148 75 148 88 -49 79 -68 43 hvcurveto
            -71 hlineto
            8 -17 4 -28 -29 vvcurveto
            -152 -103 -132 -179 vhcurveto
            -116 -80 25 -147 hhcurveto
            -470 -305 -390 -441 -2 hvcurveto
            309 -90 rmoveto
            398 191 419 296 86 callgsubr
            -196 -128 155 312 vhcurveto
            return
          </CharString>
          <CharString index="293">
            -90 -223 -1045 rcurveline
            -19 -88 -21 -19 -140 -17 -15 -75 rcurveline
            555 hlineto
            471 298 167 283 hvcurveto
            -238 657 rmoveto
            -177 -125 -127 -215 -1 vhcurveto
            -134 hlineto
            118 555 91 -3 rlineto
            173 -6 92 -85 -156 vvcurveto
            -76 -663 rmoveto
            -207 -145 -138 -313 -9 vhcurveto
            -92 -3 134 628 133 -2 rlineto
            180 -2 103 -103 -164 vvcurveto
            return
          </CharString>
          <CharString index="294">
            rmoveto
            82 74 34 47 38 hvcurveto
            15 74 rlineto
            -17 -20 -29 -11 -30 hhcurveto
            -62 -44 55 90 65 26 71 42 54 hvcurveto
            312 23 203 267 307 vvcurveto
            259 -156 189 -266 -338 -221 -277 -321 -242 135 -181 234 -23 vhcurveto
            -126 -81 -73 -102 -103 vvcurveto
            -102 82 -75 122 vhcurveto
            55 558 rmoveto
            -98 -59 87 175 hvcurveto
            74 callsubr
            endchar
          </CharString>
          <CharString index="295">
            rmoveto
            92 85 56 59 40 hvcurveto
            16 79 rlineto
            -24 -35 -29 -11 -31 hhcurveto
            -48 -39 27 76 -39 hvcurveto
            -195 373 94 96 59 61 41 45 34 32 rlinecurve
            -60 14 50 -43 66 hhcurveto
            75 63 61 78 hvcurveto
            72 -1 -51 65 -89 hhcurveto
            -96 -67 -69 -159 -144 hvcurveto
            -256 -292 110 511 34 callgsubr
            105 490 171 -321 rlineto
            -133 61 56 -53 106 hhcurveto
            endchar
          </CharString>
          <CharString index="296">
            65 -12 54 -13 15 -17 4 -50 rlinecurve
            73 -885 -118 -111 -193 -150 -139 -96 rlinecurve
            -19 279 vlineto
            95 117 88 108 84 102 61 72 62 75 55 70 301 382 142 265 -1 143 rrcurveto
            91 -63 61 -86 -83 -64 -60 -80 vhcurveto
            -77 1 62 -61 77 hhcurveto
            7 1 6 0 6 1 -50 -170 -123 -197 -181 -232 rrcurveto
            return
          </CharString>
          <CharString index="297">
            61 -807 rcurveline
            178 hlineto
            150 200 123 214 65 170 34 -584 rcurveline
            174 hlineto
            277 296 263 392 187 vvcurveto
            92 -62 61 -85 -84 -64 -59 -81 -76 61 -61 78 vhcurveto
            4 3 0 4 hhcurveto
            -56 -188 -125 -195 -153 -180 rrcurveto
            -46 831 -246 -40 7 -127 -10 -203 -128 -235 -121 -202 rlinecurve
            return
          </CharString>
          <CharString index="298">
            61 87 62 24 65 52 56 hvcurveto
            464 7 301 388 436 vvcurveto
            373 -244 288 -409 -471 -304 -390 -440 -2 vhcurveto
            -1 -351 215 -275 365 -33 rrcurveto
            -135 -83 -81 -101 -103 vvcurveto
            -102 87 -72 122 vhcurveto
            61 562 rmoveto
            -195 -129 155 312 398 191 419 296 86 callgsubr
            hvcurveto
            endchar
          </CharString>
          <CharString index="299">
            593 hlineto
            15 75 -124 16 -18 18 19 90 rlinecurve
            8 37 785 800 -178 -837 117 callgsubr
            -127 16 -19 17 19 91 rlinecurve
            222 1046 19 92 25 16 135 16 54 callsubr
            128 -16 15 -16 -19 -92 rlinecurve
            -9 -43 -785 -799 179 842 146 callsubr
            -139 -18 rlinecurve
            endchar
          </CharString>
          <CharString index="300">
            -116 -84 -156 -65 vhcurveto
            159 707 -421 80 callgsubr
            148 0 108 101 rlineto
            -65 31 78 -58 130 hhcurveto
            312 215 315 362 hvcurveto
            -276 1 rmoveto
            -243 -101 -324 -205 -74 -51 37 43 -13 vhcurveto
            95 440 rlineto
            176 40 90 96 91 hhcurveto
            81 48 -63 -162 -1 hvcurveto
            return
          </CharString>
          <CharString index="301">
            145 651 29 127 23 27 130 21 rlinecurve
            16 75 -426 0 -15 -75 rlineto
            139 -22 11 -26 -25 -127 -130 -636 -54 callgsubr
            -140 141 332 71 hvcurveto
            51 callgsubr
            rlineto
            116 -20 16 -20 -21 -94 -133 -628 rcurveline
            -432 -92 245 -203 321 hhcurveto
            return
          </CharString>
          <CharString index="302">
            233 rlinecurve
            380 5 193 243 293 hhcurveto
            241 144 -165 -280 -5 hvcurveto
            -4 -311 -155 -245 -271 -74 rrcurveto
            -62 -290 619 0 118 351 rlineto
            -61 hlineto
            -108 -156 -103 -34 -344 -3 14 69 rcurveline
            423 78 237 286 5 308 return
          </CharString>
          <CharString index="303">
            151 -1171 211 0 644 1155 96 173 32 28 118 16 rlinecurve
            16 75 -436 0 -16 -75 141 -21 15 -31 -86 -162 rlinecurve
            -483 -910 -101 922 -16 147 25 35 147 20 rlinecurve
            16 75 -611 0 -15 -75 103 -15 28 -27 21 -159 rlinecurve
            return
          </CharString>
          <CharString index="304">
            34 160 -395 0 194 118 rlineto
            213 133 72 70 119 vvcurveto
            122 -104 70 -128 -149 -99 -84 -126 -47 vhcurveto
            43 -19 rlineto
            75 39 57 39 71 hhcurveto
            82 48 -48 -67 1 hvcurveto
            2 -86 -54 -64 -161 -127 rrcurveto
            -210 -166 -25 -119 rlineto
            endchar
          </CharString>
          <CharString index="305">
            -155 -109 -128 -208 vhcurveto
            -97 hlineto
            -16 -75 rlineto
            139 -22 12 -26 -26 -121 -132 -642 -54 callgsubr
            -139 141 332 71 hvcurveto
            136 636 20 94 24 19 142 21 rlinecurve
            16 75 -590 0 -16 -75 119 -20 16 -20 -20 -94 rlinecurve
            return
          </CharString>
          <CharString index="306">
            rmoveto
            340 209 280 317 259 -163 191 -266 -340 -208 -280 -316 -259 162 -192 266 hvcurveto
            1 98 rmoveto
            -101 -55 88 176 249 98 338 177 100 56 -87 -177 hvcurveto
            -248 -1 -97 -339 -177 hhcurveto
            endchar
          </CharString>
          <CharString index="307">
            156 730 rlineto
            -2 12 12 -1 14 hhcurveto
            125 96 68 124 83 -46 72 -68 39 hvcurveto
            -66 hlineto
            7 -16 4 -28 -29 vvcurveto
            -149 -98 -105 -272 -35 vhcurveto
            -125 -17 -15 253 callsubr
            -158 -36 -96 -109 -113 hhcurveto
            -93 -41 68 125 27 hvcurveto
            return
          </CharString>
          <CharString index="308">
            1518 rmoveto
            -122 -386 110 0 264 376 rlineto
            10 vlineto
            -544 -339 rmoveto
            71 56 56 70 64 -50 50 -67 -70 -57 -55 -70 -65 50 -50 67 hvcurveto
            623 hmoveto
            70 56 56 70 64 -49 50 -68 -70 -57 -55 -70 -65 50 -50 68 hvcurveto
            endchar
          </CharString>
          <CharString index="309">
            -10 -51 -80 -376 rcurveline
            -283 -60 137 40 callgsubr
            -71 -66 -10 -12 -40 hvcurveto
            -58 -275 rmoveto
            39 187 rlineto
            9 31 43 7 42 hhcurveto
            130 67 -72 -131 -156 -90 -120 -126 -124 -50 98 178 38 hvcurveto
            endchar
          </CharString>
          <CharString index="310">
            rmoveto
            -300 hlineto
            -12 -54 73 -9 7 -20 -15 -60 rlinecurve
            -114 8 callgsubr
            100 -618 101 0 131 260 222 366 -94 -508 17 callgsubr
            9 44 12 12 79 9 rlinecurve
            12 54 -312 0 -282 -510 rlineto
            return
          </CharString>
          <CharString index="311">
            -109 -264 -80 -44 -269 -10 rrcurveto
            -222 -9 129 608 216 -2 91 -1 19 -38 -6 -166 rlinecurve
            65 hlineto
            104 495 rlineto
            -63 hlineto
            -66 -164 -34 -33 -91 -2 rrcurveto
            -217 -2 122 575 212 -8 231 -10 return
          </CharString>
          <CharString index="312">
            -276 -36 -123 -583 rlineto
            -157 -36 -104 -119 -112 hhcurveto
            -86 -30 69 117 25 hvcurveto
            150 709 -276 -34 -123 -588 rlineto
            -155 -36 -104 -118 -111 hhcurveto
            -86 -29 70 116 24 hvcurveto
            148 return
          </CharString>
          <CharString index="313">
            19 -18 -20 -90 rlinecurve
            -244 -1149 -518 0 245 1151 19 90 19 17 134 15 rlinecurve
            15 75 -582 0 -16 -75 123 -14 17 -18 -19 -90 rlinecurve
            -245 -1151 -519 148 callsubr
          </CharString>
          <CharString index="314">
            104 488 195 -1 88 -2 19 -36 -6 -167 rlinecurve
            63 hlineto
            105 495 rlineto
            -64 hlineto
            -65 -164 -33 -33 -88 -2 rrcurveto
            -196 -2 124 583 188 -7 227 -10 55 -47 7 -225 rlinecurve
            69 hlineto
            endchar
          </CharString>
          <CharString index="315">
            1372 1379 450 rmoveto
            166 -129 136 -240 25 vhcurveto
            225 23 203 103 3 211 rrcurveto
            202 2 -182 128 -373 hhcurveto
            -527 -101 callgsubr
            186 callsubr
            return
          </CharString>
          <CharString index="316">
            -483 rmoveto
            82 76 31 43 41 hvcurveto
            15 74 rlineto
            -17 -27 -33 -10 -37 hhcurveto
            -61 -40 29 66 78 53 85 147 88 hvcurveto
            87 51 -82 0 -105 -52 rlineto
            -226 -120 -80 -88 -103 vvcurveto
            -93 78 -62 112 vhcurveto
            endchar
          </CharString>
          <CharString index="317">
            1 1 57 -38 rlineto
            -88 130 74 -25 93 hhcurveto
            129 130 80 197 96 hvcurveto
            -51 43 rlineto
            -83 -52 -58 -30 -55 hhcurveto
            -79 1 -58 24 -107 65 rrcurveto
            -74 44 565 611 173 callsubr
            326 hlineto
            return
          </CharString>
          <CharString index="318">
            0 128 1432 rmoveto
            58 56 43 58 12 hvcurveto
            58 13 -38 43 -58 hhcurveto
            -11 hlineto
            -58 -56 -43 -58 -12 hvcurveto
            -58 -12 36 -43 59 hhcurveto
            357 hmoveto
            58 56 43 58 12 hvcurveto
            58 12 95 callgsubr
            59 hhcurveto
            return
          </CharString>
          <CharString index="319">
            rmoveto
            181 111 124 198 6 hvcurveto
            -75 hlineto
            -99 -18 -74 -58 -124 hhcurveto
            -102 -70 57 74 -1 hvcurveto
            9 2 10 1 7 vhcurveto
            -75 hlineto
            -11 -27 -7 -34 -32 vvcurveto
            -131 1 105 -98 150 hhcurveto
            endchar
          </CharString>
          <CharString index="320">
            1373 -4 callgsubr
            -604 0 -16 -75 rlineto
            129 -17 17 -17 -19 -90 -222 -1046 rcurveline
            -19 -90 -21 -16 -140 -18 -16 -75 rcurveline
            606 hlineto
            424 291 194 301 hvcurveto
            return
          </CharString>
          <CharString index="321">
            96 448 rlineto
            220 48 -88 127 -193 hhcurveto
            -151 -126 -104 -165 -65 hvcurveto
            156 20 -79 113 -183 hhcurveto
            -153 -122 -93 -185 -74 hvcurveto
            58 269 -75 callsubr
            return
          </CharString>
          <CharString index="322">
            65 -807 rcurveline
            178 hlineto
            289 307 262 381 188 vvcurveto
            92 -63 60 -85 -83 -64 -59 -81 -76 62 -61 77 vhcurveto
            5 4 0 5 hhcurveto
            -57 -184 -132 -193 -156 -186 rrcurveto
            return
          </CharString>
          <CharString index="323">
            -271 168 -143 188 -19 vhcurveto
            -118 -128 -14 -66 rlineto
            1 2 24 1 3 hhcurveto
            74 41 -30 -50 -47 -39 -30 -68 -54 -48 17 24 -33 hvcurveto
            -16 -71 rlineto
            -45 45 69 -32 86 hhcurveto
            endchar
          </CharString>
          <CharString index="324">
            rrcurveto
            210 4 143 85 146 hhcurveto
            42 37 -6 -12 32 hvcurveto
            -40 -17 -28 -38 -53 vvcurveto
            -65 47 -56 74 70 55 54 70 125 -130 101 -217 -260 -243 -153 -298 -6 vhcurveto
            return
          </CharString>
          <CharString index="325">
            1184 rmoveto
            100 1 78 71 29 237 rrcurveto
            -85 hlineto
            -110 -18 67 callgsubr
            -78 -71 -28 -236 rrcurveto
            84 hlineto
            109 18 28 32 -43 callgsubr
            46 47 -24 57 hhcurveto
            endchar
          </CharString>
          <CharString index="326">
            -89 -376 rlineto
            67 hlineto
            99 232 66 42 216 12 rrcurveto
            76 3 -246 -1159 -18 -86 -22 -19 -157 -18 rlinecurve
            -16 -75 632 0 16 75 rlineto
            -149 19 -15 18 18 86 104 return
          </CharString>
          <CharString index="327">
            1442 rmoveto
            101 84 69 138 29 hvcurveto
            -83 hlineto
            -52 -12 -30 -22 -43 hhcurveto
            -27 -26 8 14 -36 hvcurveto
            -29 12 rlineto
            17 -41 -41 12 -48 hhcurveto
            -100 -86 -70 -138 -28 hvcurveto
            84 hlineto
            53 return
          </CharString>
          <CharString index="328">
            1031 215 290 rmoveto
            64 -47 117 -37 145 -6 rrcurveto
            -43 -200 68 0 42 199 rlineto
            278 6 156 138 180 vvcurveto
            118 -59 90 -160 84 vhcurveto
            return
          </CharString>
          <CharString index="329">
            111 94 126 121 -109 75 -142 -175 -112 -94 -126 vhcurveto
            171 -17 rmoveto
            89 53 69 61 51 31 -37 -63 -89 -54 -69 -60 -52 -30 37 63 vhcurveto
            endchar
          </CharString>
          <CharString index="330">
            0 429 20 callgsubr
            -36 hvcurveto
            -29 12 rlineto
            17 -40 -42 12 -48 112 callsubr
            30 22 43 hhcurveto
            27 26 -8 -15 36 hvcurveto
            29 -12 rlineto
            -16 41 40 -12 49 hhcurveto
            return
          </CharString>
          <CharString index="331">
            -101 -476 rcurveline
            -200 -43 67 -140 196 hhcurveto
            130 142 72 186 89 hvcurveto
            -158 -13 75 -100 172 hhcurveto
            133 147 80 194 86 hvcurveto
            -1 -6 return
          </CharString>
          <CharString index="332">
            748 1472 rmoveto
            -238 -6 -171 -152 -205 vvcurveto
            -122 70 -70 91 105 63 91 106 3 vhcurveto
            -81 13 -54 44 73 vvcurveto
            84 82 63 114 8 vhcurveto
            return
          </CharString>
          <CharString index="333">
            0 -16 -75 rlineto
            149 -18 24 -33 -30 -131 -36 -159 -30 -123 -59 -212 -68 -251 -63 -185 -81 -103 rrcurveto
            75 -9 -57 53 -79 hhcurveto
            -89 -64 -69 -84 return
          </CharString>
          <CharString index="334">
            -46 -35 -35 -46 -99 121 -61 124 164 163 91 165 vhcurveto
            -1 92 -65 73 -110 27 113 14 118 61 -2 111 rrcurveto
            116 -115 58 return
          </CharString>
          <CharString index="335">
            247 -416 1 -491 0 -314 -312 -5 -370 -4 -264 178 -214 275 -69 rrcurveto
            -16 -82 -345 3 -64 33 -43 157 rlinecurve
            -61 hlineto
            return
          </CharString>
          <CharString index="336">
            130 80 197 97 hvcurveto
            -52 43 rlineto
            -83 -52 166 callsubr
            15 74 -738 0 -88 -329 rlineto
            67 hlineto
            104 42 26 17 90 hhcurveto
            325 hlineto
            endchar
          </CharString>
          <CharString index="337">
            hvcurveto
            -1 -6 -11 -52 -6 vvcurveto
            -128 -21 52 -67 115 hhcurveto
            return
          </CharString>
          <CharString index="338">
            hhcurveto
            74 51 -37 -43 12 hvcurveto
            -94 -440 rlineto
            -177 -40 -91 return
          </CharString>
          <CharString index="339">
            rmoveto
            -196 -128 155 312 11 callgsubr
            endchar
          </CharString>
          <CharString index="340">
            rmoveto
            220 145 152 -145 80 0 -127 290 return
          </CharString>
          <CharString index="341">
            rmoveto
            59 45 39 53 -1 hvcurveto
            53 -1 -48 249 callsubr
            return
          </CharString>
          <CharString index="342">
            1942 rmoveto
            -78 -71 -28 -32 -44 hvcurveto
            -12 -53 rlineto
            14 return
          </CharString>
          <CharString index="343">
            1855 rmoveto
            30 140 -631 -155 -13 -65 rlineto
            return
          </CharString>
          <CharString index="344">
            1395 439 1168 rmoveto
            196 callsubr
            return
          </CharString>
          <CharString index="345">
            1299 1492 1444 rmoveto
            -1114 hlineto
            -15 return
          </CharString>
          <CharString index="346">
            -421 -52 -15 -73 73 -14 rlineto
            50 -13 10 -18 -11 -52 return
          </CharString>
          <CharString index="347">
            -314 -1444 rmoveto
            -44 callgsubr
            -116 0 return
          </CharString>
          <CharString index="348">
            -167 -225 vvcurveto
            -155 96 -113 163 -103 vhcurveto
            return
          </CharString>
          <CharString index="349">
            -145 -181 -147 96 -103 160 vhcurveto
            7 70 rmoveto
            return
          </CharString>
          <CharString index="350">
            -108 -83 -124 hhcurveto
            -33 -29 6 10 -24 hvcurveto
            40 14 return
          </CharString>
          <CharString index="351">
            929 81 44 -67 callsubr
            210 callsubr
            return
          </CharString>
          <CharString index="352">
            282 -242 rmoveto
            131 93 42 64 13 hvcurveto
            64 14 return
          </CharString>
          <CharString index="353">
            81 hlineto
            142 50 82 60 82 vvcurveto
            77 -69 57 -103 vhcurveto
            return
          </CharString>
          <CharString index="354">
            70 69 86 80 -62 62 -83 -86 -71 -69 -86 -80 62 -62 return
          </CharString>
          <CharString index="355">
            69 139 29 hvcurveto
            -84 hlineto
            -53 -11 -31 -22 -43 hhcurveto
            -26 return
          </CharString>
          <CharString index="356">
            39 -59 hhcurveto
            -59 -45 -39 -53 1 hvcurveto
            -53 49 -39 59 vhcurveto
            return
          </CharString>
          <CharString index="357">
            30 -38 -79 2 hvcurveto
            -126 2 -49 -193 -96 hhcurveto
            endchar
          </CharString>
          <CharString index="358">
            -66 -55 -48 18 23 -33 hvcurveto
            -16 -71 rlineto
            -45 45 69 -32 return
          </CharString>
          <CharString index="359">
            -67 -55 -47 18 23 -33 hvcurveto
            -16 -71 rlineto
            -45 45 68 -32 return
          </CharString>
          <CharString index="360">
            -68 69 -15 rlineto
            50 -14 10 -17 -11 -52 -86 -401 rcurveline
            return
          </CharString>
          <CharString index="361">
            -75 605 0 17 75 -148 20 -14 18 19 83 rlinecurve
            return
          </CharString>
          <CharString index="362">
            -85 0 128 -290 170 0 247 290 rlineto
            return
          </CharString>
        <CharString name=".notdef">
          2048 25 -494 rmoveto
          148 hlineto
          519 2444 rlineto
          -148 hlineto
          -108 -81 callgsubr
          -110 -2444 rmoveto
          148 hlineto
          519 2444 rlineto
          -148 hlineto
          -109 -81 callgsubr
          -109 -81 callgsubr
          endchar
        </CharString>
        <CharString name=".null">
          0 endchar
        </CharString>
        <CharString name="A">
          1393 1262 276 -104 callsubr
        </CharString>
        <CharString name="AE">
          1964 2115 1444 125 callsubr
        </CharString>
        <CharString name="AEacute">
          1964 1607 1 callsubr
          12 callsubr
          252 -397 125 callsubr
        </CharString>
        <CharString name="AEmacron">
          1964 1249 -40 callsubr
          15 callsubr
          836 -316 125 callsubr
        </CharString>
        <CharString name="Aacute">
          1393 1116 -94 callsubr
          -80 callsubr
          -109 -1565 -104 callsubr
        </CharString>
        <CharString name="Abreve">
          1393 1048 0 callsubr
          5 hvcurveto
          -74 hlineto
          -96 -18 -72 -56 -119 hhcurveto
          -100 -68 55 71 10 1 10 1 6 hvcurveto
          -73 hlineto
          -10 -26 -8 -33 -31 vvcurveto
          -127 2 102 -93 147 hhcurveto
          214 -1303 -104 callsubr
        </CharString>
        <CharString name="Abreveacute">
          1393 1370 236 callsubr
          246 -245 -34 callsubr
          9 hvcurveto
          -86 50 callsubr
          260 -1254 -104 callsubr
        </CharString>
        <CharString name="Abrevecyrillic">
          1393 1003 1584 rmoveto
          170 145 93 190 58 hvcurveto
          -80 24 rlineto
          -138 -46 243 callsubr
          31 40 49 vvcurveto
          69 -50 51 -63 -73 -50 -54 -74 -107 89 -90 147 vhcurveto
          259 -1308 -104 callsubr
        </CharString>
        <CharString name="Abrevedotbelow">
          1393 1048 0 callsubr
          5 hvcurveto
          -74 hlineto
          -96 -18 -72 -56 -119 hhcurveto
          -100 -68 55 71 10 1 10 1 6 hvcurveto
          -73 hlineto
          -10 -26 -8 -33 -31 vvcurveto
          -127 2 102 -93 147 hhcurveto
          214 -1303 rmoveto
          -37 callsubr
          26 callsubr
          -350 -761 -92 callsubr
          -29 callsubr
        </CharString>
        <CharString name="Abrevegrave">
          1393 773 -71 callgsubr
          201 -465 -34 callsubr
          9 hvcurveto
          -86 50 callsubr
          260 -1254 -104 callsubr
        </CharString>
        <CharString name="Abrevehookabove">
          1393 1078 1990 rmoveto
          -81 -74 -29 -31 -45 hvcurveto
          -12 -53 rlineto
          13 29 78 callgsubr
          59 -41 134 37 callgsubr
          9 hvcurveto
          -86 50 callsubr
          260 -1254 -104 callsubr
        </CharString>
        <CharString name="Abrevetilde">
          1393 1185 45 callgsubr
          -27 -27 7 12 -37 hvcurveto
          -31 11 rlineto
          14 -42 -43 31 callgsubr
          37 hvcurveto
          31 -10 rlineto
          -14 42 42 -11 49 hhcurveto
          -183 -271 -34 callsubr
          9 hvcurveto
          -86 50 callsubr
          260 -1254 -104 callsubr
        </CharString>
        <CharString name="Acaron">
          1393 1260 -72 callsubr
          -22 callsubr
          -87 -1584 -104 callsubr
        </CharString>
        <CharString name="Acircumflex">
          1393 825 -61 callgsubr
          522 -1275 -104 callsubr
        </CharString>
        <CharString name="Acircumflexacute">
          1393 1366 1835 rmoveto
          30 139 -632 -155 -13 -64 rlineto
          -55 -261 rmoveto
          103 callsubr
          552 -1285 -104 callsubr
        </CharString>
        <CharString name="Acircumflexdotbelow">
          1393 825 -61 callgsubr
          522 -1275 rmoveto
          -37 callsubr
          26 callsubr
          -350 -761 -92 callsubr
          -29 callsubr
        </CharString>
        <CharString name="Acircumflexgrave">
          1393 768 19 callgsubr
          552 -1285 -104 callsubr
        </CharString>
        <CharString name="Acircumflexhookabove">
          1393 1340 1942 rmoveto
          -78 -71 -28 -32 -44 hvcurveto
          -11 -53 rlineto
          14 28 -11 callgsubr
          552 -1285 -104 callsubr
        </CharString>
        <CharString name="Acircumflextilde">
          1393 1181 33 callgsubr
          -49 hhcurveto
          -102 -86 -21 callsubr
          10 25 callgsubr
          552 -1285 -104 callsubr
        </CharString>
        <CharString name="Acyrillic">
          1393 1262 276 -104 callsubr
        </CharString>
        <CharString name="Adblgrave">
          1393 846 1840 -40 callgsubr
          220 -46 callgsubr
          69 hlineto
          88 -1274 -104 callsubr
        </CharString>
        <CharString name="Adieresis">
          1393 868 -58 callsubr
          61 -46 48 -62 -64 -54 -52 -67 -60 46 -47 63 hvcurveto
          -55 callsubr
          104 callsubr
          hvcurveto
          62 -1308 -104 callsubr
        </CharString>
        <CharString name="Adieresismacron">
          1393 767 1831 rmoveto
          599 hlineto
          23 107 rlineto
          -599 hlineto
          49 -385 rmoveto
          14 callsubr
          11 -36 37 -55 hhcurveto
          -12 hlineto
          -55 -52 -37 -49 -10 hvcurveto
          -50 -11 36 -36 55 hhcurveto
          340 hmoveto
          14 callsubr
          10 -35 37 -56 hhcurveto
          -11 hlineto
          -56 -51 -20 callgsubr
          105 -1277 -104 callsubr
        </CharString>
        <CharString name="Adotaccent">
          1393 1034 -71 callsubr
          -56 callsubr
          228 -1300 -104 callsubr
        </CharString>
        <CharString name="Adotbelow">
          1393 1262 276 rmoveto
          -37 callsubr
          26 callsubr
          -350 -761 -92 callsubr
          -29 callsubr
        </CharString>
        <CharString name="Adotmacron">
          1393 762 7 callgsubr
          -48 40 -60 hhcurveto
          -59 -44 -40 -52 hvcurveto
          -53 1 47 -39 60 hhcurveto
          234 -1271 -104 callsubr
        </CharString>
        <CharString name="Agrave">
          1393 984 -49 callgsubr
          177 -1275 -104 callsubr
        </CharString>
        <CharString name="Ahookabove">
          1393 1069 1880 rmoveto
          -84 -71 -34 -48 -37 hvcurveto
          -13 -57 rlineto
          19 28 41 14 45 hhcurveto
          67 34 -26 -43 -50 -53 -50 -90 -51 hvcurveto
          246 callsubr
          193 -1604 -104 callsubr
        </CharString>
        <CharString name="Ainvertedbreve">
          1393 1042 1889 rmoveto
          -177 -106 102 callsubr
          119 hhcurveto
          100 67 -54 -72 -10 0 -9 -2 -7 hvcurveto
          74 hlineto
          11 26 7 33 32 vvcurveto
          125 -2 -102 94 -147 hhcurveto
          220 -1613 -104 callsubr
        </CharString>
        <CharString name="Alphagreek">
          1393 1262 276 -104 callsubr
        </CharString>
        <CharString name="Alphatonosgreek">
          1393 1262 276 rmoveto
          -37 callsubr
          16 -147 -26 -35 -146 -20 rlinecurve
          -16 -75 610 0 -24 callgsubr
          -806 1168 -72 callgsubr
          -189 -860 rmoveto
          326 614 68 -614 rlineto
          endchar
        </CharString>
        <CharString name="Amacron">
          1393 758 -40 callsubr
          29 139 rlineto
          -527 hlineto
          474 -1484 -104 callsubr
        </CharString>
        <CharString name="Aogonek">
          1393 1048 48 callgsubr
          -41 62 92 68 27 71 59 62 hvcurveto
          247 hlineto
          -24 callgsubr
          -37 callsubr
          rlineto
          16 -147 -26 -35 -146 -20 -16 -75 rcurveline
          279 104 callgsubr
          -516 1066 rmoveto
          326 614 68 -614 rlineto
          endchar
        </CharString>
        <CharString name="Aring">
          1393 805 1735 rmoveto
          -110 99 81 callgsubr
          -101 -86 -112 vhcurveto
          155 -15 rmoveto
          79 47 61 55 46 28 -33 -56 -79 -47 -62 -55 -46 -28 33 57 vhcurveto
          302 -1444 -104 callsubr
        </CharString>
        <CharString name="Aringacute">
          1393 1366 1839 119 callsubr
          245 callsubr
          -75 42 -131 hhcurveto
          -70 hlineto
          -129 -95 -42 -64 -13 hvcurveto
          -64 -14 78 -42 128 hhcurveto
          71 57 rmoveto
          -47 hlineto
          -43 -19 19 30 6 hvcurveto
          29 5 30 20 42 hhcurveto
          48 hlineto
          43 19 -20 -29 -6 hvcurveto
          -30 -5 -29 -19 -44 hhcurveto
          227 -1298 -104 callsubr
        </CharString>
        <CharString name="Aringbelow">
          1393 1262 276 rmoveto
          -37 callsubr
          26 callsubr
          -625 -890 rmoveto
          -107 2 111 -67 142 hhcurveto
          176 88 callgsubr
          -110 -86 -107 4 144 callsubr
        </CharString>
        <CharString name="Atilde">
          1393 1138 1588 rmoveto
          84 1 66 -88 callgsubr
          -14 -24 -25 -34 hhcurveto
          -24 -19 11 21 -26 hvcurveto
          -26 21 rlineto
          31 -39 -39 93 callgsubr
          33 hhcurveto
          25 19 -11 -21 26 hvcurveto
          26 -22 rlineto
          -30 39 38 -19 49 hhcurveto
          124 -1312 -104 callsubr
        </CharString>
        <CharString name="B">
          1372 1379 450 67 callsubr
        </CharString>
        <CharString name="Bdotaccent">
          1372 982 147 callsubr
          397 -1126 67 callsubr
        </CharString>
        <CharString name="Bdotbelow">
          208 callsubr
          -461 -621 -92 callsubr
          -29 callsubr
        </CharString>
        <CharString name="Becyrillic">
          1361 1383 468 rmoveto
          216 -175 153 -362 vhcurveto
          -162 hlineto
          109 519 223 -9 257 -10 42 -47 9 -214 rlinecurve
          67 hlineto
          66 368 -1098 0 -16 -75 rlineto
          141 -18 16 -16 -20 -90 -221 -1046 rcurveline
          -20 -90 -23 -16 -148 -18 -16 -75 rcurveline
          617 hlineto
          416 298 180 288 hvcurveto
          -307 4 rmoveto
          -211 -154 -159 -297 -10 vhcurveto
          -101 -4 139 655 rlineto
          116 hlineto
          187 -2 110 -89 -180 vvcurveto
          endchar
        </CharString>
        <CharString name="Betagreek">
          1372 1379 450 67 callsubr
        </CharString>
        <CharString name="Blinebelow">
          208 callsubr
          -752 -810 41 callsubr
        </CharString>
        <CharString name="C">
          1410 559 586 -51 callsubr
          -10 callsubr
        </CharString>
        <CharString name="Cacute">
          1410 1248 -94 callsubr
          -54 callsubr
          -944 -1255 -51 callsubr
          -10 callsubr
        </CharString>
        <CharString name="Ccaron">
          1410 1392 -3 callsubr
          255 callsubr
          -921 -1274 -51 callsubr
          -10 callsubr
        </CharString>
        <CharString name="Ccedilla">
          1410 559 586 -51 callsubr
          -3 -405 258 -236 329 -34 rrcurveto
          -115 -124 71 callsubr
          -27 callgsubr
          176 2 157 44 87 65 rlinecurve
          150 callsubr
        </CharString>
        <CharString name="Ccedillaacute">
          1410 1248 -94 callsubr
          -54 callsubr
          -944 -1255 -51 callsubr
          -3 -405 258 -236 329 -34 rrcurveto
          -115 -124 71 callsubr
          -27 callgsubr
          176 2 157 44 87 65 rlinecurve
          150 callsubr
        </CharString>
        <CharString name="Ccircumflex">
          1410 956 -57 callsubr
          -42 callsubr
          -312 -965 -51 callsubr
          -10 callsubr
        </CharString>
        <CharString name="Cdotaccent">
          1410 1165 147 callsubr
          -606 -990 -51 callsubr
          -10 callsubr
        </CharString>
        <CharString name="Checyrillic">
          1563 1111 198 rmoveto
          -19 -90 -25 -15 -148 -18 rrcurveto
          -16 -75 608 0 16 75 -128 16 -18 16 19 92 rlinecurve
          222 1046 19 92 25 16 136 16 rlinecurve
          15 75 -592 0 -16 -75 rlineto
          127 -16 16 -17 -19 -91 -110 -517 rcurveline
          -29 -92 -88 -20 -104 hhcurveto
          -197 -85 114 238 51 hvcurveto
          47 216 19 89 21 19 130 14 rlinecurve
          15 75 -585 0 -16 -75 rlineto
          130 -15 15 -18 -19 -89 -44 -210 rcurveline
          -319 -68 166 -150 347 hhcurveto
          140 94 28 35 103 hvcurveto
          endchar
        </CharString>
        <CharString name="Chigreek">
          1352 330 291 16 callsubr
        </CharString>
        <CharString name="D">
          1542 -25 callsubr
          -65 callsubr
          endchar
        </CharString>
        <CharString name="Dbar">
          1542 202 697 rmoveto
          154 hlineto
          -106 -498 rlineto
          -19 -88 -21 -19 -140 -17 -16 -75 rcurveline
          540 hlineto
          581 429 334 491 382 -287 237 -451 hvcurveto
          -505 -101 callgsubr
          -89 -99 -462 rcurveline
          -153 hlineto
          1061 78 -53 callgsubr
          129 610 250 0 19 86 -250 0 121 574 72 -4 rlineto
          285 -16 140 -205 -271 vvcurveto
          endchar
        </CharString>
        <CharString name="Dcaron">
          1542 1228 -72 callsubr
          -22 callsubr
          287 -1035 24 callsubr
          -65 callsubr
          endchar
        </CharString>
        <CharString name="Dcircumflexbelow">
          1542 -25 callsubr
          -65 callsubr
          -907 -1327 rmoveto
          232 -91 callgsubr
          37 callsubr
        </CharString>
        <CharString name="Dcommaaccent">
          1542 -25 callsubr
          -65 callsubr
          -714 -1336 -73 callsubr
          -75 callgsubr
          -42 17 18 107 callsubr
        </CharString>
        <CharString name="Ddotaccent">
          1542 1002 -71 callsubr
          -56 callsubr
          602 -751 24 callsubr
          -65 callsubr
          endchar
        </CharString>
        <CharString name="Ddotbelow">
          1542 -25 callsubr
          -65 callsubr
          -679 -1038 -92 callsubr
          8 callsubr
        </CharString>
        <CharString name="Decyrillic">
          1489 644 854 rmoveto
          44 160 52 217 28 115 rrcurveto
          487 hlineto
          -266 -1248 rlineto
          -657 hlineto
          114 128 95 221 103 407 rrcurveto
          839 -756 rmoveto
          -205 hlineto
          244 1147 19 90 25 17 136 17 rlinecurve
          16 75 -1229 0 -16 -75 rlineto
          153 -18 23 -33 -34 -150 -26 -108 -30 -115 -25 -89 -98 -382 -102 -249 -142 -127 rrcurveto
          -140 hlineto
          -95 -413 rlineto
          80 hlineto
          261 127 43 54 202 hhcurveto
          675 hlineto
          202 27 -49 -266 15 hvcurveto
          80 hlineto
          endchar
        </CharString>
        <CharString name="Deltagreek">
          1254 33 hmoveto
          1166 hlineto
          14 72 -195 1374 -201 0 -769 -1374 rlineto
          131 21 rmoveto
          590 1089 133 -1089 rlineto
          endchar
        </CharString>
        <CharString name="Djecyrillic">
          1718 1718 422 rmoveto
          269 -174 137 -298 -115 -85 -16 -25 -80 vhcurveto
          76 callgsubr
          68 376 -1225 0 219 callsubr
          490 rcurveline
          19 69 69 10 81 hhcurveto
          171 96 -92 -191 -307 -149 -298 -302 -153 hvcurveto
          23 -64 rlineto
          449 143 266 308 359 vvcurveto
          endchar
        </CharString>
        <CharString name="Dlinebelow">
          1542 -25 callsubr
          -65 callsubr
          -970 -1227 -45 callsubr
        </CharString>
        <CharString name="Dzecyrillic">
          1152 599 -28 59 callsubr
          endchar
        </CharString>
        <CharString name="Dzhecyrillic">
          1583 156 callsubr
          523 hlineto
          108 17 -29 -285 -15 hvcurveto
          80 hlineto
          285 106 29 29 107 hhcurveto
          524 hlineto
          15 75 -130 17 -17 17 19 90 rlinecurve
          222 1046 19 90 23 16 139 18 54 callsubr
          123 -16 18 -18 -19 -90 rlinecurve
          -245 -1149 -592 148 callsubr
        </CharString>
        <CharString name="E">
          1247 1429 1444 -99 callsubr
        </CharString>
        <CharString name="Eacute">
          1247 1057 -94 callsubr
          -80 callsubr
          117 -397 -99 callsubr
        </CharString>
        <CharString name="Ebreve">
          1247 988 0 callsubr
          79 callgsubr
          441 -135 -99 callsubr
        </CharString>
        <CharString name="Ecaron">
          1247 1201 -3 callsubr
          -26 callsubr
          139 -416 -99 callsubr
        </CharString>
        <CharString name="Ecedilla">
          1247 549 -476 -63 callgsubr
          93 101 1 3 460 -32 callsubr
          67 376 -1063 0 -35 callsubr
          554 0 -136 -148 -14 -28 callsubr
          -87 callgsubr
          endchar
        </CharString>
        <CharString name="Ecedillabreve">
          1247 988 0 callsubr
          79 callgsubr
          -439 -2055 -63 callgsubr
          93 101 1 3 460 -32 callsubr
          67 376 -1063 0 -35 callsubr
          554 0 -136 -148 -14 -28 callsubr
          -87 callgsubr
          endchar
        </CharString>
        <CharString name="Ecircumflex">
          1247 766 90 callsubr
          -128 290 -42 callsubr
          749 -107 -99 callsubr
        </CharString>
        <CharString name="Ecircumflexacute">
          1247 1306 1835 rmoveto
          29 139 -631 -155 -13 -64 rlineto
          -55 -261 rmoveto
          103 callsubr
          779 -117 -99 callsubr
        </CharString>
        <CharString name="Ecircumflexbelow">
          1247 1429 1444 rmoveto
          -1063 hlineto
          -35 callsubr
          1108 -32 callsubr
          -1007 -1534 56 callsubr
          37 callsubr
        </CharString>
        <CharString name="Ecircumflexdotbelow">
          1247 766 90 callsubr
          -128 290 -42 callsubr
          749 -107 rmoveto
          -1063 hlineto
          -35 callsubr
          1108 -32 callsubr
          -780 -1245 -92 callsubr
          8 callsubr
        </CharString>
        <CharString name="Ecircumflexgrave">
          1247 708 19 callgsubr
          779 -117 -99 callsubr
        </CharString>
        <CharString name="Ecircumflexhookabove">
          1247 1280 235 callsubr
          29 -11 callgsubr
          779 -117 -99 callsubr
        </CharString>
        <CharString name="Ecircumflextilde">
          1247 1121 33 callgsubr
          -50 hhcurveto
          -101 -86 -21 callsubr
          10 25 callgsubr
          779 -117 -99 callsubr
        </CharString>
        <CharString name="Ecyrillic">
          1417 560 586 rmoveto
          35 2 34 3 34 vhcurveto
          627 -8 23 112 -638 -8 rlineto
          337 60 210 244 259 hhcurveto
          -97 callgsubr
          hvcurveto
          68 -3 59 332 rlineto
          74 -92 -191 72 -222 hhcurveto
          -476 -332 -339 -482 -3 hvcurveto
          -438 -3 301 -241 368 hhcurveto
          180 161 45 66 88 hvcurveto
          74 341 -69 -1 rlineto
          -228 -92 -144 -118 -170 hhcurveto
          -228 -151 208 301 hvcurveto
          endchar
        </CharString>
        <CharString name="Edblgrave">
          1247 787 1840 69 callsubr
          314 -106 -99 callsubr
        </CharString>
        <CharString name="Edieresis">
          1247 808 -58 callsubr
          34 callsubr
          -55 callsubr
          hvcurveto
          61 1 -46 48 -62 hhcurveto
          -65 -53 -52 -67 hvcurveto
          -60 -1 47 -47 62 hhcurveto
          289 -140 -99 callsubr
        </CharString>
        <CharString name="Edotaccent">
          1247 974 77 callsubr
          455 -132 -99 callsubr
        </CharString>
        <CharString name="Edotbelow">
          1247 1429 1444 rmoveto
          -1063 hlineto
          -35 callsubr
          1108 -32 callsubr
          -780 -1245 -92 callsubr
          8 callsubr
        </CharString>
        <CharString name="Efcyrillic">
          1907 204 680 rmoveto
          -271 234 -170 416 -26 vhcurveto
          -9 -42 -18 -85 -21 -18 -143 -15 rlinecurve
          -16 -76 597 0 16 76 rlineto
          -133 15 -18 18 18 85 8 40 rcurveline
          601 20 266 226 307 vvcurveto
          271 -234 170 -418 26 vhcurveto
          9 42 18 85 23 19 141 14 rlinecurve
          16 76 -597 0 -16 -76 rlineto
          135 -15 16 -18 -17 -85 -9 -40 rcurveline
          -600 -22 -265 -225 -306 vvcurveto
          319 -13 rmoveto
          266 144 178 382 26 vhcurveto
          -174 -826 rlineto
          -247 31 -105 132 193 vvcurveto
          1161 110 rmoveto
          -267 -145 -177 -384 -26 vhcurveto
          175 826 rlineto
          248 -30 106 -133 -193 vvcurveto
          endchar
        </CharString>
        <CharString name="Egrave">
          1247 925 9 callsubr
          13 callsubr
          404 -107 -99 callsubr
        </CharString>
        <CharString name="Ehookabove">
          1247 1010 158 callsubr
          33 -26 -43 -50 -53 -50 -89 -51 hvcurveto
          246 callsubr
          419 -436 -99 callsubr
        </CharString>
        <CharString name="Einvertedbreve">
          1247 983 70 callgsubr
          72 56 123 callsubr
          161 callsubr
          446 -445 -99 callsubr
        </CharString>
        <CharString name="Elcyrillic">
          1508 213 -28 rmoveto
          211 113 218 498 133 hvcurveto
          72 266 48 192 46 203 rrcurveto
          465 hlineto
          -245 -1150 117 callgsubr
          -128 16 -19 17 19 91 rlinecurve
          223 1046 19 92 25 16 135 16 rlinecurve
          16 75 -1206 226 callsubr
          -91 62 -66 103 hvcurveto
          endchar
        </CharString>
        <CharString name="Emacron">
          1247 698 -48 callgsubr
          700 -316 -99 callsubr
        </CharString>
        <CharString name="Emacronacute">
          1247 1310 1856 119 callsubr
          -41 -191 117 callsubr
          751 -250 -99 callsubr
        </CharString>
        <CharString name="Emacrongrave">
          1247 713 1856 -30 callgsubr
          -86 -410 117 callsubr
          751 -250 -99 callsubr
        </CharString>
        <CharString name="Emcyrillic">
          1816 837 1444 20 callsubr
        </CharString>
        <CharString name="Encyrillic">
          -9 callsubr
          -15 callsubr
          -58 callgsubr
          endchar
        </CharString>
        <CharString name="Eogonek">
          1247 914 -482 rmoveto
          83 66 34 47 33 hvcurveto
          15 74 rlineto
          -17 -18 -28 -11 -30 hhcurveto
          -63 -42 62 92 68 28 71 59 62 hvcurveto
          150 hlineto
          -78 callsubr
          204 callsubr
          54 -46 8 -225 rlinecurve
          67 hlineto
          67 376 -1063 0 -16 -75 rlineto
          132 -17 14 -18 -18 -89 -223 -1046 rcurveline
          -19 -88 -22 -19 -139 -17 -16 -75 rcurveline
          874 hlineto
          -142 -87 -86 -109 -112 vvcurveto
          -102 86 -72 123 vhcurveto
          endchar
        </CharString>
        <CharString name="Epsilongreek">
          1247 1429 1444 -99 callsubr
        </CharString>
        <CharString name="Epsilontonosgreek">
          1614 1796 1444 rmoveto
          -1063 hlineto
          -16 -75 132 -17 15 -18 -19 -89 rlinecurve
          -223 -1046 -22 callgsubr
          1109 0 -78 callsubr
          -109 -264 -80 -44 -269 -10 rrcurveto
          -223 -9 129 608 216 -2 91 -1 19 -38 -5 -166 rlinecurve
          64 hlineto
          105 495 rlineto
          -64 hlineto
          -66 -164 -34 -33 -91 -2 rrcurveto
          -217 -2 122 575 212 -8 232 -10 53 -46 8 -225 rlinecurve
          67 hlineto
          -1351 376 -72 callgsubr
          endchar
        </CharString>
        <CharString name="Ercyrillic">
          1334 673 hmoveto
          18 callsubr
        </CharString>
        <CharString name="Ereversedcyrillic">
          1454 429 1350 rmoveto
          -77 -331 rlineto
          67 hlineto
          246 98 146 104 172 hhcurveto
          252 118 -227 -310 -16 0 -16 -1 -16 hvcurveto
          -621 8 -24 -115 636 8 rlineto
          -335 -44 -195 -277 -297 hhcurveto
          -224 -119 135 208 -8 hvcurveto
          -68 hlineto
          -45 -323 rlineto
          -59 71 198 -62 206 hhcurveto
          505 345 352 459 422 -275 267 -398 -155 -163 -48 -74 -100 hvcurveto
          endchar
        </CharString>
        <CharString name="Escyrillic">
          1410 559 586 -51 callsubr
          -10 callsubr
        </CharString>
        <CharString name="Etagreek">
          -9 callsubr
          -15 callsubr
          -58 callgsubr
          endchar
        </CharString>
        <CharString name="Etatonosgreek">
          1967 911 199 rmoveto
          105 492 601 0 -105 -492 -19 -89 -23 -19 -133 -16 rlinecurve
          -15 -75 592 0 16 75 -131 16 -17 21 20 90 rlinecurve
          221 1040 20 90 24 21 139 16 rlinecurve
          15 75 -593 0 -16 -75 127 -16 14 -18 -19 -90 rlinecurve
          -97 -460 -601 0 98 460 18 29 callgsubr
          -221 -1040 -20 -89 -23 -21 -140 -17 rlinecurve
          -16 -75 593 0 16 75 -123 16 -17 19 18 89 rlinecurve
          -533 1245 -72 callgsubr
          endchar
        </CharString>
        <CharString name="Etilde">
          1247 1079 -69 callgsubr
          350 -144 -99 callsubr
        </CharString>
        <CharString name="Etildebelow">
          1247 1429 1444 rmoveto
          -1063 hlineto
          -35 callsubr
          1108 -32 callsubr
          -674 -1498 rmoveto
          92 72 64 214 25 hvcurveto
          -78 hlineto
          -99 -16 -26 -29 -39 hhcurveto
          -27 94 callgsubr
          -73 -64 -24 -212 rrcurveto
          78 hlineto
          98 16 26 28 38 hhcurveto
          28 112 callgsubr
        </CharString>
        <CharString name="F">
          1161 1404 1444 rmoveto
          -1038 hlineto
          -15 -75 133 -17 13 -18 -19 -89 rlinecurve
          -222 -1046 -20 -88 -20 -19 -140 -17 rlinecurve
          -16 -75 617 -33 callgsubr
          207 callsubr
        </CharString>
        <CharString name="Fdotaccent">
          1161 976 -71 callsubr
          -58 -55 -71 -64 51 -50 68 hvcurveto
          428 -132 rmoveto
          -1038 hlineto
          -15 -75 133 -17 13 -18 -19 -89 rlinecurve
          -222 -1046 -20 -88 -20 -19 -140 -17 rlinecurve
          -16 -75 617 -33 callgsubr
          207 callsubr
        </CharString>
        <CharString name="G">
          1552 246 651 -39 callsubr
        </CharString>
        <CharString name="Gacute">
          1552 1236 1 callsubr
          12 callsubr
          -1246 -1190 -39 callsubr
        </CharString>
        <CharString name="Gammagreek">
          1190 1434 1444 rmoveto
          -1067 hlineto
          -16 -75 141 -18 16 -16 -19 -90 rlinecurve
          -222 -1046 -19 -90 -23 -16 -148 -18 rlinecurve
          -16 -75 636 0 16 75 -159 20 -16 17 18 86 rlinecurve
          246 1159 205 -9 250 -10 39 -47 6 -215 rlinecurve
          66 hlineto
          endchar
        </CharString>
        <CharString name="Gbreve">
          1552 1168 71 callgsubr
          -69 55 71 10 1 10 2 6 175 callsubr
          -922 -928 -39 callsubr
        </CharString>
        <CharString name="Gcaron">
          1552 1380 -72 callsubr
          -90 callgsubr
          -1223 -1209 -39 callsubr
        </CharString>
        <CharString name="Gcircumflex">
          1552 945 -57 callsubr
          -42 callsubr
          -614 -900 -39 callsubr
        </CharString>
        <CharString name="Gcommaaccent">
          1552 246 651 rmoveto
          -2 -435 308 -243 368 -1 rrcurveto
          181 194 54 75 100 hvcurveto
          86 398 18 85 18 21 125 15 rlinecurve
          16 75 -557 0 -16 -75 rlineto
          143 -17 12 -18 -18 -86 -79 -373 rcurveline
          -32 -42 -78 -16 -72 hhcurveto
          -233 -156 198 310 436 238 344 310 -97 callgsubr
          hvcurveto
          68 -3 60 332 rlineto
          74 -93 83 callgsubr
          546 -1126 rmoveto
          158 96 69 115 108 -81 66 -97 -69 -57 -24 -41 -40 hvcurveto
          -14 -20 callsubr
          -27 callsubr
          -30 hvcurveto
          -15 -66 rlineto
          -36 37 66 -26 78 hhcurveto
          endchar
        </CharString>
        <CharString name="Gdotaccent">
          1552 1154 3 callgsubr
          -908 -925 -39 callsubr
        </CharString>
        <CharString name="Geacutecyrillic">
          1162 1021 -94 callsubr
          -80 callsubr
          134 -397 rmoveto
          -1050 152 callsubr
          -12 callgsubr
        </CharString>
        <CharString name="Gecyrillic">
          1162 1410 1444 rmoveto
          -1050 152 callsubr
          -12 callgsubr
        </CharString>
        <CharString name="Germandbls">
          1509 516 hmoveto
          286 1357 169 -6 rlineto
          233 -10 93 -87 -157 vvcurveto
          -142 -98 -97 -172 -24 vhcurveto
          -39 -179 rlineto
          176 -76 79 -116 -154 vvcurveto
          -148 -86 -88 -128 -128 -94 105 210 8 vhcurveto
          -69 hlineto
          -62 -312 rlineto
          -59 68 130 -45 151 hhcurveto
          249 222 152 272 188 -91 152 -177 91 hvcurveto
          175 17 149 103 180 vvcurveto
          200 -164 117 -315 vhcurveto
          -706 hlineto
          -17 -75 rlineto
          135 -17 16 -18 -19 -89 -220 -1046 rcurveline
          -19 -90 -22 -16 -143 -18 -15 -75 rcurveline
          endchar
        </CharString>
        <CharString name="Geupturncyrillic">
          1143 1371 1350 rmoveto
          92 415 rlineto
          -81 hlineto
          -268 -123 -47 -53 -198 hhcurveto
          -654 152 callsubr
          619 0 16 75 rlineto
          -143 19 -26 18 19 86 245 1152 rcurveline
          endchar
        </CharString>
        <CharString name="Gmacron">
          1552 878 -40 callsubr
          15 callsubr
          -662 -1109 -39 callsubr
        </CharString>
        <CharString name="H">
          -9 callsubr
          -15 callsubr
          -58 callgsubr
          endchar
        </CharString>
        <CharString name="Hacyrillic">
          1352 330 291 16 callsubr
        </CharString>
        <CharString name="Hardsigncyrillic">
          1559 1628 -4 callgsubr
          -854 0 -89 -367 rlineto
          69 hlineto
          101 236 56 32 210 8 rrcurveto
          37 2 -246 -1157 rlineto
          -18 -88 -21 -17 -144 -18 -16 -75 rcurveline
          610 hlineto
          424 291 194 301 hvcurveto
          -307 8 rmoveto
          -228 -155 -173 -296 -10 vhcurveto
          -102 -4 148 694 108 -1 rlineto
          189 -2 108 -92 -184 vvcurveto
          endchar
        </CharString>
        <CharString name="Hbar">
          -9 callsubr
          -20 -19 -133 -16 rlinecurve
          -16 -75 589 0 15 75 -131 16 -15 18 19 90 rlinecurve
          178 837 154 0 18 86 -154 0 26 123 19 89 24 19 138 16 rlinecurve
          16 75 -589 0 -16 -75 126 -16 12 -18 -19 -90 rlinecurve
          -26 -123 -601 0 26 123 19 88 22 20 132 16 rlinecurve
          15 75 -588 -32 callgsubr
          -26 -123 -154 0 -18 -86 154 0 -178 -837 -22 callgsubr
          589 0 16 75 -124 16 -15 19 19 89 rlinecurve
          125 586 rmoveto
          53 251 601 0 -54 -251 rlineto
          endchar
        </CharString>
        <CharString name="Hbrevebelow">
          -9 callsubr
          -15 callsubr
          -58 callgsubr
          197 -656 rmoveto
          182 110 124 198 7 hvcurveto
          -76 hlineto
          -99 -18 -74 -58 -123 hhcurveto
          -103 -70 57 74 hvcurveto
          -1 9 2 10 1 7 rrcurveto
          -75 hlineto
          -11 -27 -7 -34 1 -32 rrcurveto
          -131 1 104 -98 150 hhcurveto
          endchar
        </CharString>
        <CharString name="Hcaron">
          1595 1381 1860 rmoveto
          -220 -146 -152 146 -26 callsubr
          -931 -1661 rmoveto
          32 callsubr
          -58 callgsubr
          endchar
        </CharString>
        <CharString name="Hcedilla">
          1595 242 39 callgsubr
          246 vlineto
          16 75 -124 16 -17 19 19 89 rlinecurve
          32 callsubr
          251 38 callgsubr
          252 callsubr
          88 hhcurveto
          endchar
        </CharString>
        <CharString name="Hcircumflex">
          1595 946 90 callsubr
          -127 290 -163 0 -248 -290 rlineto
          -321 -1352 rmoveto
          32 callsubr
          -58 callgsubr
          endchar
        </CharString>
        <CharString name="Hdieresis">
          1595 988 1583 rmoveto
          53 callgsubr
          332 hmoveto
          53 callgsubr
          -781 -1384 rmoveto
          32 callsubr
          -58 callgsubr
          endchar
        </CharString>
        <CharString name="Hdotaccent">
          1595 1154 1575 rmoveto
          70 57 56 69 65 -50 50 -67 -70 -58 -55 -70 -64 51 -51 67 hvcurveto
          -615 -1376 rmoveto
          32 callsubr
          -58 callgsubr
          endchar
        </CharString>
        <CharString name="Hdotbelow">
          -9 callsubr
          -15 callsubr
          -58 callgsubr
          199 -376 -92 callsubr
          97 callsubr
        </CharString>
        <CharString name="I">
          705 539 199 -91 callsubr
        </CharString>
        <CharString name="IAcyrillic">
          1426 369 982 rmoveto
          -163 99 -102 158 -42 vhcurveto
          -230 -272 -142 -165 -130 -140 -86 -27 rlinecurve
          -16 -71 345 0 523 624 rlineto
          -1 14 15 -1 14 hhcurveto
          131 hlineto
          -90 -423 -19 -92 -25 -16 -132 -16 rlinecurve
          -16 -75 592 0 16 75 rlineto
          -130 16 -17 16 20 92 222 1046 rcurveline
          19 91 21 16 139 17 16 75 rcurveline
          -603 hlineto
          -461 -247 -179 -283 hvcurveto
          301 -9 rmoveto
          225 146 145 300 10 vhcurveto
          103 3 -136 -640 -122 1 rlineto
          -183 2 -108 89 165 vvcurveto
          endchar
        </CharString>
        <CharString name="IJ">
          1412 1258 262 151 callsubr
          -23 callgsubr
          -719 -63 -91 callsubr
        </CharString>
        <CharString name="IJacute">
          1412 790 1842 rmoveto
          -209 -290 82 0 382 281 rlineto
          8 vlineto
          443 hmoveto
          -209 -290 -54 callsubr
          -485 -1579 151 callsubr
          -23 callgsubr
          -719 -63 -91 callsubr
        </CharString>
        <CharString name="IUcyrillic">
          2225 52 hmoveto
          593 hlineto
          15 75 rlineto
          -124 16 -18 18 19 90 104 491 rcurveline
          232 hlineto
          -1 -20 -1 -21 -21 vvcurveto
          -369 230 -286 402 456 332 381 462 369 -230 288 -402 -2 vhcurveto
          -403 -1 -307 -298 -65 -388 rrcurveto
          -223 hlineto
          98 461 146 callsubr
          -139 -18 rlinecurve
          1438 -1 rmoveto
          -216 -102 190 278 376 163 452 306 215 102 -190 -278 -376 -163 -452 -305 hvcurveto
          endchar
        </CharString>
        <CharString name="Iacute">
          705 790 1842 rmoveto
          -209 -290 82 0 382 281 rlineto
          8 vlineto
          -506 -1642 -91 callsubr
        </CharString>
        <CharString name="Ibreve">
          705 721 1580 rmoveto
          177 107 120 189 6 hvcurveto
          -74 hlineto
          -95 -18 -72 -57 -120 hhcurveto
          -99 -68 55 72 9 0 10 2 7 hvcurveto
          -74 hlineto
          -10 -26 -7 -34 -31 vvcurveto
          -126 1 102 -93 147 hhcurveto
          -182 -1381 -91 callsubr
        </CharString>
        <CharString name="Icaron">
          705 934 1861 rmoveto
          -220 -146 -152 146 -26 callsubr
          -484 -1662 -91 callsubr
        </CharString>
        <CharString name="Icircumflex">
          705 498 1552 rmoveto
          220 145 153 -145 79 0 -127 289 -162 0 -248 -289 rlineto
          126 -1353 -91 callsubr
        </CharString>
        <CharString name="Icyrillic">
          705 539 199 -91 callsubr
        </CharString>
        <CharString name="Idblgrave">
          705 520 1841 69 callsubr
          -309 -1352 -91 callsubr
        </CharString>
        <CharString name="Idieresis">
          705 131 callsubr
        </CharString>
        <CharString name="Idieresisacute">
          705 1043 -70 callgsubr
          84 -221 rmoveto
          56 51 36 49 11 hvcurveto
          49 11 -37 37 -55 hhcurveto
          -11 hlineto
          -55 -52 -37 -49 -11 hvcurveto
          -49 -10 35 -36 56 hhcurveto
          340 hmoveto
          56 51 36 49 10 hvcurveto
          49 11 -36 37 -55 hhcurveto
          -11 hlineto
          -56 -51 -37 -49 -11 hvcurveto
          -49 -11 36 -36 56 hhcurveto
          -291 -1355 -91 callsubr
        </CharString>
        <CharString name="Idotaccent">
          705 707 1576 rmoveto
          70 57 56 69 65 -50 50 -68 -70 -57 -55 -71 -64 51 -50 67 hvcurveto
          -168 -1377 -91 callsubr
        </CharString>
        <CharString name="Idotbelow">
          705 539 199 rmoveto
          79 callsubr
          133 -15 13 -20 -19 -89 rlinecurve
          46 callsubr
          -59 callgsubr
          -246 -376 rmoveto
          -69 -58 -56 -69 -64 50 -51 115 callsubr
        </CharString>
        <CharString name="Iecyrillic">
          1247 1429 1444 -99 callsubr
        </CharString>
        <CharString name="Igrave">
          705 658 1841 rmoveto
          -234 -9 hlineto
          13 callsubr
          -219 -1352 -91 callsubr
        </CharString>
        <CharString name="Ihookabove">
          705 743 1880 rmoveto
          -84 -71 -33 -49 -38 hvcurveto
          -13 -56 rlineto
          19 29 40 13 46 hhcurveto
          67 33 -26 -42 -50 -53 -51 -89 -51 hvcurveto
          81 hlineto
          142 51 81 59 82 vvcurveto
          77 -68 57 -103 vhcurveto
          -204 -1681 -91 callsubr
        </CharString>
        <CharString name="Iicyrillic">
          1604 52 hmoveto
          192 callsubr
        </CharString>
        <CharString name="Iinvertedbreve">
          705 716 1890 rmoveto
          -177 -107 -121 -189 -6 hvcurveto
          74 hlineto
          96 18 72 56 120 hhcurveto
          99 68 -55 -71 -10 -1 -10 -1 -6 hvcurveto
          74 hlineto
          10 25 7 34 31 vvcurveto
          126 -1 -103 94 -146 hhcurveto
          -177 -1691 -91 callsubr
        </CharString>
        <CharString name="Iishortcyrillic">
          1604 1139 1584 rmoveto
          170 144 93 190 59 hvcurveto
          -80 24 rlineto
          -138 -47 -107 -83 -125 hhcurveto
          -33 -29 6 10 -24 hvcurveto
          40 14 32 40 49 vvcurveto
          69 -50 51 -64 -72 -51 -54 -74 -107 89 -90 148 vhcurveto
          -1087 -1584 rmoveto
          192 callsubr
        </CharString>
        <CharString name="Imacron">
          705 431 -40 callsubr
          30 140 rlineto
          -527 hlineto
          77 -1562 -91 callsubr
        </CharString>
        <CharString name="Iocyrillic">
          1247 808 -58 callsubr
          34 callsubr
          -55 callsubr
          hvcurveto
          61 1 -46 48 -62 hhcurveto
          -65 -53 -52 -67 hvcurveto
          -60 -1 47 -47 62 hhcurveto
          289 -140 -99 callsubr
        </CharString>
        <CharString name="Iogonek">
          705 303 -482 69 callgsubr
          62 92 68 27 71 60 62 hvcurveto
          244 hlineto
          16 75 -133 17 -13 18 18 89 rlinecurve
          79 callsubr
          rlineto
          133 -15 13 -20 -19 -89 -222 -1046 rcurveline
          -19 -88 -21 -19 -140 -17 -16 -75 rcurveline
          268 104 callgsubr
          endchar
        </CharString>
        <CharString name="Iotadieresisgreek">
          705 131 callsubr
        </CharString>
        <CharString name="Iotagreek">
          705 539 199 -91 callsubr
        </CharString>
        <CharString name="Iotatonosgreek">
          1082 916 199 44 callgsubr
          132 -15 14 -7 callgsubr
          -538 1245 -72 callgsubr
          endchar
        </CharString>
        <CharString name="Itilde">
          705 812 1589 rmoveto
          84 66 58 195 22 hvcurveto
          -73 hlineto
          -88 -15 -24 -25 -33 hhcurveto
          -24 -20 11 22 -25 hvcurveto
          -26 21 rlineto
          30 -39 -39 18 -49 hhcurveto
          -83 -67 -58 -194 -22 hvcurveto
          74 hlineto
          88 14 24 24 33 hhcurveto
          24 20 -11 -21 25 hvcurveto
          26 -22 rlineto
          -30 39 39 -18 49 hhcurveto
          -273 -1390 -91 callsubr
        </CharString>
        <CharString name="Itildebelow">
          705 539 199 rmoveto
          79 callsubr
          133 -15 13 -20 -19 -89 rlinecurve
          46 callsubr
          -59 callgsubr
          -140 -629 118 callsubr
          -16 -27 -29 -38 hhcurveto
          -27 -22 13 24 -30 hvcurveto
          -31 25 rlineto
          34 160 callsubr
        </CharString>
        <CharString name="J">
          707 553 262 72 callsubr
        </CharString>
        <CharString name="Jacute">
          707 783 -94 callsubr
          -54 callsubr
          -485 -1579 72 callsubr
        </CharString>
        <CharString name="Jcircumflex">
          707 491 -57 callsubr
          -42 callsubr
          147 -1289 72 callsubr
        </CharString>
        <CharString name="Jecyrillic">
          707 553 262 72 callsubr
        </CharString>
        <CharString name="K">
          1391 540 199 -16 callsubr
        </CharString>
        <CharString name="Kaacutecyrillic">
          1390 1209 1 callsubr
          12 callsubr
          -925 -1642 -16 callsubr
        </CharString>
        <CharString name="Kacute">
          1390 1209 1 callsubr
          12 callsubr
          -925 -1642 -16 callsubr
        </CharString>
        <CharString name="Kacyrillic">
          1390 540 199 -16 callsubr
        </CharString>
        <CharString name="Kappagreek">
          1390 540 199 -16 callsubr
        </CharString>
        <CharString name="Kcaron">
          1390 1353 -72 callsubr
          -90 callgsubr
          -902 -1661 -16 callsubr
        </CharString>
        <CharString name="Kcommaaccent">
          127 callsubr
          175 -674 rmoveto
          158 96 69 115 108 -80 66 -98 -69 -56 -24 -41 -41 hvcurveto
          -14 -20 callsubr
          -27 callsubr
          107 callsubr
        </CharString>
        <CharString name="Kdotbelow">
          127 callsubr
          209 -376 -92 callsubr
          50 -51 115 callsubr
        </CharString>
        <CharString name="Klinebelow">
          127 callsubr
          -82 -565 113 callsubr
        </CharString>
        <CharString name="L">
          -7 callsubr
          endchar
        </CharString>
        <CharString name="Lacute">
          1171 788 1 callsubr
          12 callsubr
          61 -1841 rmoveto
          -33 callsubr
          -14 callsubr
          endchar
        </CharString>
        <CharString name="Lambdagreek">
          1422 1278 252 rmoveto
          -159 1194 -206 0 -652 -1173 -88 -159 -30 -23 -124 -16 rlinecurve
          -16 -75 445 0 16 75 -154 21 -11 27 102 190 rlinecurve
          468 873 107 -933 14 -129 -20 -31 -151 -18 rlinecurve
          -16 -75 615 0 16 75 -115 14 -24 27 -17 136 rlinecurve
          endchar
        </CharString>
        <CharString name="Lcaron">
          1171 1138 1107 rmoveto
          274 425 -216 0 -134 -425 rlineto
          43 -1107 rmoveto
          -33 callsubr
          -14 callsubr
          endchar
        </CharString>
        <CharString name="Lcircumflexbelow">
          -7 callsubr
          264 -466 56 callsubr
          37 callsubr
        </CharString>
        <CharString name="Lcommaaccent">
          -7 callsubr
          456 -475 -73 callsubr
          -11 callsubr
        </CharString>
        <CharString name="Ldot">
          -7 callsubr
          1023 700 rmoveto
          83 66 65 82 76 -58 59 -80 -82 -67 -65 -82 -76 59 -59 79 hvcurveto
          endchar
        </CharString>
        <CharString name="Ldotbelow">
          -7 callsubr
          491 -177 49 callsubr
          7 callsubr
        </CharString>
        <CharString name="Ldotbelowmacron">
          1171 430 -40 callsubr
          15 callsubr
          645 -1760 rmoveto
          -33 callsubr
          -14 callsubr
          491 -177 49 callsubr
          7 callsubr
        </CharString>
        <CharString name="Ljecyrillic">
          2074 48 129 rmoveto
          -91 62 -66 103 211 113 218 498 133 vhcurveto
          72 266 48 192 46 203 rrcurveto
          425 hlineto
          -244 -1151 rlineto
          -19 -88 -23 -17 -152 -18 -16 -75 rcurveline
          620 hlineto
          425 290 194 301 223 -177 157 -360 hvcurveto
          -155 hlineto
          79 371 19 89 25 16 144 18 rlinecurve
          16 75 -1177 226 callsubr
          hvcurveto
          1788 374 -52 callgsubr
          147 694 109 -1 rlineto
          188 -1 109 -93 -184 vvcurveto
          endchar
        </CharString>
        <CharString name="Llinebelow">
          -7 callsubr
          200 -366 -45 callsubr
        </CharString>
        <CharString name="Lslash">
          1171 185 619 rmoveto
          164 45 -98 -465 -19 -88 -21 -18 -140 -18 rlinecurve
          -16 -75 1050 0 -33 callsubr
          140 661 356 98 21 93 -358 -98 86 404 19 88 22 19 149 17 rlinecurve
          15 75 -605 0 -16 -75 132 -16 13 -21 -19 -94 rlinecurve
          -103 -481 -163 -45 rlineto
          endchar
        </CharString>
        <CharString name="M">
          1816 837 1444 20 callsubr
        </CharString>
        <CharString name="Macute">
          1816 1351 -94 callsubr
          -80 callsubr
          -769 -397 20 callsubr
        </CharString>
        <CharString name="Mdotaccent">
          1816 1269 -71 callsubr
          -56 callsubr
          -432 -132 20 callsubr
        </CharString>
        <CharString name="Mdotbelow">
          1816 837 1444 rmoveto
          -460 hlineto
          -16 -75 126 -17 14 -33 -26 -111 rlinecurve
          -226 -958 -31 -126 -25 -30 -137 -19 rlinecurve
          -16 -75 429 0 16 75 -134 19 -11 28 28 128 rlinecurve
          203 958 181 -1208 141 0 189 352 485 861 -192 -1017 -16 -86 -22 -19 -141 -16 rlinecurve
          -16 -75 -14 callgsubr
          -227 -544 -92 callsubr
          97 callsubr
        </CharString>
        <CharString name="Mugreek">
          1816 837 1444 20 callsubr
        </CharString>
        <CharString name="N">
          1497 764 1444 62 callsubr
          endchar
        </CharString>
        <CharString name="Nacute">
          1497 1165 -94 callsubr
          -80 callsubr
          -656 -397 62 callsubr
          endchar
        </CharString>
        <CharString name="Ncaron">
          1497 1309 -72 callsubr
          -22 callsubr
          -634 -416 62 callsubr
          endchar
        </CharString>
        <CharString name="Ncircumflexbelow">
          96 callsubr
          -822 -778 rmoveto
          232 -91 callgsubr
          37 callsubr
        </CharString>
        <CharString name="Ncommaaccent">
          96 callsubr
          -629 -787 -73 callsubr
          -75 callgsubr
          -42 17 18 107 callsubr
        </CharString>
        <CharString name="Ndotaccent">
          1497 1083 -71 callsubr
          -56 callsubr
          -319 -132 62 callsubr
          endchar
        </CharString>
        <CharString name="Ndotbelow">
          96 callsubr
          -595 -489 -50 callgsubr
        </CharString>
        <CharString name="Ngrave">
          1497 1033 -49 callgsubr
          -370 -107 62 callsubr
          endchar
        </CharString>
        <CharString name="Njecyrillic">
          2162 555 199 rmoveto
          112 530 552 0 -113 -530 rlineto
          -19 -90 -21 -16 -140 -18 -15 -75 rcurveline
          605 hlineto
          424 290 184 284 211 -177 148 -360 hvcurveto
          -165 hlineto
          89 419 19 89 26 16 143 18 rlinecurve
          16 75 -604 0 -16 -75 129 -17 17 -17 -19 -90 rlinecurve
          -89 -418 -551 0 89 418 146 callsubr
          -138 -18 rlinecurve
          -16 -75 592 0 16 75 -125 17 -18 17 19 90 rlinecurve
          1369 276 rmoveto
          -212 -155 -161 -296 -10 vhcurveto
          -102 -4 138 645 117 -1 rlineto
          190 -1 108 -85 -171 vvcurveto
          endchar
        </CharString>
        <CharString name="Nlinebelow">
          96 callsubr
          -885 -678 -45 callsubr
        </CharString>
        <CharString name="Ntilde">
          1497 1187 135 callsubr
          26 -22 rlineto
          -30 38 39 -19 49 hhcurveto
          -423 -144 62 callsubr
          endchar
        </CharString>
        <CharString name="Nugreek">
          1497 764 1444 62 callsubr
          endchar
        </CharString>
        <CharString name="O">
          1605 894 -24 -103 callsubr
        </CharString>
        <CharString name="OE">
          2027 250 650 rmoveto
          -389 262 -288 407 vhcurveto
          136 78 27 142 hhcurveto
          672 hlineto
          102 414 rlineto
          -65 hlineto
          -106 -254 -90 -53 -258 -11 rrcurveto
          -227 -9 129 605 226 -2 90 -2 19 -36 -7 -165 rlinecurve
          65 hlineto
          106 497 rlineto
          -65 hlineto
          -65 -163 -33 -33 -90 -2 rrcurveto
          -226 -2 121 573 210 -9 242 -11 36 -47 10 -222 rlinecurve
          66 hlineto
          67 376 rlineto
          -745 hlineto
          -139 -79 27 -155 hhcurveto
          -504 -332 -361 -460 hvcurveto
          306 -57 rmoveto
          382 199 395 368 68 54 -9 -17 37 vhcurveto
          -267 -1262 rlineto
          -6 -23 -23 -2 -24 hhcurveto
          -254 -135 211 308 hvcurveto
          endchar
        </CharString>
        <CharString name="Oacute">
          1605 1185 -94 callsubr
          -80 callsubr
          -546 -1865 -103 callsubr
        </CharString>
        <CharString name="Obreve">
          1605 1116 0 callsubr
          6 hvcurveto
          -74 hlineto
          -96 -18 13 callgsubr
          2 102 -93 146 hhcurveto
          -222 -1603 -103 callsubr
        </CharString>
        <CharString name="Ocaron">
          1605 1329 -72 callsubr
          -22 callsubr
          -524 -1884 -103 callsubr
        </CharString>
        <CharString name="Ocircumflex">
          1605 894 -57 callsubr
          -163 0 -248 -290 rlineto
          86 -1575 -103 callsubr
        </CharString>
        <CharString name="Ocircumflexacute">
          1605 1434 1835 119 callsubr
          -55 -261 rmoveto
          317 88 280 -88 14 67 -239 -96 callgsubr
          115 -1585 -103 callsubr
        </CharString>
        <CharString name="Ocircumflexdotbelow">
          1605 894 -57 callsubr
          -163 0 -248 -290 rlineto
          86 -1575 rmoveto
          470 307 390 440 374 88 callsubr
          -84 callgsubr
          50 callgsubr
          -71 -257 -50 callgsubr
        </CharString>
        <CharString name="Ocircumflexgrave">
          1605 837 1835 -30 callgsubr
          -100 -480 rmoveto
          317 88 280 -88 14 67 -239 -96 callgsubr
          115 -1585 -103 callsubr
        </CharString>
        <CharString name="Ocircumflexhookabove">
          1605 1408 1942 rmoveto
          -77 -71 -28 -32 -44 hvcurveto
          -12 -53 rlineto
          14 28 51 12 45 hhcurveto
          66 31 -23 -35 -7 hvcurveto
          -8 -34 -39 -74 callgsubr
          15 -78 43 -104 hhcurveto
          -643 -448 rmoveto
          317 88 280 -88 14 67 -239 -96 callgsubr
          115 -1585 -103 callsubr
        </CharString>
        <CharString name="Ocircumflextilde">
          1605 1250 1781 -82 callgsubr
          -10 -30 -19 -45 hhcurveto
          -27 -27 6 13 -37 hvcurveto
          -31 10 rlineto
          15 -42 -42 10 -50 hhcurveto
          -102 94 callsubr
          -11 rlineto
          -14 43 41 -10 50 hhcurveto
          -485 -287 rmoveto
          317 88 280 -88 14 67 -239 -96 callgsubr
          115 -1585 -103 callsubr
        </CharString>
        <CharString name="Ocyrillic">
          1605 894 -24 -103 callsubr
        </CharString>
        <CharString name="Odblgrave">
          1605 915 1840 69 callsubr
          -349 -1574 -103 callsubr
        </CharString>
        <CharString name="Odieresis">
          1605 937 1584 rmoveto
          63 53 52 65 1 hvcurveto
          104 callsubr
          vhcurveto
          331 hmoveto
          64 53 52 65 34 callsubr
          -374 -1608 -103 callsubr
        </CharString>
        <CharString name="Odieresismacron">
          59 callgsubr
          49 -385 rmoveto
          56 51 36 50 10 hvcurveto
          49 12 -37 37 -55 hhcurveto
          -11 hlineto
          -56 -51 -20 callgsubr
          340 hmoveto
          43 callsubr
          -56 hhcurveto
          -11 hlineto
          -55 -51 -37 -49 -12 hvcurveto
          -50 -10 36 -36 56 hhcurveto
          -332 -1577 -103 callsubr
        </CharString>
        <CharString name="Odotaccent">
          1605 1103 -71 callsubr
          -58 -55 -71 -64 51 -50 68 hvcurveto
          -209 -1600 -103 callsubr
        </CharString>
        <CharString name="Odotaccentmacron">
          1605 831 1806 rmoveto
          598 hlineto
          23 108 rlineto
          -599 hlineto
          244 -367 rmoveto
          59 45 39 53 hvcurveto
          52 -1 -49 40 -59 hhcurveto
          -59 -45 -40 -52 1 hvcurveto
          -53 48 -39 60 vhcurveto
          -203 -1571 -103 callsubr
        </CharString>
        <CharString name="Odotbelow">
          1605 894 -24 rmoveto
          470 307 390 440 374 88 callsubr
          -84 callgsubr
          50 callgsubr
          -71 -257 -50 callgsubr
        </CharString>
        <CharString name="Ograve">
          1605 1053 -49 callgsubr
          -260 -1575 -103 callsubr
        </CharString>
        <CharString name="Ohookabove">
          1605 1138 158 callsubr
          34 -26 -43 -50 -54 -50 -89 -51 hvcurveto
          246 callsubr
          -244 -1904 -103 callsubr
        </CharString>
        <CharString name="Ohorn">
          1623 241 637 31 callsubr
        </CharString>
        <CharString name="Ohornacute">
          1623 1186 -94 callsubr
          -80 callsubr
          -1200 -1204 31 callsubr
        </CharString>
        <CharString name="Ohorndotbelow">
          1623 241 637 rmoveto
          -373 -1 244 -288 410 hhcurveto
          185 callsubr
          264 -724 -92 callsubr
          97 callsubr
        </CharString>
        <CharString name="Ohorngrave">
          1623 1054 9 callsubr
          13 callsubr
          -913 -914 31 callsubr
        </CharString>
        <CharString name="Ohornhookabove">
          1623 1139 158 callsubr
          33 -26 -43 -50 -53 -50 -89 -51 hvcurveto
          246 callsubr
          -898 -1243 31 callsubr
        </CharString>
        <CharString name="Ohorntilde">
          1623 1208 -69 callgsubr
          -967 -951 31 callsubr
        </CharString>
        <CharString name="Ohungarumlaut">
          1605 1010 1841 rmoveto
          -116 -290 78 0 236 284 rlineto
          6 vlineto
          121 hmoveto
          -181 -290 82 0 317 284 rlineto
          6 vlineto
          -653 -1865 -103 callsubr
        </CharString>
        <CharString name="Oinvertedbreve">
          1605 1111 70 callgsubr
          73 56 119 hhcurveto
          100 67 -54 -72 -10 -1 -9 -1 -7 hvcurveto
          74 hlineto
          10 26 7 33 32 vvcurveto
          125 -1 -102 94 -147 hhcurveto
          -217 -1913 -103 callsubr
        </CharString>
        <CharString name="Omacron">
          46 callgsubr
          37 -1784 -103 callsubr
        </CharString>
        <CharString name="Omacronacute">
          1605 1439 1856 rmoveto
          30 139 -631 -155 -14 -64 rlineto
          -40 -191 rmoveto
          598 hlineto
          23 109 rlineto
          -599 hlineto
          88 -1718 -103 callsubr
        </CharString>
        <CharString name="Omacrongrave">
          1605 841 1856 rmoveto
          582 -80 13 64 -566 155 rlineto
          -86 -410 rmoveto
          598 hlineto
          23 109 rlineto
          -599 hlineto
          88 -1718 -103 callsubr
        </CharString>
        <CharString name="Omegagreek">
          1682 142 hmoveto
          600 hlineto
          62 296 -157 70 -90 143 4 195 callsubr
          4 322 -263 228 callsubr
          endchar
        </CharString>
        <CharString name="Omegatonosgreek">
          1902 362 hmoveto
          600 hlineto
          62 296 -157 70 -91 143 5 195 callsubr
          3 322 -262 228 callsubr
          -17 1093 -72 callgsubr
          endchar
        </CharString>
        <CharString name="Omicrongreek">
          1605 894 -24 -103 callsubr
        </CharString>
        <CharString name="Omicrontonosgreek">
          1802 1091 -24 rmoveto
          471 306 390 440 374 -243 288 -409 -471 -304 -390 -440 -2 -84 callgsubr
          409 hhcurveto
          -713 1468 -72 callgsubr
          428 -1364 rmoveto
          -195 -129 155 312 397 192 420 297 195 129 -154 -313 -411 -200 -406 -289 hvcurveto
          endchar
        </CharString>
        <CharString name="Oogonek">
          1605 813 -482 69 callgsubr
          191 callsubr
        </CharString>
        <CharString name="Oogonekmacron">
          46 callgsubr
          -44 -2242 69 callgsubr
          191 callsubr
        </CharString>
        <CharString name="Oslash">
          1605 894 -24 176 callsubr
        </CharString>
        <CharString name="Oslashacute">
          1605 1185 -94 callsubr
          -80 callsubr
          -546 -1865 176 callsubr
        </CharString>
        <CharString name="Otilde">
          1605 1207 135 callsubr
          26 -22 rlineto
          -30 38 39 -19 49 hhcurveto
          -313 -1612 -103 callsubr
        </CharString>
        <CharString name="Otildeacute">
          1605 1439 -70 callgsubr
          378 -219 rmoveto
          102 85 -89 callgsubr
          -10 -31 -19 -43 -8 callsubr
          -86 -21 callsubr
          106 callsubr
          10 callsubr
          -308 -1580 -103 callsubr
        </CharString>
        <CharString name="Otildedieresis">
          1605 960 82 callgsubr
          -11 hlineto
          -56 -51 -36 -50 -10 hvcurveto
          -49 -11 36 -36 55 hhcurveto
          340 hmoveto
          55 52 36 163 callsubr
          -11 36 -36 56 hhcurveto
          -76 -243 rmoveto
          102 85 -89 callgsubr
          -10 -31 -19 -43 -8 callsubr
          -86 -21 callsubr
          106 callsubr
          10 callsubr
          -308 -1580 -103 callsubr
        </CharString>
        <CharString name="Otildemacron">
          59 callgsubr
          343 -382 rmoveto
          102 85 -89 callgsubr
          -10 -31 -19 -43 -8 callsubr
          -86 -21 callsubr
          106 callsubr
          10 callsubr
          -308 -1580 -103 callsubr
        </CharString>
        <CharString name="P">
          1334 673 hmoveto
          18 callsubr
        </CharString>
        <CharString name="Pacute">
          1334 1068 -94 callsubr
          81 0 383 282 rlineto
          8 vlineto
          -650 -1841 rmoveto
          18 callsubr
        </CharString>
        <CharString name="Pdotaccent">
          1334 985 1576 rmoveto
          69 58 55 70 65 -50 50 -68 -70 -56 callsubr
          -312 -1576 rmoveto
          18 callsubr
        </CharString>
        <CharString name="Pecyrillic">
          1589 1419 199 rmoveto
          222 1046 20 92 24 16 136 16 rlinecurve
          16 75 -1478 0 -16 -75 131 -18 17 -16 -20 -90 rlinecurve
          -222 -1046 -19 -90 -22 -16 -140 -18 rlinecurve
          -16 -75 593 0 15 75 -123 16 -18 18 19 90 rlinecurve
          245 1150 592 0 -244 -1150 -20 -92 -21 -15 -136 -17 rlinecurve
          -16 -75 593 0 15 75 -127 16 -19 17 19 91 rlinecurve
          endchar
        </CharString>
        <CharString name="Phigreek">
          1835 238 713 rmoveto
          -35 -309 219 -172 413 -19 rrcurveto
          -4 -22 -19 -87 -21 -21 -130 -15 rlinecurve
          -15 -71 543 0 15 71 rlineto
          -124 15 -13 21 18 87 4 20 rcurveline
          470 11 308 180 35 330 34 311 -232 169 -400 19 rrcurveto
          4 20 18 87 22 21 130 15 rlinecurve
          14 70 -543 0 -14 -70 124 -15 13 -21 -18 -87 rlinecurve
          -4 -18 -456 -10 -321 -176 -35 -334 rlinecurve
          307 -2 rmoveto
          25 248 150 177 311 8 rrcurveto
          -177 -840 -240 23 -96 147 27 237 rlinecurve
          1051 25 rmoveto
          -27 -252 -149 -176 -312 -7 rrcurveto
          177 839 241 -24 95 -146 -25 -234 rlinecurve
          endchar
        </CharString>
        <CharString name="Pigreek">
          1627 1447 200 rmoveto
          221 1043 19 90 25 19 146 17 rlinecurve
          16 75 -1508 0 -16 -75 141 -18 16 -17 -19 -90 rlinecurve
          -222 -1045 -19 -89 -24 -17 -147 -18 rlinecurve
          -16 -76 613 0 16 76 -135 17 -18 18 19 89 rlinecurve
          244 1149 601 0 -242 -1148 -19 -90 -22 -17 -145 -18 rlinecurve
          -16 -75 612 0 16 75 -140 17 -17 18 20 90 rlinecurve
          endchar
        </CharString>
        <CharString name="Psigreek">
          1801 584 hmoveto
          613 hlineto
          16 75 rlineto
          -150 17 -16 20 19 87 63 301 rcurveline
          343 14 188 122 132 361 73 201 rcurveline
          45 125 34 29 95 7 16 76 rcurveline
          4 -29 -56 5 -57 hhcurveto
          -163 -81 -46 -190 -68 hvcurveto
          -78 -213 -96 -266 -90 -111 -187 -23 rlinecurve
          137 649 19 89 21 20 122 16 rlinecurve
          16 75 -538 0 -16 -75 rlineto
          115 -16 13 -20 -20 -89 -137 -649 rcurveline
          -177 23 -41 111 17 266 14 203 rcurveline
          190 11 -63 56 -168 hhcurveto
          -52 -60 -5 -4 -31 hvcurveto
          -16 -76 93 -7 26 -29 -8 -125 rlinecurve
          -13 -201 -23 -360 133 -123 338 -14 rlinecurve
          -64 -301 -19 -87 -23 -21 -156 -16 rlinecurve
          endchar
        </CharString>
        <CharString name="Q">
          1613 1289 -386 rmoveto
          94 86 23 35 63 hvcurveto
          14 69 rlineto
          -125 -2 -80 30 -147 133 -107 97 rcurveline
          359 90 225 341 376 vvcurveto
          374 88 callsubr
          vhcurveto
          -1 -325 184 -259 315 -64 170 -171 rcurveline
          -160 159 102 -45 119 hhcurveto
          -415 466 232 callsubr
        </CharString>
        <CharString name="R">
          1392 1061 hmoveto
          17 callsubr
          endchar
        </CharString>
        <CharString name="Racute">
          1392 1069 -94 callsubr
          -80 callsubr
          -263 -1841 rmoveto
          17 callsubr
          endchar
        </CharString>
        <CharString name="Rcaron">
          1392 1213 -3 callsubr
          -26 callsubr
          -241 -1860 rmoveto
          17 callsubr
          endchar
        </CharString>
        <CharString name="Rcommaaccent">
          1392 1061 hmoveto
          17 callsubr
          -475 -1547 -73 callsubr
          -14 -20 callsubr
          -27 callsubr
          -41 callgsubr
        </CharString>
        <CharString name="Rdblgrave">
          1392 799 1840 69 callsubr
          -66 -1550 rmoveto
          17 callsubr
          endchar
        </CharString>
        <CharString name="Rdotaccent">
          1392 986 77 callsubr
          75 -1576 rmoveto
          17 callsubr
          endchar
        </CharString>
        <CharString name="Rdotbelow">
          1392 1061 hmoveto
          17 callsubr
          -440 -1249 -92 callsubr
          -29 callsubr
        </CharString>
        <CharString name="Rdotbelowmacron">
          1392 710 -48 callgsubr
          320 -1760 rmoveto
          17 callsubr
          -440 -1249 -92 callsubr
          -29 callsubr
        </CharString>
        <CharString name="Rhogreek">
          1334 673 hmoveto
          18 callsubr
        </CharString>
        <CharString name="Rinvertedbreve">
          1392 995 1889 rmoveto
          -177 -107 102 callsubr
          123 callsubr
          161 callsubr
          66 -1889 rmoveto
          17 callsubr
          endchar
        </CharString>
        <CharString name="Rlinebelow">
          1392 1061 hmoveto
          17 callsubr
          -731 -1438 113 callsubr
        </CharString>
        <CharString name="S">
          1152 599 -28 59 callsubr
          endchar
        </CharString>
        <CharString name="Sacute">
          1152 997 -94 callsubr
          -80 callsubr
          -653 -1869 59 callsubr
          endchar
        </CharString>
        <CharString name="Sacutedotaccent">
          1152 954 1764 rmoveto
          60 45 39 53 -1 hvcurveto
          53 -1 -48 39 -59 hhcurveto
          -59 -45 -39 -53 hvcurveto
          -53 1 48 -39 59 hhcurveto
          246 -146 rmoveto
          30 139 -631 -154 -14 -65 rlineto
          14 -1566 59 callsubr
          endchar
        </CharString>
        <CharString name="Scaron">
          1152 1141 -72 callsubr
          -22 callsubr
          -631 -1888 59 callsubr
          endchar
        </CharString>
        <CharString name="Scarondotaccent">
          1152 959 1785 234 callsubr
          281 -17 rmoveto
          -325 -88 -287 88 -14 -66 247 -158 53 0 313 158 rlineto
          -628 -1730 59 callsubr
          endchar
        </CharString>
        <CharString name="Scedilla">
          1152 486 -476 rmoveto
          -27 callgsubr
          rlineto
          294 8 237 173 271 vvcurveto
          163 -79 120 -184 119 vhcurveto
          -90 61 rlineto
          -138 89 -53 75 99 vvcurveto
          131 106 85 151 181 108 -117 -224 11 vhcurveto
          67 hlineto
          52 332 rlineto
          61 -76 -162 54 -186 hhcurveto
          -334 -196 -181 -243 -164 87 -117 181 -117 hvcurveto
          90 -60 rlineto
          139 -91 47 -77 -107 vvcurveto
          -150 -126 -87 -153 -189 -139 115 231 -6 vhcurveto
          -67 hlineto
          -55 -338 73 -53 157 -46 158 -12 rlinecurve
          -113 -123 71 callsubr
          endchar
        </CharString>
        <CharString name="Schwa">
          1510 779 -28 rmoveto
          457 309 364 453 412 -242 270 -415 -170 -172 -42 -68 -104 hvcurveto
          -77 -341 rlineto
          69 hlineto
          245 103 157 101 180 hhcurveto
          251 107 -213 -314 -47 -2 -46 -4 -44 hvcurveto
          -978 hlineto
          -22 -67 -13 -75 -71 vvcurveto
          -272 161 -245 405 vhcurveto
          -296 456 rmoveto
          62 7 64 14 53 vhcurveto
          711 1 rlineto
          -319 -49 -154 -216 -232 hhcurveto
          -203 -94 149 206 hvcurveto
          endchar
        </CharString>
        <CharString name="Scircumflex">
          1152 706 -61 callgsubr
          -22 -1579 59 callsubr
          endchar
        </CharString>
        <CharString name="Scommaaccent">
          1152 599 -28 59 callsubr
          -116 -447 -73 callsubr
          -11 callsubr
        </CharString>
        <CharString name="Sdotaccent">
          1152 915 -71 callsubr
          -56 callsubr
          -316 -1604 59 callsubr
          endchar
        </CharString>
        <CharString name="Sdotbelow">
          1152 599 -28 59 callsubr
          -81 -149 49 callsubr
          7 callsubr
        </CharString>
        <CharString name="Sdotbelowdotaccent">
          1152 915 -71 callsubr
          -56 callsubr
          -316 -1604 59 callsubr
          -81 -149 49 callsubr
          7 callsubr
        </CharString>
        <CharString name="Shacyrillic">
          2325 470 1245 rmoveto
          -222 -1046 -19 -92 -25 -16 -136 -16 rlinecurve
          -16 -75 2211 0 16 75 -129 17 -17 17 19 90 rlinecurve
          222 1046 113 callgsubr
          206 callsubr
        </CharString>
        <CharString name="Shchacyrillic">
          2340 156 callsubr
          1889 hlineto
          198 20 -47 -268 18 hvcurveto
          81 hlineto
          74 411 -202 0 244 1149 113 callgsubr
          206 callsubr
        </CharString>
        <CharString name="Sigmagreek">
          238 callsubr
          -71 360 -676 -608 -625 -15 -72 1121 0 114 464 rlineto
          -76 hlineto
          -230 -99 -78 -34 -276 hhcurveto
          -422 hlineto
          587 595 5 27 -283 536 356 -9 254 -7 48 -52 6 -214 rlinecurve
          69 hlineto
          endchar
        </CharString>
        <CharString name="Softsigncyrillic">
          1304 213 callsubr
          -307 8 -52 callgsubr
          64 callgsubr
        </CharString>
        <CharString name="T">
          -38 callsubr
          endchar
        </CharString>
        <CharString name="Taugreek">
          -38 callsubr
          endchar
        </CharString>
        <CharString name="Tbar">
          1331 401 697 rmoveto
          268 hlineto
          -106 -499 -18 -87 -24 -19 -157 -17 rlinecurve
          -16 -75 636 -33 callgsubr
          106 499 270 0 18 86 -269 0 121 574 49 -2 243 -12 58 -47 -4 -228 rlinecurve
          68 hlineto
          67 376 -1214 0 30 callsubr
          -122 -574 rlineto
          -268 hlineto
          endchar
        </CharString>
        <CharString name="Tcaron">
          1331 1248 -72 callsubr
          -22 callsubr
          242 -416 rmoveto
          -1214 hlineto
          30 callsubr
          87 callsubr
          636 -33 callgsubr
          81 callsubr
          endchar
        </CharString>
        <CharString name="Tcedilla">
          1331 577 39 callgsubr
          250 vlineto
          16 75 -151 18 -15 18 18 87 rlinecurve
          81 callsubr
          67 376 -1214 0 30 callsubr
          87 callsubr
          290 38 callgsubr
          251 callsubr
          87 hhcurveto
          endchar
        </CharString>
        <CharString name="Tcircumflexbelow">
          -38 callsubr
          -1131 -1534 rmoveto
          232 -91 callgsubr
          37 callsubr
        </CharString>
        <CharString name="Tcommaaccent">
          -38 callsubr
          -938 -1543 -73 callsubr
          -75 callgsubr
          -41 17 18 -31 hvcurveto
          -15 -66 rlineto
          -36 38 66 -26 77 hhcurveto
          endchar
        </CharString>
        <CharString name="Tdotaccent">
          1331 1022 -71 callsubr
          -56 callsubr
          557 -132 rmoveto
          -1214 hlineto
          30 callsubr
          87 callsubr
          636 -33 callgsubr
          81 callsubr
          endchar
        </CharString>
        <CharString name="Tdotbelow">
          -38 callsubr
          -903 -1245 -92 callsubr
          8 callsubr
        </CharString>
        <CharString name="Tecyrillic">
          -38 callsubr
          endchar
        </CharString>
        <CharString name="Thetagreek">
          1664 899 -28 rmoveto
          456 344 373 444 15 hvcurveto
          15 389 -244 295 -419 -1 -456 -2 -343 -372 -15 -444 rrcurveto
          -389 -15 244 -293 418 hhcurveto
          10 96 rmoveto
          -241 -121 216 339 15 hvcurveto
          383 16 162 370 316 hhcurveto
          244 120 -215 -341 -16 hvcurveto
          -384 -16 -164 -368 -315 hhcurveto
          -272 401 rmoveto
          61 hlineto
          154 57 39 41 83 hhcurveto
          170 hlineto
          83 22 -41 -154 -9 hvcurveto
          61 hlineto
          104 489 rlineto
          -61 hlineto
          -155 -61 -37 -37 -80 hhcurveto
          -171 hlineto
          -80 -21 37 155 5 hvcurveto
          -60 hlineto
          endchar
        </CharString>
        <CharString name="Thorn">
          1349 256 198 rmoveto
          -20 -90 -21 -16 -139 -17 rrcurveto
          -15 -75 595 0 15 75 rlineto
          -126 16 -19 17 19 90 27 131 rcurveline
          162 hlineto
          365 317 154 288 227 -188 139 -330 hvcurveto
          -154 hlineto
          23 108 19 90 24 16 136 17 rlinecurve
          16 76 -595 0 -16 -76 129 -17 17 -16 -20 -90 rlinecurve
          635 -461 rmoveto
          1 -179 -112 -176 -303 -10 rrcurveto
          -107 -3 134 634 107 -3 rlineto
          175 -6 105 -105 -152 vvcurveto
          endchar
        </CharString>
        <CharString name="Tlinebelow">
          -38 callsubr
          -1194 -1434 -45 callsubr
        </CharString>
        <CharString name="Tsecyrillic">
          1606 156 callsubr
          1156 hlineto
          199 20 -47 -268 18 hvcurveto
          81 hlineto
          74 411 -204 0 244 1149 113 callgsubr
          18 -18 -19 -90 rlinecurve
          -245 -1149 -592 148 callsubr
        </CharString>
        <CharString name="Tshecyrillic">
          1821 1588 1444 rmoveto
          -1225 hlineto
          219 callsubr
          489 rcurveline
          19 69 73 11 86 hhcurveto
          210 77 -117 -230 -49 hvcurveto
          -79 -370 443 0 16 75 rlineto
          -130 15 -15 18 18 89 33 158 rcurveline
          319 65 -160 153 -359 hhcurveto
          -113 -85 -17 -23 -79 hvcurveto
          76 callgsubr
          endchar
        </CharString>
        <CharString name="U">
          1499 786 -28 -96 callsubr
        </CharString>
        <CharString name="Uacute">
          1499 1233 -94 callsubr
          -54 callsubr
          -702 -1869 -96 callsubr
        </CharString>
        <CharString name="Ubreve">
          1499 1164 71 callgsubr
          -68 55 71 10 0 10 2 6 175 callsubr
          -378 -1607 -96 callsubr
        </CharString>
        <CharString name="Ubrevecyrillic">
          1443 1121 1584 101 callgsubr
          243 callsubr
          32 40 92 callgsubr
          -889 -1461 184 callsubr
        </CharString>
        <CharString name="Ucaron">
          1499 1376 -72 callsubr
          -90 callgsubr
          -679 -1888 -96 callsubr
        </CharString>
        <CharString name="Ucircumflex">
          1499 941 -57 callsubr
          -42 callsubr
          -70 -1579 -96 callsubr
        </CharString>
        <CharString name="Ucircumflexbelow">
          83 callsubr
          -279 -438 35 callsubr
          -98 callgsubr
        </CharString>
        <CharString name="Ucyrillic">
          1443 232 123 184 callsubr
        </CharString>
        <CharString name="Udblgrave">
          1499 962 1840 -40 callgsubr
          221 -46 callgsubr
          68 hlineto
          -504 -1578 -96 callsubr
        </CharString>
        <CharString name="Udieresis">
          1499 984 -58 callsubr
          47 callsubr
          -55 callsubr
          47 callsubr
          -530 -1612 -96 callsubr
        </CharString>
        <CharString name="Udieresisacute">
          1499 1486 236 callsubr
          84 -222 rmoveto
          43 callsubr
          33 callsubr
          339 hmoveto
          14 callsubr
          -47 callsubr
          -487 -1581 -96 callsubr
        </CharString>
        <CharString name="Udieresisbelow">
          83 callsubr
          -259 -388 rmoveto
          35 callgsubr
          399 hmoveto
          35 callgsubr
          endchar
        </CharString>
        <CharString name="Udieresiscaron">
          1499 1516 1993 rmoveto
          -317 -85 -280 85 -14 -65 241 -151 52 0 305 151 rlineto
          -547 -375 rmoveto
          43 callsubr
          33 callsubr
          339 hmoveto
          14 callsubr
          -47 callsubr
          -487 -1581 -96 callsubr
        </CharString>
        <CharString name="Udieresisgrave">
          1499 889 -71 callgsubr
          39 -442 rmoveto
          43 callsubr
          33 callsubr
          339 hmoveto
          14 callsubr
          -47 callsubr
          -487 -1581 -96 callsubr
        </CharString>
        <CharString name="Udieresismacron">
          1499 884 1831 rmoveto
          598 hlineto
          23 107 rlineto
          -599 hlineto
          50 -385 rmoveto
          43 callsubr
          33 callsubr
          339 hmoveto
          14 callsubr
          -47 callsubr
          -487 -1581 -96 callsubr
        </CharString>
        <CharString name="Udotbelow">
          83 callsubr
          -52 -149 rmoveto
          -69 -58 -56 -69 -64 50 -51 115 callsubr
        </CharString>
        <CharString name="Ugrave">
          1499 1101 9 callsubr
          263 -281 rlineto
          71 hlineto
          -415 -1579 -96 callsubr
        </CharString>
        <CharString name="Uhookabove">
          1499 1185 140 callsubr
          -399 -1908 -96 callsubr
        </CharString>
        <CharString name="Uhorn">
          1601 313 607 23 callsubr
        </CharString>
        <CharString name="Uhornacute">
          1601 1235 -94 callsubr
          -54 callsubr
          -1177 -1234 23 callsubr
        </CharString>
        <CharString name="Uhorndotbelow">
          1601 313 607 rmoveto
          -432 -92 244 -203 321 hhcurveto
          122 callsubr
          190 848 rlineto
          -2 15 16 -1 16 hhcurveto
          159 106 77 133 85 -48 77 -61 41 hvcurveto
          -71 hlineto
          8 -17 4 -28 -29 vvcurveto
          198 callsubr
          269 -1412 49 callsubr
          7 callsubr
        </CharString>
        <CharString name="Uhorngrave">
          1601 1103 9 callsubr
          13 callsubr
          -890 -944 23 callsubr
        </CharString>
        <CharString name="Uhornhookabove">
          1601 1187 140 callsubr
          -874 -1273 23 callsubr
        </CharString>
        <CharString name="Uhorntilde">
          1601 1256 168 callsubr
          43 callgsubr
          -22 hvcurveto
          74 hlineto
          88 14 23 25 34 hhcurveto
          24 20 -11 -21 25 -17 callgsubr
          -943 -981 23 callsubr
        </CharString>
        <CharString name="Uhungarumlaut">
          1499 1057 1841 rmoveto
          -116 -290 78 115 callgsubr
          82 0 317 284 rlineto
          6 vlineto
          -808 -1869 -96 callsubr
        </CharString>
        <CharString name="Uinvertedbreve">
          1499 1159 1889 rmoveto
          -178 -106 102 callsubr
          123 callsubr
          -2 -7 hvcurveto
          75 hlineto
          10 26 7 33 32 vvcurveto
          125 -2 -102 94 -146 hhcurveto
          -373 -1917 -96 callsubr
        </CharString>
        <CharString name="Umacron">
          1499 874 -40 callsubr
          15 callsubr
          -118 -1788 -96 callsubr
        </CharString>
        <CharString name="Umacrondieresis">
          1499 1008 82 callgsubr
          -10 hlineto
          -56 -52 -36 -50 -10 hvcurveto
          -49 -11 36 -36 55 hhcurveto
          339 hmoveto
          56 51 36 49 11 hvcurveto
          50 11 -36 36 -56 hhcurveto
          -11 hlineto
          -56 -50 -36 -50 -12 hvcurveto
          -49 -10 36 -36 55 99 callgsubr
          -89 -1722 -96 callsubr
        </CharString>
        <CharString name="Uogonek">
          1499 744 48 callgsubr
          -42 61 87 62 25 63 50 56 hvcurveto
          303 20 205 207 76 342 rrcurveto
          145 651 29 127 23 27 130 21 rlinecurve
          16 75 -426 0 -15 -75 rlineto
          139 -22 11 -26 -25 -127 -130 -636 -54 callgsubr
          -140 141 332 71 hvcurveto
          51 callgsubr
          116 -20 16 -20 -21 -94 rlinecurve
          -133 -628 -87 -413 218 -203 299 -17 rlinecurve
          -130 -82 -77 -99 -101 vvcurveto
          -102 86 -72 123 vhcurveto
          endchar
        </CharString>
        <CharString name="Upsilondieresisgreek">
          1333 910 -58 callsubr
          -36 callgsubr
          47 -47 62 vhcurveto
          -55 callsubr
          47 callsubr
          -775 -409 -83 callsubr
          -77 callsubr
        </CharString>
        <CharString name="Upsilongreek">
          1333 467 1175 -83 callsubr
          -77 callsubr
        </CharString>
        <CharString name="Upsilontonosgreek">
          1743 876 1175 -83 callsubr
          15 75 -422 0 -16 -75 137 -18 3 174 callsubr
          16 37 142 172 callsubr
          -498 269 -72 callgsubr
          endchar
        </CharString>
        <CharString name="Uring">
          1499 922 1735 rmoveto
          -110 98 81 callgsubr
          -100 -86 -112 vhcurveto
          154 -15 rmoveto
          79 47 61 56 45 28 -33 -56 -79 -47 -62 -55 -46 -28 33 57 vhcurveto
          -290 -1748 -96 callsubr
        </CharString>
        <CharString name="Utilde">
          1499 1254 168 callsubr
          -25 -19 11 21 -26 hvcurveto
          -26 21 rlineto
          31 -38 -40 93 callgsubr
          34 hhcurveto
          24 19 -11 -21 26 -17 callgsubr
          -468 -1616 -96 callsubr
        </CharString>
        <CharString name="Utildeacute">
          1499 1486 236 callsubr
          377 -219 -78 callgsubr
          -27 -28 7 12 -37 hvcurveto
          -30 11 rlineto
          14 -43 -42 10 -49 hhcurveto
          -102 -86 -21 callsubr
          10 30 19 44 hhcurveto
          28 27 -7 -12 36 hvcurveto
          32 -10 rlineto
          -15 42 42 -10 49 hhcurveto
          -463 -1584 -96 callsubr
        </CharString>
        <CharString name="Utildebelow">
          83 callsubr
          54 -402 118 callsubr
          -16 -27 -55 callgsubr
          160 callsubr
        </CharString>
        <CharString name="V">
          237 callsubr
          endchar
        </CharString>
        <CharString name="Vdotbelow">
          237 callsubr
          210 -1345 -92 callsubr
          97 callsubr
        </CharString>
        <CharString name="Vecyrillic">
          1372 1379 450 67 callsubr
        </CharString>
        <CharString name="Vtilde">
          1395 1222 -69 callgsubr
          -783 -420 rmoveto
          196 callsubr
          endchar
        </CharString>
        <CharString name="W">
          2130 432 1168 -17 callsubr
        </CharString>
        <CharString name="Wacute">
          2130 1594 1 callsubr
          382 281 rlineto
          9 vlineto
          -1417 -673 -17 callsubr
        </CharString>
        <CharString name="Wcircumflex">
          2130 1303 -57 callsubr
          -42 callsubr
          -786 -383 -17 callsubr
        </CharString>
        <CharString name="Wdieresis">
          2130 1346 -58 callsubr
          47 callsubr
          -55 callsubr
          104 callsubr
          hvcurveto
          -1246 -416 -17 callsubr
        </CharString>
        <CharString name="Wdotaccent">
          2130 1512 3 callgsubr
          -1080 -408 -17 callsubr
        </CharString>
        <CharString name="Wdotbelow">
          2130 432 1168 rmoveto
          108 -1171 204 0 553 1091 83 -1091 209 0 593 1156 91 175 38 25 116 16 rlinecurve
          16 75 -432 0 -16 -75 136 -17 9 -33 -77 -160 rlinecurve
          -426 -888 -58 895 -10 156 16 27 141 20 rlinecurve
          16 75 -579 0 -15 -75 134 -18 8 -38 -72 -151 rlinecurve
          -427 -891 -60 896 -9 149 19 33 143 20 rlinecurve
          16 75 -600 0 -16 -75 102 -15 31 -25 15 -161 rlinecurve
          578 -1345 -92 callsubr
          50 -51 115 callsubr
        </CharString>
        <CharString name="Wgrave">
          2130 1463 9 callsubr
          263 -281 rlineto
          71 hlineto
          -1131 -383 -17 callsubr
        </CharString>
        <CharString name="X">
          1352 330 291 16 callsubr
        </CharString>
        <CharString name="Xdieresis">
          1352 945 -58 callsubr
          61 -46 48 -62 -64 -53 -52 -67 -1 hvcurveto
          -60 46 -47 63 vhcurveto
          -55 callsubr
          104 callsubr
          hvcurveto
          -947 -1293 16 callsubr
        </CharString>
        <CharString name="Xdotaccent">
          1352 1111 -71 callsubr
          -56 callsubr
          -781 -1285 16 callsubr
        </CharString>
        <CharString name="Xigreek">
          1342 1583 1444 rmoveto
          -1184 hlineto
          -105 -420 rlineto
          70 hlineto
          189 88 80 34 241 hhcurveto
          352 hlineto
          241 65 -34 -189 8 hvcurveto
          71 hlineto
          -796 -343 rmoveto
          231 hlineto
          124 30 68 callgsubr
          -124 hhcurveto
          -231 hlineto
          -124 -30 44 146 6 hvcurveto
          -67 hlineto
          -101 -477 rlineto
          67 hlineto
          147 56 49 45 125 hhcurveto
          573 -681 rmoveto
          110 callgsubr
          -305 hlineto
          -277 -61 32 232 -2 hvcurveto
          -71 hlineto
          -80 -464 rlineto
          endchar
        </CharString>
        <CharString name="Xigreek.1">
          1373 76 hmoveto
          1213 hlineto
          110 callgsubr
          -116 hlineto
          102 481 rlineto
          80 hlineto
          125 29 68 callgsubr
          -123 hhcurveto
          -80 hlineto
          99 471 rlineto
          141 hlineto
          241 65 -34 -189 8 hvcurveto
          71 hlineto
          73 420 -1193 0 -105 -420 rlineto
          71 hlineto
          189 88 79 34 241 hhcurveto
          141 hlineto
          -99 -471 rlineto
          -82 hlineto
          -124 -30 44 146 6 hvcurveto
          -67 hlineto
          -100 -477 rlineto
          66 hlineto
          147 56 49 45 125 hhcurveto
          81 hlineto
          -102 -481 rlineto
          -119 hlineto
          -277 -61 32 232 -2 hvcurveto
          -71 hlineto
          endchar
        </CharString>
        <CharString name="Y">
          1334 467 1175 -83 callsubr
          -77 callsubr
        </CharString>
        <CharString name="Yacute">
          1333 1159 -94 callsubr
          -54 callsubr
          -947 -666 -83 callsubr
          -77 callsubr
        </CharString>
        <CharString name="Ycircumflex">
          1333 867 -57 callsubr
          -42 callsubr
          -315 -376 -83 callsubr
          -77 callsubr
        </CharString>
        <CharString name="Ydieresis">
          1333 910 -58 callsubr
          -36 callgsubr
          47 -47 62 vhcurveto
          -55 callsubr
          47 callsubr
          -775 -409 -83 callsubr
          -77 callsubr
        </CharString>
        <CharString name="Ydotaccent">
          1333 1076 147 callsubr
          -609 -401 -83 callsubr
          -77 callsubr
        </CharString>
        <CharString name="Ydotbelow">
          1333 467 1175 -83 callsubr
          16 75 -423 0 -16 -75 138 -18 2 174 callsubr
          17 37 141 172 callsubr
          147 -1352 -92 callsubr
          8 callsubr
        </CharString>
        <CharString name="Yericyrillic">
          1960 213 callsubr
          424 -296 44 callgsubr
          133 -15 13 -7 callgsubr
          -731 304 -52 callgsubr
          64 callgsubr
        </CharString>
        <CharString name="Ygrave">
          1333 1027 9 callsubr
          13 callsubr
          -660 -376 -83 callsubr
          -77 callsubr
        </CharString>
        <CharString name="Yhookabove">
          1333 1111 140 callsubr
          -644 -705 -83 callsubr
          -77 callsubr
        </CharString>
        <CharString name="Yicyrillic">
          705 131 callsubr
        </CharString>
        <CharString name="Ymacron">
          1333 800 -40 callsubr
          15 callsubr
          -363 -585 -83 callsubr
          -77 callsubr
        </CharString>
        <CharString name="Ytilde">
          1333 1180 168 callsubr
          43 callgsubr
          -23 hvcurveto
          75 hlineto
          88 14 23 25 34 hhcurveto
          24 20 -11 -21 25 -17 callgsubr
          -713 -413 -83 callsubr
          -77 callsubr
        </CharString>
        <CharString name="Z">
          1221 1140 hmoveto
          -78 callsubr
          -16 callgsubr
          endchar
        </CharString>
        <CharString name="Zacute">
          1221 1042 -94 callsubr
          -80 callsubr
          -157 -1841 rmoveto
          -78 callsubr
          -16 callgsubr
          endchar
        </CharString>
        <CharString name="Zcaron">
          1221 1186 -3 callsubr
          -26 callsubr
          -135 -1860 rmoveto
          -78 callsubr
          -16 callgsubr
          endchar
        </CharString>
        <CharString name="Zcircumflex">
          1221 750 1551 rmoveto
          220 145 153 -145 79 0 -127 290 -42 callsubr
          475 -1551 rmoveto
          -78 callsubr
          -16 callgsubr
          endchar
        </CharString>
        <CharString name="Zdotaccent">
          1221 959 77 callsubr
          181 -1576 rmoveto
          -78 callsubr
          -16 callgsubr
          endchar
        </CharString>
        <CharString name="Zdotbelow">
          72 callgsubr
          489 -177 -92 callsubr
          8 callsubr
        </CharString>
        <CharString name="Zecyrillic">
          1300 631 -28 rmoveto
          392 283 185 298 180 -150 102 -215 23 hvcurveto
          249 36 189 121 224 vvcurveto
          210 -179 121 -304 -176 -167 -52 -69 -103 vhcurveto
          -80 -332 rlineto
          69 hlineto
          248 102 146 100 175 hhcurveto
          141 78 -95 -138 -211 -136 -135 -229 hvcurveto
          -147 hlineto
          -20 -94 rlineto
          146 hlineto
          196 106 -86 -172 -187 -118 -171 -256 -2 hvcurveto
          -187 -2 -121 123 -10 219 rrcurveto
          -69 hlineto
          -46 -324 rlineto
          -59 77 165 -61 199 hhcurveto
          endchar
        </CharString>
        <CharString name="Zetagreek">
          1221 1140 hmoveto
          -78 callsubr
          -16 callgsubr
          endchar
        </CharString>
        <CharString name="Zhecyrillic">
          2111 357 hmoveto
          602 691 107 0 -104 -492 -20 -90 -24 -16 -146 -18 rlinecurve
          -16 -75 617 0 16 75 -138 18 -19 16 19 90 rlinecurve
          104 492 110 0 298 -691 349 0 16 71 -62 26 -38 45 -94 210 rlinecurve
          -233 535 266 242 196 178 67 41 134 21 rlinecurve
          16 75 -477 0 -16 -75 140 -16 -1 -40 -139 -136 rlinecurve
          -399 -390 -112 0 97 458 19 90 26 16 145 18 rlinecurve
          16 75 -617 0 -16 -75 140 -16 17 -18 -20 -90 rlinecurve
          -97 -458 -107 0 -242 391 -90 143 37 33 137 15 rlinecurve
          15 75 -488 0 -15 -75 128 -24 51 -35 125 -179 rlinecurve
          159 -228 -472 -548 rlineto
          -182 -210 -53 -49 -71 -25 -16 -71 rcurveline
          endchar
        </CharString>
        <CharString name="Zlinebelow">
          72 callgsubr
          198 -366 -45 callsubr
        </CharString>
        <CharString name="a">
          1166 -81 callsubr
          -107 callsubr
          -106 callsubr
          -100 callsubr
        </CharString>
        <CharString name="a.dnum">
          735 120 193 rmoveto
          -132 1 72 -73 92 hhcurveto
          86 69 51 89 35 hvcurveto
          -2 -5 -3 -20 -6 vvcurveto
          -70 -8 33 -36 67 hhcurveto
          67 66 30 41 33 hvcurveto
          12 54 rlineto
          -12 -17 -24 -6 -19 hhcurveto
          -27 -11 18 39 9 hvcurveto
          84 396 -104 0 -68 -61 rlineto
          39 -19 -47 34 -77 hhcurveto
          -176 -125 -163 -207 1 hvcurveto
          186 hmoveto
          120 -1 49 170 108 hhcurveto
          38 26 -16 -19 6 hvcurveto
          -51 -238 rlineto
          -77 -17 -44 -44 -46 hhcurveto
          -40 -26 28 76 -2 hvcurveto
          endchar
        </CharString>
        <CharString name="a.numr">
          735 262 861 5 callgsubr
          40 33 hvcurveto
          12 54 rlineto
          -12 -18 -24 -5 -18 hhcurveto
          -27 -11 18 39 9 hvcurveto
          84 395 -105 0 -68 -60 rlineto
          39 -18 -47 24 callgsubr
          109 hhcurveto
          38 25 -16 -19 7 hvcurveto
          -51 -238 rlineto
          -78 -17 -44 -43 -47 hhcurveto
          -40 -26 28 75 -1 hvcurveto
          endchar
        </CharString>
        <CharString name="a.sups">
          735 301 1042 5 callgsubr
          41 33 hvcurveto
          11 53 rlineto
          -11 -17 -24 -6 -18 hhcurveto
          -28 -10 18 39 9 hvcurveto
          84 396 -105 0 -68 -61 rlineto
          39 -19 -46 24 callgsubr
          108 hhcurveto
          38 26 -16 -19 7 hvcurveto
          -51 -238 rlineto
          -78 -17 -45 -43 -46 hhcurveto
          -40 -26 28 75 -1 hvcurveto
          endchar
        </CharString>
        <CharString name="aacute">
          1166 924 -89 callsubr
          -59 callsubr
          -1041 -1171 -105 callsubr
          -107 callsubr
          -106 callsubr
          -100 callsubr
        </CharString>
        <CharString name="abreve">
          1166 839 -63 callsubr
          164 callsubr
          2 11 1 56 callgsubr
          -657 -812 -105 callsubr
          -107 callsubr
          -106 callsubr
          -100 callsubr
        </CharString>
        <CharString name="abreveacute">
          1166 1164 -19 callsubr
          -18 callsubr
          229 -300 64 callsubr
        </CharString>
        <CharString name="abrevecyrillic">
          1166 800 60 callgsubr
          -51 -111 -76 -128 hhcurveto
          -39 -35 114 callgsubr
          -618 -815 -105 callsubr
          -107 callsubr
          -106 callsubr
          -100 callsubr
        </CharString>
        <CharString name="abrevedotbelow">
          1166 839 -63 callsubr
          164 callsubr
          2 11 1 56 callgsubr
          -657 -812 -105 callsubr
          -107 callsubr
          -106 callsubr
          103 111 47 65 52 hvcurveto
          -5 callsubr
          25 callsubr
          151 91 callsubr
        </CharString>
        <CharString name="abrevegrave">
          1166 581 -4 callsubr
          174 -558 64 callsubr
        </CharString>
        <CharString name="abrevehookabove">
          1166 883 1660 rmoveto
          -79 -18 callgsubr
          51 14 47 hhcurveto
          67 31 -26 -41 -9 hvcurveto
          -8 -40 -41 -27 -81 -19 rrcurveto
          56 -48 133 29 83 47 19 90 rlinecurve
          88 18 -78 50 -105 hhcurveto
          -94 -543 64 callsubr
        </CharString>
        <CharString name="abrevetilde">
          73 callgsubr
          -191 -325 64 callsubr
        </CharString>
        <CharString name="acaron">
          1166 1078 -79 callsubr
          6 callsubr
          -992 -1179 -105 callsubr
          -107 callsubr
          -106 callsubr
          -100 callsubr
        </CharString>
        <CharString name="acircumflex">
          1166 592 -76 callsubr
          -314 -794 -105 callsubr
          -107 callsubr
          -106 callsubr
          -100 callsubr
        </CharString>
        <CharString name="acircumflexacute">
          1166 1164 -19 callsubr
          -18 callsubr
          -62 -302 -44 callsubr
          -333 -846 -105 callsubr
          -107 callsubr
          -106 callsubr
          -100 callsubr
        </CharString>
        <CharString name="acircumflexdotbelow">
          1166 592 -76 callsubr
          -314 -794 -105 callsubr
          -107 callsubr
          -106 callsubr
          103 111 47 65 52 hvcurveto
          -5 callsubr
          25 callsubr
          151 91 callsubr
        </CharString>
        <CharString name="acircumflexgrave">
          1166 581 -4 callsubr
          -117 -560 -44 callsubr
          -333 -846 -105 callsubr
          -107 callsubr
          -106 callsubr
          -100 callsubr
        </CharString>
        <CharString name="acircumflexhookabove">
          1166 1116 1660 rmoveto
          -78 -18 callgsubr
          50 14 48 hhcurveto
          66 32 -26 -41 -9 hvcurveto
          -9 -40 -40 165 callsubr
          -106 hhcurveto
          -618 -545 -44 callsubr
          -333 -846 -105 callsubr
          -107 callsubr
          -106 callsubr
          -100 callsubr
        </CharString>
        <CharString name="acircumflextilde">
          73 callgsubr
          -482 -327 -44 callsubr
          -333 -846 -105 callsubr
          -107 callsubr
          -106 callsubr
          -100 callsubr
        </CharString>
        <CharString name="acute">
          1024 884 -89 callsubr
          -69 callsubr
          endchar
        </CharString>
        <CharString name="acutecmb">
          0 372 -89 callsubr
          -69 callsubr
          endchar
        </CharString>
        <CharString name="acutecmb.short">
          0 346 1401 rmoveto
          -209 -290 -54 callsubr
          endchar
        </CharString>
        <CharString name="acutedotaccentcmb">
          16 callgsubr
          229 -186 rmoveto
          35 164 -623 -182 -16 -77 rlineto
          endchar
        </CharString>
        <CharString name="acutedotaccentcmb.short">
          0 397 1764 234 callsubr
          245 -146 rmoveto
          30 139 -631 -154 -14 -65 rlineto
          endchar
        </CharString>
        <CharString name="acyrillic">
          1166 -81 callsubr
          -107 callsubr
          -106 callsubr
          -100 callsubr
        </CharString>
        <CharString name="adblgrave">
          1166 601 51 callsubr
          256 -370 rlineto
          93 hlineto
          -66 callgsubr
          86 hlineto
          -817 -793 -105 callsubr
          -107 callsubr
          -106 callsubr
          -100 callsubr
        </CharString>
        <CharString name="adieresis">
          1166 615 -62 callsubr
          3 callsubr
          -60 callsubr
          3 callsubr
          -862 -851 -105 callsubr
          -107 callsubr
          -106 callsubr
          -100 callsubr
        </CharString>
        <CharString name="adieresismacron">
          1166 571 1466 -86 callsubr
          -34 callgsubr
          13 -37 43 -59 -23 callsubr
          -12 -53 callsubr
          -41 callsubr
          -37 -2 callsubr
          -770 -789 -105 callsubr
          -107 callsubr
          -106 callsubr
          -100 callsubr
        </CharString>
        <CharString name="adotaccent">
          1166 829 -85 callsubr
          109 callsubr
          -647 -842 -105 callsubr
          -107 callsubr
          -106 callsubr
          -100 callsubr
        </CharString>
        <CharString name="adotbelow">
          1166 -81 callsubr
          -107 callsubr
          -106 callsubr
          103 111 47 65 52 hvcurveto
          -5 callsubr
          25 callsubr
          151 91 callsubr
        </CharString>
        <CharString name="adotmacron">
          1166 569 1454 rmoveto
          584 hlineto
          27 127 rlineto
          -585 hlineto
          221 -445 rmoveto
          63 49 47 62 62 -49 46 -63 -62 -49 -46 -62 -62 49 -47 62 hvcurveto
          -634 -788 -105 callsubr
          -107 callsubr
          -106 callsubr
          -100 callsubr
        </CharString>
        <CharString name="ae">
          1523 261 787 124 callsubr
        </CharString>
        <CharString name="aeacute">
          1523 1137 -49 callsubr
          -1175 -732 124 callsubr
        </CharString>
        <CharString name="aemacron">
          1523 735 1238 rmoveto
          585 hlineto
          33 157 rlineto
          -585 hlineto
          -507 -608 124 callsubr
        </CharString>
        <CharString name="agrave">
          1166 802 106 callgsubr
          -720 -793 -105 callsubr
          -107 callsubr
          -106 callsubr
          -100 callsubr
        </CharString>
        <CharString name="ahookabove">
          1166 873 1526 rmoveto
          -96 -80 -40 -57 -44 hvcurveto
          29 callsubr
          93 hlineto
          -57 callgsubr
          -691 -1178 -105 callsubr
          -107 callsubr
          -106 callsubr
          -100 callsubr
        </CharString>
        <CharString name="ainvertedbreve">
          1166 836 28 callsubr
          132 hhcurveto
          111 74 -63 -82 -11 -1 -11 -1 -7 hvcurveto
          80 hlineto
          12 30 8 -42 callgsubr
          -654 -1161 -105 callsubr
          -107 callsubr
          -106 callsubr
          -100 callsubr
        </CharString>
        <CharString name="alphagreek">
          1249 480 -21 178 callsubr
        </CharString>
        <CharString name="alphatonosgreek">
          1249 899 -93 callgsubr
          -107 callgsubr
          -684 -1555 178 callsubr
        </CharString>
        <CharString name="amacron">
          1166 522 -67 callgsubr
          -373 -1047 -105 callsubr
          -107 callsubr
          -106 callsubr
          -100 callsubr
        </CharString>
        <CharString name="ampersand">
          1521 138 337 rmoveto
          -205 151 -160 260 170 139 83 154 151 vhcurveto
          174 -209 348 0 13 59 -96 57 -83 93 -104 126 rlinecurve
          -64 78 158 190 140 166 48 29 115 18 rlinecurve
          15 76 -444 0 -15 -76 148 -16 15 -34 -102 -135 rlinecurve
          -124 -162 -287 350 -3 3 -3 4 -3 3 rlinecurve
          260 88 123 116 144 vvcurveto
          173 -143 122 -247 -263 -159 -162 -203 -4 vhcurveto
          -2 -100 36 -101 85 -123 rrcurveto
          -253 -84 -150 -144 -218 vvcurveto
          537 848 rmoveto
          115 71 69 106 110 55 -91 -108 -118 -65 -96 -141 -71 vhcurveto
          -102 134 -34 84 82 vvcurveto
          -282 -746 rmoveto
          141 87 84 106 58 vhcurveto
          11 -15 13 -15 13 -16 342 -413 rcurveline
          -76 -83 -78 -45 -103 hhcurveto
          -178 -130 127 170 hvcurveto
          endchar
        </CharString>
        <CharString name="anoteleiagreek">
          536 451 716 -29 callgsubr
        </CharString>
        <CharString name="aogonek">
          1166 -81 callsubr
          -107 callsubr
          -106 callsubr
          15 14 1 2 15 hvcurveto
          -188 -116 -74 -96 -98 vvcurveto
          -97 76 -62 110 86 71 36 45 35 vhcurveto
          15 74 rlineto
          -17 -22 -30 -11 -32 hhcurveto
          -48 -35 33 64 100 87 110 168 141 hvcurveto
          1 1 1 1 1 hvcurveto
          16 77 rlineto
          -27 -34 -46 -94 callgsubr
          167 775 -148 0 -109 -101 rlineto
          64 -31 -78 58 -130 -79 callgsubr
          -25 callgsubr
          -95 -90 hhcurveto
          -81 -48 63 162 hvcurveto
          endchar
        </CharString>
        <CharString name="approxequal">
          1215 1013 790 rmoveto
          -151 -111 211 -197 hhcurveto
          -156 -132 -112 -253 -37 hvcurveto
          123 hlineto
          151 29 81 62 88 152 110 -211 196 hhcurveto
          156 133 112 252 36 hvcurveto
          -123 hlineto
          -150 -29 -81 -62 -87 hhcurveto
          -105 -491 rmoveto
          -151 -110 210 -197 hhcurveto
          -157 -132 -112 -253 -37 hvcurveto
          124 hlineto
          152 28 82 61 88 151 111 -211 196 hhcurveto
          155 133 113 252 36 hvcurveto
          -123 hlineto
          -151 -28 -82 -61 -87 hhcurveto
          endchar
        </CharString>
        <CharString name="aring">
          1166 566 1323 rmoveto
          -121 109 -75 142 176 112 94 126 121 -109 75 -142 -176 -112 -94 -126 vhcurveto
          157 callsubr
          -556 -958 -105 callsubr
          -107 callsubr
          -106 callsubr
          -100 callsubr
        </CharString>
        <CharString name="aringacute">
          1166 1165 1514 rmoveto
          35 164 -18 callsubr
          85 callgsubr
          -137 hhcurveto
          -74 hlineto
          -135 -103 -56 -85 -18 hvcurveto
          -86 -18 78 -56 136 hhcurveto
          78 76 rmoveto
          -51 hlineto
          -44 -20 27 39 8 hvcurveto
          39 9 32 27 44 hhcurveto
          50 hlineto
          45 20 -27 -39 -9 hvcurveto
          -39 -8 -31 -27 -45 hhcurveto
          -645 -829 -105 callsubr
          -107 callsubr
          -106 callsubr
          -100 callsubr
        </CharString>
        <CharString name="aringbelow">
          1166 -81 callsubr
          -107 callsubr
          -106 callsubr
          103 111 47 65 52 hvcurveto
          -5 callsubr
          25 callsubr
          -116 -654 103 callgsubr
          -111 -86 -107 5 144 callsubr
        </CharString>
        <CharString name="asciicircum">
          1218 851 1444 rmoveto
          -539 -592 87 -79 494 517 274 -517 104 79 -288 592 rlineto
          endchar
        </CharString>
        <CharString name="asciitilde">
          1215 962 549 rmoveto
          -151 -110 211 -198 hhcurveto
          -157 -132 -112 -253 -36 hvcurveto
          123 hlineto
          151 29 81 63 88 152 110 -211 197 hhcurveto
          155 132 111 252 37 hvcurveto
          -123 hlineto
          -149 -29 -81 -63 -87 hhcurveto
          endchar
        </CharString>
        <CharString name="asterisk">
          794 687 1473 rmoveto
          -57 -34 -39 -66 -18 1 -19 2 -28 hvcurveto
          21 -183 24 0 97 186 rlineto
          21 38 5 25 22 vvcurveto
          47 -33 35 -47 vhcurveto
          -288 -126 rmoveto
          -51 -33 -40 -44 -40 25 -36 77 -25 hvcurveto
          184 -66 14 21 -94 144 rlineto
          66 -43 -42 20 -37 hhcurveto
          515 -55 rmoveto
          -38 -30 -15 -47 -57 hvcurveto
          -141 -114 9 -22 185 20 rlineto
          111 8 45 38 54 vvcurveto
          45 -34 33 -50 vhcurveto
          -571 -399 rmoveto
          39 29 15 47 58 hvcurveto
          140 114 -9 22 -185 -20 rlineto
          -111 -9 -44 -37 -54 vvcurveto
          -45 34 -33 49 vhcurveto
          599 28 rmoveto
          40 -25 37 -76 24 vhcurveto
          -185 67 -13 -21 94 -144 rlineto
          -66 42 43 -20 37 hhcurveto
          50 33 40 43 hvcurveto
          -371 -210 rmoveto
          56 35 40 66 18 -1 19 -3 28 hvcurveto
          -20 183 -24 0 -98 -186 rlineto
          -20 -38 -6 -25 -22 vvcurveto
          -47 34 -36 47 vhcurveto
          endchar
        </CharString>
        <CharString name="at">
          2040 1474 -298 rmoveto
          1 77 rlineto
          -73 -128 -136 -23 -163 hhcurveto
          -405 -307 284 461 498 376 405 512 432 290 -246 -398 -355 -221 -197 -175 -79 -25 47 86 18 hvcurveto
          151 705 -128 0 -120 -129 rlineto
          94 -29 -76 59 -114 hhcurveto
          -269 -188 -312 -308 -209 90 -125 156 119 109 79 161 77 hvcurveto
          -5 -24 -3 -24 -18 vvcurveto
          -129 -5 103 -72 143 hhcurveto
          315 272 273 409 438 -341 295 -499 -580 -421 -446 -566 -509 357 -328 448 175 180 45 75 93 hvcurveto
          -536 669 rmoveto
          229 109 300 162 75 46 -56 -87 1 vhcurveto
          -69 -324 rlineto
          -140 -29 -90 -114 -94 hhcurveto
          -82 -29 78 114 hvcurveto
          endchar
        </CharString>
        <CharString name="atilde">
          1166 952 73 callsubr
          11 callsubr
          24 -58 hhcurveto
          -99 -1 116 callsubr
          29 32 41 100 callgsubr
          -770 -836 -105 callsubr
          -107 callsubr
          -106 callsubr
          -100 callsubr
        </CharString>
        <CharString name="austral">
          1390 85 383 rmoveto
          232 hlineto
          -74 -134 -73 -133 -31 -27 -119 -14 rlinecurve
          -15 -75 419 0 17 75 -129 16 -17 27 68 129 rlinecurve
          72 136 523 0 16 -145 12 -119 -18 -27 -144 -17 rlinecurve
          -16 -75 569 0 16 75 -111 13 -20 27 -14 123 rlinecurve
          -18 145 237 0 14 67 -259 0 -25 212 329 0 15 67 -353 0 -86 717 -198 0 -396 -717 -348 0 -15 -67 326 0 -117 -212 rlineto
          -254 hlineto
          519 279 rmoveto
          252 474 50 -474 rlineto
          -451 -279 rmoveto
          113 212 345 0 23 -212 rlineto
          endchar
        </CharString>
        <CharString name="austral.tnum">
          1237 96 447 rmoveto
          -15 -67 200 0 -66 -131 -68 -133 -28 -29 -102 -12 rlinecurve
          -16 -75 381 0 16 75 -119 15 -12 24 65 133 rlinecurve
          65 133 447 0 9 -142 8 -120 -19 -27 -128 -16 rlinecurve
          -16 -75 538 0 16 75 -93 11 -16 28 -11 124 rlinecurve
          -12 142 198 0 14 67 -217 0 -18 211 280 0 15 68 -300 0 -60 720 -210 0 -366 -720 -301 0 -15 -68 282 0 -107 -211 rlineto
          251 279 rmoveto
          228 465 29 -465 rlineto
          -393 -279 rmoveto
          103 211 294 0 13 -211 rlineto
          endchar
        </CharString>
        <CharString name="b">
          153 callsubr
          endchar
        </CharString>
        <CharString name="backslash">
          706 469 -284 rmoveto
          147 hlineto
          -103 1868 rlineto
          -148 hlineto
          endchar
        </CharString>
        <CharString name="baht">
          -5 callgsubr
          159 -122 110 -259 29 rrcurveto
          48 225 -67 0 -47 -220 rlineto
          1 -26 -26 1 -28 hhcurveto
          -503 hlineto
          -16 -75 rlineto
          133 -17 14 -19 -19 -88 -211 -987 rcurveline
          -19 -87 -21 -19 -139 -17 -16 -75 rcurveline
          545 hlineto
          12 13 0 13 hhcurveto
          -47 -219 67 0 47 222 rlineto
          379 24 233 154 245 vvcurveto
          -566 873 rmoveto
          89 -3 rlineto
          26 -1 24 -2 22 -4 -110 -517 rcurveline
          -11 -12 -1 -12 hhcurveto
          -127 hlineto
          462 298 rmoveto
          -142 -82 -110 -149 -34 vhcurveto
          104 488 rlineto
          85 -34 42 -69 -99 vvcurveto
          -480 -384 rmoveto
          126 -1 rlineto
          12 12 0 -1 11 hvcurveto
          -126 -591 rlineto
          -23 -3 -24 -1 -25 -1 -92 -2 rcurveline
          534 334 rmoveto
          -161 -93 -117 -208 -39 vhcurveto
          122 569 rlineto
          117 -33 62 -92 -127 vvcurveto
          endchar
        </CharString>
        <CharString name="baht.tnum">
          -1 callgsubr
          155 -111 105 -237 29 vhcurveto
          48 226 -67 0 -47 -220 rlineto
          1 -24 -25 1 -27 hhcurveto
          -479 hlineto
          -16 -75 rlineto
          127 -16 15 -20 -19 -88 -211 -987 rcurveline
          -19 -87 -20 -20 -135 -16 -16 -75 rcurveline
          527 hlineto
          9 10 0 9 hhcurveto
          -47 -219 67 0 48 222 rlineto
          358 23 221 154 246 vvcurveto
          -523 873 rmoveto
          83 -2 rlineto
          24 -1 23 -3 20 -4 -110 -517 rcurveline
          -10 -11 -1 -11 hhcurveto
          -119 hlineto
          431 307 rmoveto
          -142 -75 -114 -135 -37 vhcurveto
          103 484 rlineto
          72 -34 35 -64 -93 vvcurveto
          -449 -393 rmoveto
          113 -1 rlineto
          13 12 -1 -1 12 hvcurveto
          -126 -591 rlineto
          -20 -2 -20 -1 -22 -1 -92 -2 rcurveline
          504 347 rmoveto
          -165 -90 -124 -190 -41 vhcurveto
          120 567 rlineto
          106 -35 54 -87 -115 vvcurveto
          endchar
        </CharString>
        <CharString name="bar">
          706 219 -284 rmoveto
          147 hlineto
          397 1868 rlineto
          -147 hlineto
          endchar
        </CharString>
        <CharString name="bdotaccent">
          1164 679 1630 rmoveto
          83 66 66 82 76 -59 59 -79 -82 -67 -66 -82 -76 59 -59 79 hvcurveto
          517 -975 rmoveto
          237 -121 133 -156 -139 193 callsubr
          endchar
        </CharString>
        <CharString name="bdotbelow">
          153 callsubr
          -359 -1080 rmoveto
          77 -105 callgsubr
          -76 -62 -58 -74 hvcurveto
          -69 1 55 -53 73 hhcurveto
          endchar
        </CharString>
        <CharString name="becyrillic">
          1159 1176 569 rmoveto
          247 -144 192 -247 -205 -156 -126 -180 -79 vhcurveto
          15 280 108 188 342 24 6 1 115 8 7 0 268 17 100 81 44 211 rrcurveto
          -74 hlineto
          -22 -50 -65 -17 -143 -5 rrcurveto
          -565 -16 -278 -425 -521 vvcurveto
          -314 149 -186 272 332 220 276 315 vhcurveto
          -272 85 rmoveto
          -246 -97 -332 -178 -99 -57 88 171 246 97 332 179 98 57 -89 -170 vhcurveto
          endchar
        </CharString>
        <CharString name="betagreek">
          1170 31 -460 rmoveto
          279 hlineto
          101 561 rlineto
          -67 52 108 -55 123 hhcurveto
          295 193 211 254 12 hvcurveto
          14 213 -114 161 -217 28 221 52 122 132 6 175 rrcurveto
          188 11 -132 126 -243 hhcurveto
          -267 -175 -165 -348 -75 hvcurveto
          281 96 rmoveto
          205 45 53 108 125 hhcurveto
          90 55 -69 -147 -9 hvcurveto
          -8 -186 -95 -120 -198 -4 rrcurveto
          -38 -183 196 -5 89 -95 -8 -194 rlinecurve
          -197 -7 -130 -122 -155 hhcurveto
          -83 -67 32 64 -53 hvcurveto
          41 193 153 704 4 16 rrcurveto
          endchar
        </CharString>
        <CharString name="bitcoin">
          -5 callgsubr
          133 -86 99 -181 46 rrcurveto
          53 245 -68 0 -50 -232 rlineto
          9 -57 -65 5 -73 hhcurveto
          -4 hlineto
          46 218 -67 0 -47 -218 -431 0 -16 -75 133 -17 14 -19 -19 -88 rlinecurve
          -211 -987 -19 -87 -21 -19 -139 -17 rlinecurve
          -16 -75 432 0 -47 -219 67 0 47 219 rlineto
          46 hlineto
          55 53 3 4 50 hvcurveto
          -48 -226 67 0 50 235 rlineto
          306 47 184 145 218 vvcurveto
          -215 643 rmoveto
          -173 -121 -124 -214 -1 vhcurveto
          -127 hlineto
          111 528 89 -3 rlineto
          175 -6 87 -78 -143 vvcurveto
          -75 -650 rmoveto
          -194 -135 -129 -307 -9 vhcurveto
          -92 -2 129 600 126 -1 rlineto
          183 -2 96 -104 -159 vvcurveto
          endchar
        </CharString>
        <CharString name="bitcoin.tnum">
          -1 callgsubr
          130 -78 95 -165 44 vhcurveto
          52 246 -67 0 -50 -232 rlineto
          9 -53 -61 5 -68 hhcurveto
          -18 hlineto
          46 218 -67 0 -46 -218 -394 0 -16 -75 127 -16 15 -20 -19 -88 rlinecurve
          -211 -987 -19 -87 -20 -20 -135 -16 rlinecurve
          -16 -75 394 0 -47 -219 67 0 47 219 rlineto
          66 hlineto
          48 46 2 4 45 hvcurveto
          -49 -225 68 0 50 234 rlineto
          291 46 176 146 219 vvcurveto
          -203 652 rmoveto
          -174 -113 -132 -199 -1 vhcurveto
          -119 hlineto
          111 528 83 -3 rlineto
          158 -8 79 -72 -138 vvcurveto
          -75 -646 rmoveto
          -198 -131 -137 -281 -9 vhcurveto
          -92 -3 130 600 113 -1 rlineto
          173 -2 88 -103 -147 vvcurveto
          endchar
        </CharString>
        <CharString name="blinebelow">
          153 callsubr
          -641 -1022 -45 callsubr
        </CharString>
</ttFont>
